/* XPM */
static char *_00[] = {
/* columns rows colors chars-per-pixel */
"25 25 70 1 ",
"  c None",
". c #B7C6E3",
"X c #B8C7EA",
"o c #BECBEA",
"O c #BECCED",
"+ c #C3D1F2",
"@ c #C4D1F1",
"# c #C6D3F3",
"$ c #C7D4F3",
"% c #C7D5F4",
"& c #CBD6F2",
"* c #C8D5F5",
"= c #CBD7F5",
"- c #C9D5F6",
"; c #C9D6F6",
": c #CBD7F7",
"> c #CFDAF7",
", c #CBD8F8",
"< c #CCD9F9",
"1 c #CDD9FA",
"2 c #CDDAFC",
"3 c #CDDAFD",
"4 c #CFDCFE",
"5 c #CFDCFF",
"6 c #D3DDF4",
"7 c #D2DDFB",
"8 c #D0DCFD",
"9 c #D1DDFD",
"0 c #D1DDFE",
"q c #D0DDFF",
"w c #D2DEFE",
"e c #D2DEFF",
"r c #D3DFFF",
"t c #D4DFFF",
"y c #D4E0FF",
"u c #D5E0FF",
"i c #D7E1FF",
"p c #D7E2FF",
"a c #DDE6FD",
"s c #DFE8FF",
"d c #EAEEF3",
"f c #ECEFF4",
"g c #E1E9FF",
"h c #E3EAFE",
"j c #E2EAFF",
"k c #E3EAFF",
"l c #E3EBFF",
"z c #E7EEFF",
"x c #E8EEFF",
"c c #E9EFFF",
"v c #EBF0FF",
"b c #EEF2FF",
"n c #EFF3FF",
"m c #F0F2F3",
"M c #F3F5F7",
"N c #F5F6FA",
"B c #F3F6FE",
"V c #FBFCFD",
"C c #FCFCFC",
"Z c #FCFCFD",
"A c #FCFDFD",
"S c #FDFDFD",
"D c #FDFEFD",
"F c #FFFEFD",
"G c #FCFDFF",
"H c #FDFEFE",
"J c #FEFEFE",
"K c #FFFFFE",
"L c #FEFEFF",
"P c white",
/* pixels */
"                         ",
"                         ",
"                         ",
"                         ",
"               3jK       ",
"               7zK       ",
"               NKK       ",
"          KKKKKKKK       ",
"         KKcjjjjnK       ",
"        BKK6X+q5jV       ",
"       qnKm   @3jV       ",
"       qvf     &cV       ",
"       qp:     dKK       ",
"       qqq,   MjcK       ",
"        1qq:@>sppa       ",
"         :qtpqO1q5       ",
"          $%:o .:@       ",
"                         ",
"                         ",
"                         ",
"                         ",
"                         ",
"                         ",
"                         ",
"                         "
};
