/* XPM */
static char *_01[] = {
/* columns rows colors chars-per-pixel */
"25 25 63 1 ",
"  c None",
". c #B3C2E0",
"X c #B4C4E3",
"o c #B7C6E3",
"O c #BAC8E6",
"+ c #BFCDEC",
"@ c #D6DDE8",
"# c #C6D3F3",
"$ c #C7D4F4",
"% c #C9D6F6",
"& c #CAD6F7",
"* c #CAD7F7",
"= c #C9D6F8",
"- c #CAD7F8",
"; c #CAD7F9",
": c #CAD7FA",
"> c #CBD8F8",
", c #CFDBFB",
"< c #CFDBFC",
"1 c #CFDCFC",
"2 c #D4DEF4",
"3 c #D1DDFE",
"4 c #D2DEFF",
"5 c #D3DFFF",
"6 c #D5E0FF",
"7 c #D9E2FA",
"8 c #D9E3FF",
"9 c #DAE4FF",
"0 c #DDE6FC",
"q c #DCE5FF",
"w c #DEE7FF",
"e c #EFF1F1",
"r c #EFF1F3",
"t c #EAF0FF",
"y c #EDF2FF",
"u c #EEF3FF",
"i c #F5F6F7",
"p c #F2F5FA",
"a c #F1F4FC",
"s c #F0F4FF",
"d c #F1F5FF",
"f c #F2F5FF",
"g c #F7F8F9",
"h c #F6F8FA",
"j c #F6F8FF",
"k c #F7F9FF",
"l c #F9FAF8",
"z c #F8F9FA",
"x c #FCFCFB",
"c c #F8F9FC",
"v c #FBFBFC",
"b c #F9FAFE",
"n c #FBFCFF",
"m c #FEFEFD",
"M c #FDFDFE",
"N c #FCFDFF",
"B c #FDFDFF",
"V c #FDFEFE",
"C c #FEFEFE",
"Z c #FFFFFE",
"A c #FEFEFF",
"S c #FEFFFF",
"D c #FFFFFF",
/* pixels */
"                         ",
"                         ",
"                         ",
"                         ",
"           VVVVV         ",
"          VVVfttf        ",
"         VVVh7<qkx       ",
"       ;qVVi  @bVl       ",
"       ;qVVnrrlVVh       ",
"       ;9unVVkffp        ",
"       %46uVbq4,         ",
"       %4482             ",
"        $44;X.XO+        ",
"         %4444444>       ",
"          #444444%       ",
"                         ",
"                         ",
"                         ",
"                         ",
"                         ",
"                         ",
"                         ",
"                         ",
"                         ",
"                         "
};
