/* XPM */
static char *_02[] = {
/* columns rows colors chars-per-pixel */
"25 25 59 1 ",
"  c None",
". c #CCD7EC",
"X c #C2D0F0",
"o c #C6D3F3",
"O c #C7D4F4",
"+ c #C7D4F5",
"@ c #CAD6F3",
"# c #C8D5F5",
"$ c #CBD7F4",
"% c #C9D6F6",
"& c #CAD6F6",
"* c #CAD7F7",
"= c #CBD7F8",
"- c #CBD8F9",
"; c #CDD9FA",
": c #CFDCFE",
"> c #D4DFFB",
", c #D1DEFF",
"< c #D3DEFE",
"1 c #D2DEFF",
"2 c #D2DFFF",
"3 c #D3DFFF",
"4 c #D4DFFC",
"5 c #D4DFFD",
"6 c #D4DFFF",
"7 c #D5E0FF",
"8 c #D6E0FE",
"9 c #D6E1FE",
"0 c #D6E1FF",
"q c #D7E2FF",
"w c #D8E3FF",
"e c #DEE7FF",
"r c #E1E5E7",
"t c #E2E6E7",
"y c #E3E6EA",
"u c #E5E8E9",
"i c #E5EAF2",
"p c #E6EAF3",
"a c #EEEFF1",
"s c #E1E9FF",
"d c #E5ECFF",
"f c #F2F5FC",
"g c #F3F6FD",
"h c #F3F6FF",
"j c #F4F7FF",
"k c #F5F8FF",
"l c #F7F9FE",
"z c #F6F8FF",
"x c #F6F9FF",
"c c #F7F9FF",
"v c #FAFAFA",
"b c #FBFBFA",
"n c #F8FAFF",
"m c #F9FBFF",
"M c #FBFCFE",
"N c #FDFEFF",
"B c #FFFFFE",
"V c #FEFEFF",
"C c white",
/* pixels */
"                         ",
"                         ",
"                         ",
"                         ",
"           MCCjff        ",
"          qcCf4:sc       ",
"          qca  %,4       ",
"          cCy            ",
"       ;->dmvi@o%+       ",
"       ,,,qcCmq,4,       ",
"       %%-qcvi%+%%       ",
"          qcr            ",
"          qcr            ",
"          qcu            ",
"          ,e.            ",
"          ,,X            ",
"          %=             ",
"                         ",
"                         ",
"                         ",
"                         ",
"                         ",
"                         ",
"                         ",
"                         "
};
