/* XPM */
static char *_03[] = {
/* columns rows colors chars-per-pixel */
"25 25 72 1 ",
"  c None",
". c #AFBEDC",
"X c #B6C5E3",
"o c #B7C5E4",
"O c #BBC9E8",
"+ c #BDCBE9",
"@ c #BECBEA",
"# c #CFD6DA",
"$ c #C1CDE0",
"% c #C2CFEE",
"& c #C5D3F2",
"* c #C7D5F7",
"= c #C8D5F5",
"- c #CBD7F4",
"; c #CBD7F5",
": c #C9D6F6",
"> c #CAD6F7",
", c #C9D6F9",
"< c #CCD8F9",
"1 c #CCD9F9",
"2 c #CFDBFC",
"3 c #CEDBFE",
"4 c #D7DFF0",
"5 c #D0DBF9",
"6 c #D1DDF8",
"7 c #D0DCFD",
"8 c #D0DDFD",
"9 c #D1DDFD",
"0 c #D1DDFE",
"q c #D2DEFE",
"w c #D2DEFF",
"e c #D3DFFF",
"r c #D4DFFF",
"t c #DCE3F5",
"y c #D4E0FF",
"u c #D5E0FF",
"i c #DDE6FF",
"p c #ECEFF4",
"a c #E2EAFE",
"s c #E3EBFF",
"d c #E6EDFD",
"f c #E6EDFF",
"g c #E7EEFF",
"h c #E8EEFF",
"j c #EFF2F5",
"k c #ECF1FD",
"l c #ECF1FF",
"z c #EEF3FF",
"x c #F5F6F7",
"c c #F4F6F8",
"v c #F1F5FE",
"b c #F3F7FF",
"n c #F5F7FD",
"m c #F7F9F9",
"M c #F6F8FD",
"N c #F6F9FF",
"B c #F7F9FF",
"V c #F9FAF8",
"C c #FBFCFC",
"Z c #FBFCFD",
"A c #FCFCFD",
"S c #FCFDFD",
"D c #FDFDFD",
"F c #FEFEFD",
"G c #FCFDFE",
"H c #FDFDFE",
"J c #FCFDFF",
"K c #FDFEFE",
"L c #FDFEFF",
"P c #FEFEFE",
"I c #FFFFFE",
"U c #FFFFFF",
/* pixels */
"                         ",
"                         ",
"                         ",
"          AAA   AA       ",
"         CAANf6NAA       ",
"        NAAVt,0fNA       ",
"       0zAx   >3aA       ",
"       0zj     >hA       ",
"       0u>     pAA       ",
"       0001   cafA       ",
"        1r01>5iuaC       ",
"         &0ru3o*aC       ",
"          O@@. 4vA       ",
"              #VAz       ",
"        1u0X $vNf>       ",
"        >0000000%        ",
"          00000          ",
"                         ",
"                         ",
"                         ",
"                         ",
"                         ",
"                         ",
"                         ",
"                         "
};
