/* XPM */
static char *_04[] = {
/* columns rows colors chars-per-pixel */
"25 25 53 1 ",
"  c None",
". c #B8C8EB",
"X c #C1CFEE",
"o c #C4D2F4",
"O c #C7D4F4",
"+ c #C6D4F5",
"@ c #C8D5F5",
"# c #C8D5F6",
"$ c #C9D6F7",
"% c #CBD7F8",
"& c #CCD8F8",
"* c #CEDBFD",
"= c #CFDCFE",
"- c #D3DDF3",
"; c #D6DFF5",
": c #D0DCFD",
"> c #D1DDFD",
", c #D1DDFE",
"< c #D0DDFF",
"1 c #D2DEFE",
"2 c #D2DEFF",
"3 c #D2DFFF",
"4 c #D3DFFF",
"5 c #D8E2FE",
"6 c #D8E3FF",
"7 c #DBE4FE",
"8 c #DEE6FD",
"9 c #DCE5FF",
"0 c #E2EAFF",
"q c #E3EAFF",
"w c #E3EBFF",
"e c #E4EBFF",
"r c #E5ECFE",
"t c #EDF0F2",
"y c #EEF3FF",
"u c #EFF3FF",
"i c #F1F3F3",
"p c #F3F4F4",
"a c #F7F8F7",
"s c #F2F5F8",
"d c #F6F7F8",
"f c #F0F4FF",
"g c #FAFBFA",
"h c #FCFCFB",
"j c #FDFDFC",
"k c #FCFDFD",
"l c #FEFEFD",
"z c #FFFFFD",
"x c #FDFDFE",
"c c #FDFEFE",
"v c #FDFEFF",
"b c #FEFEFE",
"n c white",
/* pixels */
"                         ",
"                         ",
"                         ",
"                         ",
"       ,yb               ",
"       ,yh               ",
"       ,yg               ",
"       ,ya dbbb          ",
"       ,ybsrqqq5         ",
"       ,ybb-.o,,7        ",
"       ,ybt   O*eb       ",
"       ,fi     Oeb       ",
"       ,fi     Oeb       ",
"       ,fp     Orb       ",
"       ,9;     #59       ",
"       ,,#     %,=       ",
"       #&X     X&#       ",
"                         ",
"                         ",
"                         ",
"                         ",
"                         ",
"                         ",
"                         ",
"                         "
};
