/* XPM */
static char *_05[] = {
/* columns rows colors chars-per-pixel */
"25 25 44 1 ",
"  c None",
". c #C5D2F3",
"X c #CCD8F8",
"o c #CCD9F9",
"O c #CEDAFB",
"+ c #CEDBFB",
"@ c #CEDBFC",
"# c #CFDBFD",
"$ c #D0DCFC",
"% c #D0DCFD",
"& c #D0DDFD",
"* c #D1DDFD",
"= c #D2DEFD",
"- c #D1DDFE",
"; c #D3DEFE",
": c #D2DEFF",
"> c #DBE2F2",
", c #DDE6FF",
"< c #E3EAFD",
"1 c #E3EBFF",
"2 c #E6ECFC",
"3 c #E9EFFD",
"4 c #E9EFFF",
"5 c #EAEFFF",
"6 c #EAF0FF",
"7 c #EEF2FF",
"8 c #F2F5FE",
"9 c #F2F6FE",
"0 c #F3F7FF",
"q c #F5F7FF",
"w c #F6F8F9",
"e c #F7F8FA",
"r c #F6F8FF",
"t c #F9FBFD",
"y c #F9FBFF",
"u c #FCFCFD",
"i c #FCFDFD",
"p c #FCFCFE",
"a c #FCFDFE",
"s c #FDFDFE",
"d c #FDFEFE",
"f c #FEFEFE",
"g c #FEFEFF",
"h c #FFFFFF",
/* pixels */
"                         ",
"                         ",
"                         ",
"           uuu           ",
"          3uuuu          ",
"         -,7yuuu         ",
"         +#-1ryw         ",
"           +-+           ",
"                         ",
"         +@$2w           ",
"          .-6u           ",
"           -6u           ",
"           -3u           ",
"           <0u           ",
"          >0r0>          ",
"         -------         ",
"         +-----+         ",
"                         ",
"                         ",
"                         ",
"                         ",
"                         ",
"                         ",
"                         ",
"                         "
};
