/* XPM */
static char *_06[] = {
/* columns rows colors chars-per-pixel */
"25 25 42 1 ",
"  c None",
". c #C4D1F0",
"X c #C5D3F2",
"o c #C7D4F5",
"O c #CCD7F4",
"+ c #CCD8FA",
"@ c #CCD9FA",
"# c #CEDBFA",
"$ c #CFDBFC",
"% c #D0DCFB",
"& c #D0DCFD",
"* c #D2DEFD",
"= c #D0DCFE",
"- c #D1DDFE",
"; c #D1DDFF",
": c #D1DEFE",
"> c #D3DEFE",
", c #D3DFFE",
"< c #D2DEFF",
"1 c #D4DFFF",
"2 c #D4E0FF",
"3 c #D5E0FF",
"4 c #DAE4FF",
"5 c #E5EBFE",
"6 c #E6EDFF",
"7 c #E7EDFF",
"8 c #E7EEFF",
"9 c #EBF0FF",
"0 c #F3F5FA",
"q c #F4F7FF",
"w c #F7F9FA",
"e c #F7F9FB",
"r c #FAFBFD",
"t c #FAFBFE",
"y c #FBFCFC",
"u c #FCFCFD",
"i c #FDFDFD",
"p c #FCFCFE",
"a c #FCFDFE",
"s c #FDFDFF",
"d c #FEFEFE",
"f c #FFFFFF",
/* pixels */
"                         ",
"                         ",
"                         ",
"            wffy         ",
"           <7ffff        ",
"           <<4qff        ",
"            .<<O         ",
"                         ",
"           $<<<5t        ",
"           $<<<7f        ",
"              +7y        ",
"              +7y        ",
"              +7f        ",
"              +7f        ",
"        <9w   +7f        ",
"        <2%   0ft        ",
"        <<<<<<12<        ",
"         o<<<<<.         ",
"                         ",
"                         ",
"                         ",
"                         ",
"                         ",
"                         ",
"                         "
};
