/* XPM */
static char *_07[] = {
/* columns rows colors chars-per-pixel */
"25 25 57 1 ",
"  c None",
". c #ACBBDA",
"X c #B9C6DE",
"o c #BBC9E7",
"O c #BCCAE8",
"+ c #C5D2F1",
"@ c #C6D3F3",
"# c #C5D3F5",
"$ c #C6D3F5",
"% c #C6D4F5",
"& c #C7D4F5",
"* c #C7D4F6",
"= c #C9D5F5",
"- c #C8D5F7",
"; c #C9D6F6",
": c #CAD6F6",
"> c #CAD7F7",
", c #C8D6F8",
"< c #CAD7F9",
"1 c #CBD8F8",
"2 c #CBD8FB",
"3 c #CDD9F8",
"4 c #CDD9FA",
"5 c #CEDBFB",
"6 c #CDDAFD",
"7 c #CEDBFC",
"8 c #D0DCFD",
"9 c #D1DDFD",
"0 c #D1DDFE",
"q c #D0DDFF",
"w c #D3DFFE",
"e c #D3DFFF",
"r c #DBE0E1",
"t c #DEE4EC",
"y c #D7E2FF",
"u c #DEE6FE",
"i c #DEE7FF",
"p c #DFE7FF",
"a c #DFE8FF",
"s c #EAECED",
"d c #E3EBFF",
"f c #E9EEFE",
"g c #EFF3FE",
"h c #F6F7F8",
"j c #F4F6FB",
"k c #F3F6FD",
"l c #F1F5FF",
"z c #F2F5FE",
"x c #F4F7FE",
"c c #F6F8FF",
"v c #FAFBFE",
"b c #FBFCFE",
"n c #FAFCFF",
"m c #FBFCFF",
"M c #FCFCFF",
"N c #FFFFFE",
"B c white",
/* pixels */
"                         ",
"                         ",
"                         ",
"                         ",
"       6pm               ",
"       2pm               ",
"       ,pm               ",
"       ,am   hNN         ",
"       =am  3xcd         ",
"       &av  fvl=         ",
"       &amstlh           ",
"       #pNNlw            ",
"       #pmNgw            ",
"       #avrXww+          ",
"       &yp  www,         ",
"       =ww. O3ww6        ",
"        =+   o==3        ",
"                         ",
"                         ",
"                         ",
"                         ",
"                         ",
"                         ",
"                         ",
"                         "
};
