/* XPM */
static char *_08[] = {
/* columns rows colors chars-per-pixel */
"25 25 31 1 ",
"  c None",
". c #CAD7F7",
"X c #CEDBFB",
"o c #CDDAFC",
"O c #D0DCFD",
"+ c #D2DEFD",
"@ c #D0DDFE",
"# c #D1DDFE",
"$ c #D2DEFE",
"% c #D2DEFF",
"& c #DBE2F2",
"* c #DCE2F2",
"= c #DBE5FF",
"- c #E2E9FD",
"; c #E3EAFD",
": c #E9EFFF",
"> c #EAEFFF",
", c #EAF0FF",
"< c #F2F5FE",
"1 c #F3F6FE",
"2 c #F3F7FF",
"3 c #F6F8FF",
"4 c #F7F9FF",
"5 c #FBFCFD",
"6 c #FCFDFD",
"7 c #FDFEFD",
"8 c #FFFFFD",
"9 c #FCFCFE",
"0 c #FCFDFE",
"q c #FDFDFE",
"w c #FEFEFF",
/* pixels */
"                         ",
"                         ",
"                         ",
"          -566           ",
"         $=:46           ",
"         .o$:6           ",
"           $:6           ",
"           $,6           ",
"           $,6           ",
"           $,6           ",
"           $:6           ",
"           $:6           ",
"           $:6           ",
"           -26           ",
"          *242&          ",
"         $$$$$$$         ",
"         X$$$$$X         ",
"                         ",
"                         ",
"                         ",
"                         ",
"                         ",
"                         ",
"                         ",
"                         "
};
