/* XPM */
static char *_09[] = {
/* columns rows colors chars-per-pixel */
"25 25 61 1 ",
"  c None",
". c #B2C1DD",
"X c #B3C2DE",
"o c #CDD5DD",
"O c #CFD6DE",
"+ c #C0CDEC",
"@ c #C5D3F4",
"# c #C6D3F4",
"$ c #C7D4F4",
"% c #C7D4F5",
"& c #C8D4F4",
"* c #C8D5F5",
"= c #C8D6F6",
"- c #C9D6F6",
"; c #C9D6F7",
": c #C8D6F9",
"> c #C9D6F9",
", c #CAD7F9",
"< c #CBD8F9",
"1 c #CBD8FA",
"2 c #CCD8F9",
"3 c #CCD9F9",
"4 c #CDD9F9",
"5 c #CCD9FB",
"6 c #CDDAFC",
"7 c #CFDCFD",
"8 c #D0DCFD",
"9 c #D3DFFF",
"0 c #DEE5F5",
"q c #D4E0FF",
"w c #D5E0FF",
"e c #DCE5FD",
"r c #DCE5FF",
"t c #DFE8FF",
"y c #E3E8F4",
"u c #E2E9F9",
"i c #E3EBFF",
"p c #E8EEFF",
"a c #E9EFFF",
"s c #EAF0FF",
"d c #EBF0FF",
"f c #ECF1FF",
"g c #F2F3F4",
"h c #F3F4F4",
"j c #F7F8F9",
"k c #F7F9FF",
"l c #F9FAF9",
"z c #FAFAF9",
"x c #FAFAFA",
"c c #FBFBFA",
"v c #FBFCFB",
"b c #FCFCFB",
"n c #F8FAFF",
"m c #FAFBFF",
"M c #FBFCFF",
"N c #FCFCFC",
"B c #FEFEFD",
"V c #FDFEFE",
"C c #FEFEFE",
"Z c #FEFFFF",
"A c #FFFFFF",
/* pixels */
"                         ",
"                         ",
"                         ",
"                         ",
"      8  VVV  VVV        ",
"      7ebVVVvjVVVV       ",
"      6pVVnkMVVnkMV      ",
"      5pVnewdVnewfb      ",
"      5plO.:dlO.:pl      ",
"      <dh  #iy  #dl      ",
"      :dh  $w*  #dl      ",
"      :dh  *w$  #dl      ",
"      <t0   +   $tu      ",
"      58*       *85      ",
"      58*       *85      ",
"                         ",
"                         ",
"                         ",
"                         ",
"                         ",
"                         ",
"                         ",
"                         ",
"                         ",
"                         "
};
