/* XPM */
static char *_10[] = {
/* columns rows colors chars-per-pixel */
"25 25 45 1 ",
"  c None",
". c #C6D4F5",
"X c #C7D4F5",
"o c #C8D5F6",
"O c #C9D6F6",
"+ c #CAD7F7",
"@ c #CAD8FA",
"# c #CDDAFC",
"$ c #D0DCFD",
"% c #D1DDFD",
"& c #D1DDFE",
"* c #D2DEFE",
"= c #D2DEFF",
"- c #D3DFFF",
"; c #DEE5F5",
": c #D5E0FF",
"> c #DCE5FF",
", c #E3EAFB",
"< c #E1E9FF",
"1 c #E3EBFF",
"2 c #E4EBFF",
"3 c #E6ECFD",
"4 c #E4ECFF",
"5 c #E6ECFF",
"6 c #EBF0FF",
"7 c #EBF1FF",
"8 c #EEF2FF",
"9 c #EEF3FF",
"0 c #EFF3FF",
"q c #F2F4F4",
"w c #F4F5F5",
"e c #F5F7F8",
"r c #F3F6FC",
"t c #F0F4FF",
"y c #F6F8FC",
"u c #F6F9FF",
"i c #F9FAFA",
"p c #FAFBFB",
"a c #FCFCFC",
"s c #FCFDFD",
"d c #FDFDFD",
"f c #FEFEFD",
"g c #FDFDFE",
"h c #FFFFFE",
"j c #FFFFFF",
/* pixels */
"                         ",
"                         ",
"                         ",
"                         ",
"       &8  phhh          ",
"       &8hehu66r         ",
"       &8hhh,#&6u        ",
"       &8hh   &:3h       ",
"       &8p     @<h       ",
"       &0q     .2h       ",
"       &rq     .2h       ",
"       &rw     .3h       ",
"       &<;     o>3       ",
"       &&o     o&&       ",
"       &&o     o&&       ",
"                         ",
"                         ",
"                         ",
"                         ",
"                         ",
"                         ",
"                         ",
"                         ",
"                         ",
"                         "
};
