/* XPM */
static char *_11[] = {
/* columns rows colors chars-per-pixel */
"25 25 56 1 ",
"  c None",
". c #BAC8E7",
"X c #BDCCED",
"o c #BFCDED",
"O c #C0CDED",
"+ c #C5D2F1",
"@ c #CCD7F1",
"# c #CAD6F6",
"$ c #C9D6FA",
"% c #CDDAFC",
"& c #CEDBFC",
"* c #CFDBFC",
"= c #D3DDF4",
"- c #D0DCFD",
"; c #D1DDFD",
": c #D0DDFE",
"> c #D1DDFE",
", c #D1DEFF",
"< c #D2DEFE",
"1 c #D2DEFF",
"2 c #D3DFFF",
"3 c #D4E0FF",
"4 c #D5E0FF",
"5 c #DBE4FE",
"6 c #DEE6FC",
"7 c #E4E9F4",
"8 c #E3EAFB",
"9 c #E2EAFF",
"0 c #E6ECFF",
"q c #E6EDFF",
"w c #E8EEFF",
"e c #EAF0FF",
"r c #EBF0FF",
"t c #EBF1FF",
"y c #EEF3FF",
"u c #EFF3FF",
"i c #F2F3F6",
"p c #F4F6F6",
"a c #F3F6FC",
"s c #F0F4FF",
"d c #F3F6FF",
"f c #F6F8FC",
"g c #F7F9FC",
"h c #F6F8FF",
"j c #FBFBFA",
"k c #F9FAFD",
"l c #FBFCFC",
"z c #FCFCFC",
"x c #FCFDFD",
"c c #FDFDFE",
"v c #FDFEFE",
"b c #FEFEFE",
"n c #FFFEFE",
"m c #FFFFFE",
"M c #FEFFFF",
"N c #FFFFFF",
/* pixels */
"                         ",
"                         ",
"                         ",
"                         ",
"          bbbbb          ",
"         lbbhrra         ",
"        hbbb8%;rh        ",
"       ;ubb   ;4qb       ",
"       ;aj     $9b       ",
"       ;q7     =ub       ",
"       ;4#     ibk       ",
"       ;;;#   pba5       ",
"       O%;;+.@wr6o       ",
"        O%;;;;;%o        ",
"          ;;;;;          ",
"                         ",
"                         ",
"                         ",
"                         ",
"                         ",
"                         ",
"                         ",
"                         ",
"                         ",
"                         "
};
