/* XPM */
static char *_12[] = {
/* columns rows colors chars-per-pixel */
"25 25 59 1 ",
"  c None",
". c #BFCCEB",
"X c #CCD6E7",
"o c #C7D1E8",
"O c #C2D0EF",
"+ c #C7D4F5",
"@ c #C7D5F5",
"# c #C8D5F4",
"$ c #C9D6F6",
"% c #C8D5F8",
"& c #CBD8F8",
"* c #CFDBFD",
"= c #D4DDF3",
"- c #D0DCFC",
"; c #D0DCFD",
": c #D1DDFD",
"> c #D1DDFE",
", c #D1DDFF",
"< c #D2DEFE",
"1 c #D2DEFF",
"2 c #D3DFFF",
"3 c #DDE2E5",
"4 c #D9E3FE",
"5 c #DCE6FF",
"6 c #E2E5E7",
"7 c #E1E7F4",
"8 c #E3EBFF",
"9 c #E5EBFC",
"0 c #E4EBFD",
"q c #E5ECFF",
"w c #E8EEFE",
"e c #EDF2FF",
"r c #EFF3FE",
"t c #EEF2FF",
"y c #EEF3FF",
"u c #EFF3FF",
"i c #EFF4FF",
"p c #F1F2F3",
"a c #F2F3F3",
"s c #F6F7F7",
"d c #F2F5FB",
"f c #F4F7FB",
"g c #F0F4FF",
"h c #F3F6FF",
"j c #F3F7FF",
"k c #F7F9FC",
"l c #F7F9FF",
"z c #FAFBFA",
"x c #FDFDFB",
"c c #FAFBFF",
"v c #FBFCFC",
"b c #FDFDFC",
"n c #FDFDFD",
"m c #FFFFFD",
"M c #FCFDFE",
"N c #FDFDFE",
"B c #FDFEFF",
"V c #FEFEFE",
"C c #FFFFFF",
/* pixels */
"                         ",
"                         ",
"                         ",
"                         ",
"       :en nchhd         ",
"       :ennn9*:el        ",
"       :env   ::qn       ",
"       :is     %8n       ",
"       :hp     7ln       ",
"       :iz3   6xcw       ",
"       :ennX ohh9@       ",
"       :enf4::::O        ",
"       :hp $:::          ",
"       :hp               ",
"       :5=               ",
"       ::@               ",
"       $&.               ",
"                         ",
"                         ",
"                         ",
"                         ",
"                         ",
"                         ",
"                         ",
"                         "
};
