/* XPM */
static char *_13[] = {
/* columns rows colors chars-per-pixel */
"25 25 60 1 ",
"  c None",
". c #BBC8E7",
"X c #BBC8E8",
"o c #BFCCEB",
"O c #C7D2E7",
"+ c #C2D0EF",
"@ c #C4D1F3",
"# c #C4D2F3",
"$ c #C6D3F3",
"% c #C7D5F7",
"& c #C8D5F4",
"* c #C8D5F5",
"= c #C9D6F5",
"- c #C9D6F6",
"; c #CBD8F8",
": c #CCD9FB",
"> c #CDDAFB",
", c #CFDBFD",
"< c #CFDCFC",
"1 c #CFDCFE",
"2 c #D6DFF4",
"3 c #D0DCFD",
"4 c #D1DDFE",
"5 c #D1DEFE",
"6 c #D2DEFE",
"7 c #D2DEFF",
"8 c #D3DFFF",
"9 c #DEE3E5",
"0 c #D9E3FF",
"q c #DDE6FD",
"w c #DCE5FF",
"e c #DDE6FF",
"r c #E1E7F3",
"t c #E2EAFF",
"y c #E3EBFF",
"u c #E5EBFC",
"i c #E4EBFF",
"p c #E4ECFF",
"a c #E6EDFF",
"s c #E9EEFA",
"d c #ECF1FF",
"f c #EEF3FE",
"g c #EEF3FF",
"h c #EFF3FF",
"j c #EFF4FF",
"k c #F3F7FF",
"l c #F7F9FC",
"z c #F8F9F8",
"x c #F9FAFB",
"c c #F8FAFF",
"v c #FAFBFF",
"b c #FBFCFD",
"n c #FCFCFC",
"m c #FCFCFD",
"M c #FCFDFD",
"N c #FDFDFD",
"B c #FDFDFE",
"V c #FDFEFF",
"C c #FEFEFE",
"Z c #FFFFFF",
/* pixels */
"                         ",
"                         ",
"                         ",
"                         ",
"         xnnvf lnn       ",
"        lnnnu,6fnn       ",
"       6fnn   <6pn       ",
"       6kx     %tn       ",
"       6e2     rvn       ",
"       66:.   9skn       ",
"       -686X Ofetb       ",
"        @66666:,un       ",
"          666- #pb       ",
"               #pn       ",
"               $0e       ",
"               -6<       ",
"               o;-       ",
"                         ",
"                         ",
"                         ",
"                         ",
"                         ",
"                         ",
"                         ",
"                         "
};
