/* XPM */
static char *_14[] = {
/* columns rows colors chars-per-pixel */
"25 25 55 1 ",
"  c None",
". c #BDCBEA",
"X c #C2CFEE",
"o c #C4D1F1",
"O c #C5D1F1",
"+ c #C5D3F6",
"@ c #C7D4F6",
"# c #C7D5F6",
"$ c #CCD7F2",
"% c #CAD6F5",
"& c #C8D5F6",
"* c #C8D5F7",
"= c #C9D6F9",
"- c #CAD7F8",
"; c #CEDAFB",
": c #CEDBFE",
"> c #CFDCFE",
", c #D1DDFB",
"< c #D0DCFD",
"1 c #D1DDFE",
"2 c #D1DEFE",
"3 c #D1DEFF",
"4 c #D2DEFF",
"5 c #D3DFFF",
"6 c #DAE4FF",
"7 c #E5E8EB",
"8 c #EBEEF0",
"9 c #E9EDF5",
"0 c #E0E8FB",
"q c #E1E9FE",
"w c #E1E9FF",
"e c #E2EAFF",
"r c #E4EBFF",
"t c #E5ECFF",
"y c #E6EDFE",
"u c #EBF0FF",
"i c #EDF2FD",
"p c #EDF2FF",
"a c #EEF2FE",
"s c #EEF3FF",
"d c #F0F3FA",
"f c #F5F6F8",
"g c #F9FAFB",
"h c #FAFBFD",
"j c #FBFCFF",
"k c #FCFDFD",
"l c #FEFEFD",
"z c #FCFCFE",
"x c #FCFDFE",
"c c #FCFDFF",
"v c #FDFEFE",
"b c #FEFEFE",
"n c #FFFFFE",
"m c #FEFEFF",
"M c white",
/* pixels */
"                         ",
"                         ",
"                         ",
"                         ",
"       4p  gvvvv         ",
"       4epfvvvpup        ",
"       ;>evvvd,:rv       ",
"        =evv8  *rv       ",
"        @ev7   *6e       ",
"        +eh    .=@       ",
"        *th              ",
"        9jv              ",
"       X0ut$             ",
"       44444o            ",
"       44444o            ",
"                         ",
"                         ",
"                         ",
"                         ",
"                         ",
"                         ",
"                         ",
"                         ",
"                         ",
"                         "
};
