/* XPM */
static char *_15[] = {
/* columns rows colors chars-per-pixel */
"25 25 59 1 ",
"  c None",
". c #B2C1E2",
"X c #BCCBEB",
"o c #C4D0EB",
"O c #C7D2EA",
"+ c #C4D2F3",
"@ c #C6D4F3",
"# c #C7D4F4",
"$ c #C8D5F2",
"% c #C9D6F6",
"& c #CED9F4",
"* c #CCD8F6",
"= c #CBD8F8",
"- c #CBD8F9",
"; c #CCD8F9",
": c #CDD9FA",
"> c #CFDBFB",
", c #CFDBFC",
"< c #D2DDFD",
"1 c #D0DCFE",
"2 c #D1DDFE",
"3 c #D3DEFE",
"4 c #D2DEFF",
"5 c #D3DFFF",
"6 c #DAE2F3",
"7 c #D4E0FE",
"8 c #D4E0FF",
"9 c #D7E1FE",
"0 c #D8E2FE",
"q c #DDE6FF",
"w c #DEE7FE",
"e c #DFE8FF",
"r c #E2E9FA",
"t c #E3EAFB",
"y c #E7EDFD",
"u c #E7EEFF",
"i c #E9EFFF",
"p c #EDF1FA",
"a c #EAF0FF",
"s c #EBF0FF",
"d c #EBF1FF",
"f c #EDF1FE",
"g c #ECF1FF",
"h c #EDF2FF",
"j c #EEF2FE",
"k c #F1F2F1",
"l c #F3F5FA",
"z c #F4F6F8",
"x c #F2F5FE",
"c c #F5F8FF",
"v c #F6F8FF",
"b c #F8F9F9",
"n c #F9FAFB",
"m c #FBFBFB",
"M c #F9FBFF",
"N c #FDFEFE",
"B c #FEFEFE",
"V c #FFFFFE",
"C c white",
/* pixels */
"                         ",
"                         ",
"                         ",
"                         ",
"          BBBBB          ",
"         xBBvssj         ",
"        3jBnr>9uv        ",
"        3jn   lj0        ",
"        3qq%6k           ",
"        #+*ejjO          ",
"           zu39*         ",
"        =>$   pMn        ",
"        39,X.Orsi        ",
"        >3333333=        ",
"         #33333#         ",
"                         ",
"                         ",
"                         ",
"                         ",
"                         ",
"                         ",
"                         ",
"                         ",
"                         ",
"                         "
};
