/* XPM */
static char *_16[] = {
/* columns rows colors chars-per-pixel */
"25 25 60 1 ",
"  c None",
". c #BFCEEE",
"X c #C1CFEF",
"o c #D6DEEC",
"O c #C3D1F1",
"+ c #C2D0F3",
"@ c #C4D2F3",
"# c #C6D3F3",
"$ c #C4D2F4",
"% c #C5D3F4",
"& c #C7D4F4",
"* c #C8D5F5",
"= c #C9D5F5",
"- c #C9D6F5",
"; c #CAD7F7",
": c #C8D5F8",
"> c #C9D6F8",
", c #CBD7F8",
"< c #CAD7FA",
"1 c #CDDAFB",
"2 c #CDDAFD",
"3 c #D3DDF9",
"4 c #D2DDFB",
"5 c #D1DDFF",
"6 c #D2DEFF",
"7 c #D3DFFF",
"8 c #D4DFFF",
"9 c #D5E1FF",
"0 c #D7E2FE",
"q c #D7E2FF",
"w c #DCE4FB",
"e c #DCE5FD",
"r c #DFE7FC",
"t c #E0E8FF",
"y c #E0E9FF",
"u c #E1E9FF",
"i c #E1EAFF",
"p c #E2EAFF",
"a c #E4EBFF",
"s c #E5ECFF",
"d c #EBF0FF",
"f c #F2F4F4",
"g c #F4F6F7",
"h c #F4F6FA",
"j c #F6F9FF",
"k c #F9FAFA",
"l c #FAFBFA",
"z c #F9FAFD",
"x c #FAFBFD",
"c c #F8FAFE",
"v c #FBFCFD",
"b c #FBFCFE",
"n c #FCFCFC",
"m c #FCFDFD",
"M c #FDFDFD",
"N c #FCFDFF",
"B c #FDFEFF",
"V c #FEFEFE",
"C c #FFFFFE",
"Z c #FFFFFF",
/* pixels */
"                         ",
"                         ",
"                         ",
"                         ",
"          2tN            ",
"          4sN            ",
"          hNN            ",
"       >ezNNNNNNNk       ",
"       1qttdNNjate       ",
"        OX>tNfoXO        ",
"          @tv            ",
"          $tv            ",
"          $tz            ",
"          -9q  kNg       ",
"          -55>4ttw       ",
"           -5855>        ",
"            @--&         ",
"                         ",
"                         ",
"                         ",
"                         ",
"                         ",
"                         ",
"                         ",
"                         "
};
