/* XPM */
static char *_17[] = {
/* columns rows colors chars-per-pixel */
"25 25 54 1 ",
"  c None",
". c #BFCCED",
"X c #C0CDEC",
"o c #C1CEED",
"O c #C7D4F4",
"+ c #C8D5F5",
"@ c #C9D6F9",
"# c #CBD8F8",
"$ c #CBD9FA",
"% c #CCD8F9",
"& c #CDD9F9",
"* c #CCD9FA",
"= c #CCDAFC",
"- c #CDDAFC",
"; c #CDDBFD",
": c #CFDBFC",
"> c #CFDCFC",
", c #CFDCFD",
"< c #D0DBF5",
"1 c #D0DCFD",
"2 c #D1DDFD",
"3 c #D1DDFE",
"4 c #D2DEFE",
"5 c #D2DEFF",
"6 c #D3DEFF",
"7 c #D3DFFF",
"8 c #D4DFFF",
"9 c #D8E2F8",
"0 c #D9E3FF",
"q c #E3EAFF",
"w c #E3EBFF",
"e c #E4EBFE",
"r c #E6ECFD",
"t c #E6EDFF",
"y c #E7EEFF",
"u c #E9EEF8",
"i c #EAEFFF",
"p c #EEF2FF",
"a c #EEF3FF",
"s c #EFF3FF",
"d c #F1F4F9",
"f c #F0F4FF",
"g c #F6F8F9",
"h c #FBFBF9",
"j c #FBFCFA",
"k c #FCFDFC",
"l c #FCFDFD",
"z c #FDFDFD",
"x c #FEFEFC",
"c c #FEFEFD",
"v c #FCFDFE",
"b c #FDFDFE",
"n c #FDFEFF",
"m c #FEFEFF",
/* pixels */
"                         ",
"                         ",
"                         ",
"                         ",
"       4pc     -qc       ",
"       4pc     -qc       ",
"       4pc     -qc       ",
"       4pj     $qc       ",
"       4fh     @qc       ",
"       4tu     9pc       ",
"       48&     dcc       ",
"       444&   geic       ",
"       o-44+.<t00t       ",
"        o>4444&44>       ",
"          444$ O4>       ",
"                         ",
"                         ",
"                         ",
"                         ",
"                         ",
"                         ",
"                         ",
"                         ",
"                         ",
"                         "
};
