/* XPM */
static char *_18[] = {
/* columns rows colors chars-per-pixel */
"25 25 48 1 ",
"  c None",
". c #C0CEED",
"X c #C7D4F3",
"o c #C9D5F7",
"O c #CBD8F9",
"+ c #CBD8FB",
"@ c #CCD9F9",
"# c #CDDAFB",
"$ c #CBD9FC",
"% c #D1DDFD",
"& c #D0DDFE",
"* c #D1DDFE",
"= c #D2DEFE",
"- c #D2DEFF",
"; c #D2DFFF",
": c #D3DFFF",
"> c #D4E0FF",
", c #DDE6FF",
"< c #DEE7FF",
"1 c #E7EBED",
"2 c #E2E9F9",
"3 c #E0E8FD",
"4 c #E2E9FC",
"5 c #E2E9FF",
"6 c #E2EAFF",
"7 c #E4EBFF",
"8 c #E8EEFF",
"9 c #E9EFFF",
"0 c #EFF1F3",
"q c #EAF0FF",
"w c #EDF2FD",
"e c #EEF2FF",
"r c #EFF4FF",
"t c #F6F6F7",
"y c #F0F4FF",
"u c #F1F5FF",
"i c #F6F8FD",
"p c #F7F9FF",
"a c #FCFCFB",
"s c #F8FAFD",
"d c #FBFCFD",
"f c #FDFDFC",
"g c #FFFFFC",
"h c #FDFDFE",
"j c #FEFEFE",
"k c #FFFFFE",
"l c #FEFEFF",
"z c white",
/* pixels */
"                         ",
"                         ",
"                         ",
"                         ",
"       *eg     $4g       ",
"       *ug     4ug       ",
"       *9i     sgg       ",
"       *>7d   *ugg       ",
"        +4g   *ua        ",
"        o,e   4it        ",
"        X**   dg0        ",
"         .*#2ag1         ",
"          **,q9          ",
"          #***+          ",
"           #*#           ",
"                         ",
"                         ",
"                         ",
"                         ",
"                         ",
"                         ",
"                         ",
"                         ",
"                         ",
"                         "
};
