/* XPM */
static char *_19[] = {
/* columns rows colors chars-per-pixel */
"25 25 66 1 ",
"  c None",
". c #B5C4E4",
"X c #BECDED",
"o c #C1CFEF",
"O c #C2CFEF",
"+ c #C2D0EF",
"@ c #D4DCED",
"# c #C4D2F1",
"$ c #C4D2F4",
"% c #CBD7F1",
"& c #CBD7F7",
"* c #CBD8F6",
"= c #C8D5F8",
"- c #CBD7F8",
"; c #CBD8F8",
": c #CBD8F9",
"> c #CBD8FA",
", c #CCD9FB",
"< c #CDD9FB",
"1 c #CDDAFB",
"2 c #CEDAFA",
"3 c #CEDAFB",
"4 c #CDDAFC",
"5 c #CEDAFC",
"6 c #CFDBFC",
"7 c #CEDBFD",
"8 c #CFDBFD",
"9 c #D1DDFF",
"0 c #D1DEFF",
"q c #D2DEFF",
"w c #D3DFFF",
"e c #D7E0F7",
"r c #D6E1FF",
"t c #DBE4FE",
"y c #DAE4FF",
"u c #E7EBF7",
"i c #E4EAF8",
"p c #E6ECFB",
"a c #E2EAFF",
"s c #E3EBFF",
"d c #E7EDFF",
"f c #E8EEFF",
"g c #E9EFFF",
"h c #EAF0FF",
"j c #F2F4F4",
"k c #F2F4F6",
"l c #F5F6F7",
"z c #F2F5FF",
"x c #F4F7FE",
"c c #F8F9F8",
"v c #F9FAF8",
"b c #F9FAF9",
"n c #F8F9FA",
"m c #FAFAFA",
"M c #FAFBFB",
"N c #FBFBFB",
"B c #FBFCFB",
"V c #FCFCFB",
"C c #FBFBFC",
"Z c #F9FBFF",
"A c #FAFCFF",
"S c #FDFDFC",
"D c #FEFEFD",
"F c #FFFFFD",
"G c #FEFEFF",
"H c #FFFFFF",
/* pixels */
"                         ",
"                         ",
"                         ",
"                         ",
"      5gS  5gS  5gS      ",
"      5gS  5gS  5gS      ",
"      5gB  1gB  1gS      ",
"      1gb  :hb  :gV      ",
"      1hb  iCb  -gb      ",
"      1au  VAp  ezb      ",
"      &0* CSd05 jSl      ",
"       $tbSdr001xj       ",
"       Xthg%.#00a@       ",
"       +00-   100O       ",
"       O01     10O       ",
"                         ",
"                         ",
"                         ",
"                         ",
"                         ",
"                         ",
"                         ",
"                         ",
"                         ",
"                         "
};
