/* XPM */
static char *_20[] = {
/* columns rows colors chars-per-pixel */
"25 25 53 1 ",
"  c None",
". c #AEBEDD",
"X c #BAC8E5",
"o c #D1D7DD",
"O c #C2CFEE",
"+ c #C3D0EF",
"@ c #C4D0EF",
"# c #C3D1F3",
"$ c #C8D5F5",
"% c #C8D5F6",
"& c #C9D6F6",
"* c #CCD9F9",
"= c #CFDBFC",
"- c #CFDBFD",
"; c #D0DCFD",
": c #D0DDFD",
"> c #D1DDFD",
", c #D0DCFE",
"< c #D1DDFE",
"1 c #D2DEFE",
"2 c #D2DEFF",
"3 c #D3DEFF",
"4 c #D3DFFF",
"5 c #DCE1E5",
"6 c #D4E0FF",
"7 c #DAE4FF",
"8 c #DFE7FF",
"9 c #EBEDEE",
"0 c #E1E8FC",
"q c #E2E9FF",
"w c #E3EAFE",
"e c #E5ECFD",
"r c #E6ECFC",
"t c #EBF1FF",
"y c #EFF3FE",
"u c #EEF3FF",
"i c #F0F2F3",
"p c #F0F4FF",
"a c #F4F7FE",
"s c #F7F8F9",
"d c #F5F8FE",
"f c #F5F8FF",
"g c #FAFAFB",
"h c #FEFDFB",
"j c #FAFBFC",
"k c #F9FBFF",
"l c #FAFBFF",
"z c #FDFDFD",
"x c #FDFDFE",
"c c #FEFEFE",
"v c #FFFFFE",
"b c #FEFEFF",
"n c #FFFFFF",
/* pixels */
"                         ",
"                         ",
"                         ",
"                         ",
"       2uc     gcc       ",
"       2qp     ccc       ",
"       =28d   cccl       ",
"        *27accccs        ",
"         #2dccci         ",
"          qllpu          ",
"         5ccr22X         ",
"        9cco .=2O        ",
"       @qtr   24=+       ",
"       222&   &222       ",
"       22&     &22       ",
"                         ",
"                         ",
"                         ",
"                         ",
"                         ",
"                         ",
"                         ",
"                         ",
"                         ",
"                         "
};
