/* XPM */
static char *_21[] = {
/* columns rows colors chars-per-pixel */
"25 25 64 1 ",
"  c None",
". c #B0BFDD",
"X c #B2C0DE",
"o c #B4C1DF",
"O c #B8C6E4",
"+ c #D0D6DA",
"@ c #C3CEE2",
"# c #C1CEED",
"$ c #C2CFEF",
"% c #C3D1F1",
"& c #C6D3F3",
"* c #C8D5F6",
"= c #CAD7F7",
"- c #C8D5F8",
"; c #CBD8FB",
": c #CCD9F9",
"> c #CDDAFA",
", c #CDDBFD",
"< c #CFDBFC",
"1 c #D7DFF1",
"2 c #D4DEFA",
"3 c #D0DCFC",
"4 c #D0DCFD",
"5 c #D0DDFD",
"6 c #D1DDFD",
"7 c #D1DDFE",
"8 c #D0DDFF",
"9 c #D2DEFE",
"0 c #D2DEFF",
"q c #D3DFFF",
"w c #D4DFFF",
"e c #D4E0FF",
"r c #D8E2FF",
"t c #E2E9FE",
"y c #E3EAFF",
"u c #E3EBFF",
"i c #E6EDFD",
"p c #E8EEFF",
"a c #EAEFFF",
"s c #ECF1FD",
"d c #ECF1FF",
"f c #EDF2FE",
"g c #EFF3FF",
"h c #EFF4FF",
"j c #F2F5FA",
"k c #F2F5FE",
"l c #F3F7FF",
"z c #F7F8F9",
"x c #F6F9FF",
"c c #F9FAF8",
"v c #FBFBFA",
"b c #FCFCFB",
"n c #F9FAFC",
"m c #FBFCFD",
"M c #FCFCFD",
"N c #FCFDFD",
"B c #FDFDFD",
"V c #FEFEFD",
"C c #FDFDFE",
"Z c #FCFDFF",
"A c #FDFDFF",
"S c #FEFEFF",
"D c #FEFFFF",
"F c white",
/* pixels */
"                         ",
"                         ",
"                         ",
"       6f       uV       ",
"       6fV     ,uV       ",
"       6fb     ;uV       ",
"       6hv     2pV       ",
"       6fj     zVV       ",
"       6we6   nVVV       ",
"        =666,6rrpV       ",
"         #666666um       ",
"           OX.X-um       ",
"       $%      1kV       ",
"       6e>    +vVf       ",
"       >666O @kxi=       ",
"        %6666666#        ",
"          66666          ",
"                         ",
"                         ",
"                         ",
"                         ",
"                         ",
"                         ",
"                         ",
"                         "
};
