/* XPM */
static char *_22[] = {
/* columns rows colors chars-per-pixel */
"25 25 58 1 ",
"  c None",
". c #B4C4E3",
"X c #B9C8E6",
"o c #BDCBEA",
"O c #D1D8DC",
"+ c #C0CDEC",
"@ c #C3D0EF",
"# c #C6D2ED",
"$ c #DADFE4",
"% c #C3D0F0",
"& c #C9D6F5",
"* c #CCD8FA",
"= c #CCD9FA",
"- c #CDDAFB",
"; c #CEDAFA",
": c #CEDAFB",
"> c #CFDBFB",
", c #CFDBFC",
"< c #D0DCFD",
"1 c #D1DDFD",
"2 c #D1DDFE",
"3 c #D1DEFE",
"4 c #D1DEFF",
"5 c #D2DEFF",
"6 c #D3DFFF",
"7 c #D6E1FE",
"8 c #DAE4FF",
"9 c #E4E7EA",
"0 c #E0E8FF",
"q c #E2EAFF",
"w c #E6ECFD",
"e c #E6ECFE",
"r c #EFF1F1",
"t c #EEF1F4",
"y c #EAF0FF",
"u c #EBF0FF",
"i c #EBF1FF",
"p c #ECF1FF",
"a c #EDF2FE",
"s c #F1F2F2",
"d c #F6F7F6",
"f c #F3F4F8",
"g c #F0F4FE",
"h c #F1F5FE",
"j c #F0F4FF",
"k c #F3F6FF",
"l c #F7F9FD",
"z c #F6F8FE",
"x c #F8FAFF",
"c c #FAFCFF",
"v c #FCFCFD",
"b c #FDFDFD",
"n c #FEFEFD",
"m c #FEFEFE",
"M c #FFFEFE",
"N c #FFFFFE",
"B c #FEFEFF",
"V c #FFFFFF",
/* pixels */
"                         ",
"                         ",
"                         ",
"                         ",
"       5pnnnnnnnnn       ",
"       5qpiiiiixnn       ",
"       >,>>>*>8knl       ",
"              lnk7       ",
"           9sdnr         ",
"          $nckt          ",
"        fnnnw&           ",
"       >knnO             ",
"       5qiw#.Xo+@%       ",
"       55555555555       ",
"       55555555555       ",
"                         ",
"                         ",
"                         ",
"                         ",
"                         ",
"                         ",
"                         ",
"                         ",
"                         ",
"                         "
};
