/* XPM */
static char *_23[] = {
/* columns rows colors chars-per-pixel */
"25 25 35 1 ",
"  c None",
". c #C2D0EF",
"X c #C7D4F6",
"o c #CAD6F1",
"O c #C8D5F4",
"+ c #CAD7F7",
"@ c #CEDBFB",
"# c #CFDBFC",
"$ c #D0DCFD",
"% c #D1DDFD",
"& c #D2DDFC",
"* c #D2DEFD",
"= c #D1DDFE",
"- c #D1DEFF",
"; c #D2DEFE",
": c #D2DEFF",
"> c #D3DFFF",
", c #D4E0FF",
"< c #DBE4FF",
"1 c #E9EFFF",
"2 c #EAEFFF",
"3 c #EAF0FF",
"4 c #EBF0FF",
"5 c #F7F8F9",
"6 c #F7F8FA",
"7 c #F6F9FF",
"8 c #FAFAFB",
"9 c #FAFBFB",
"0 c #F9FAFC",
"q c #F9FAFD",
"w c #FBFCFC",
"e c #FCFCFC",
"r c #FCFCFD",
"t c #FEFEFE",
"y c #FFFFFF",
/* pixels */
"                         ",
"                         ",
"                         ",
"            6yyyy        ",
"           *1yy6         ",
"           *1y           ",
"           *1w           ",
"           *4w           ",
"           qyw           ",
"         X<7y8           ",
"        #**,o            ",
"         O**18           ",
"           #4y           ",
"           #4y           ",
"           #1q           ",
"           #,*           ",
"           @***O         ",
"            .****        ",
"                         ",
"                         ",
"                         ",
"                         ",
"                         ",
"                         ",
"                         "
};
