/* XPM */
static char *_24[] = {
/* columns rows colors chars-per-pixel */
"25 25 33 1 ",
"  c None",
". c #C4D2F3",
"X c #C6D3F3",
"o c #C6D4F3",
"O c #C5D2F4",
"+ c #C6D3F5",
"@ c #C9D6F3",
"# c #C8D6F8",
"$ c #CAD7FA",
"% c #CCDAFC",
"& c #D1DDFD",
"* c #D1DEFE",
"= c #D2DEFF",
"- c #D4DFFE",
"; c #D4E0FE",
": c #D5E0FE",
"> c #D4E0FF",
", c #D5E0FF",
"< c #E8EFFF",
"1 c #E9EFFF",
"2 c #EAEFFF",
"3 c #F2F4F3",
"4 c #F0F2F4",
"5 c #F3F4F4",
"6 c #F4F4F4",
"7 c #F5F6F5",
"8 c #F8F9F8",
"9 c #FBFBFA",
"0 c #F9FAFE",
"q c #FBFCFE",
"w c #FBFCFF",
"e c #FEFEFC",
"r c #FCFCFF",
/* pixels */
"                         ",
"                         ",
"                         ",
"          %,<ee          ",
"          $,<w9          ",
"          $,<w9          ",
"          O,<w7          ",
"          O,<w5          ",
"          .,<w3          ",
"          O,<w5          ",
"          O,2w5          ",
"          O,2w5          ",
"          O,2w5          ",
"          O,2w5          ",
"          O,<w5          ",
"          O,<04          ",
"          o&,-@          ",
"          .&&&.          ",
"                         ",
"                         ",
"                         ",
"                         ",
"                         ",
"                         ",
"                         "
};
