/* XPM */
static char *_25[] = {
/* columns rows colors chars-per-pixel */
"25 25 47 1 ",
"  c None",
". c #C2D0EF",
"X c #CAD7F7",
"o c #CCD9F9",
"O c #CEDAFB",
"+ c #CEDBFB",
"@ c #CFDBFC",
"# c #CFDCFC",
"$ c #D1DDFB",
"% c #D0DCFC",
"& c #D0DCFD",
"* c #D1DDFD",
"= c #D2DDFC",
"- c #D2DEFD",
"; c #D1DDFE",
": c #D0DDFF",
"> c #D2DEFE",
", c #D2DEFF",
"< c #D4DFFF",
"1 c #D4E0FF",
"2 c #D5E0FF",
"3 c #DBE4FF",
"4 c #DBE5FF",
"5 c #E6EAF1",
"6 c #E8EEFF",
"7 c #E8EFFF",
"8 c #E9EFFF",
"9 c #EAEFFF",
"0 c #EFF1F4",
"q c #EAF0FF",
"w c #EBF1FF",
"e c #ECF1FF",
"r c #F4F6F6",
"t c #F6F8FC",
"y c #F5F8FF",
"u c #F6F8FF",
"i c #FAFBFA",
"p c #F9FAFC",
"a c #F9FAFD",
"s c #FAFBFC",
"d c #FBFBFC",
"f c #FCFDFD",
"g c #FDFDFD",
"h c #FDFEFE",
"j c #FDFEFF",
"k c #FFFFFE",
"l c #FFFFFF",
/* pixels */
"                         ",
"                         ",
"                         ",
"        ;;4ui            ",
"         o;1qg           ",
"           ;8g           ",
"           #8g           ",
"           @8a           ",
"           #1;           ",
"           o;4ur         ",
"            5gge;        ",
"           o8gg0         ",
"           ;qa           ",
"           ;qa           ",
"           ;qa           ",
"           uga           ",
"         X;<1$           ",
"        ;;;;.            ",
"                         ",
"                         ",
"                         ",
"                         ",
"                         ",
"                         ",
"                         "
};
