/* XPM */
static char *_26[] = {
/* columns rows colors chars-per-pixel */
"25 25 41 1 ",
"  c None",
". c #BCCAEB",
"X c #BECCEB",
"o c #BDCCEC",
"O c #C0CDEC",
"+ c #C3D0F1",
"@ c #C4D1F2",
"# c #C5D3F4",
"$ c #CAD6F3",
"% c #CAD7FA",
"& c #CBD9FB",
"* c #CFDCFC",
"= c #CFDCFD",
"- c #D3DFFF",
"; c #D5E0FE",
": c #D9E3FF",
"> c #DAE4FF",
", c #DBE4FF",
"< c #E6EBF5",
"1 c #E0E8FC",
"2 c #E5ECFF",
"3 c #EBF0FF",
"4 c #EEF3FF",
"5 c #F1F4FA",
"6 c #F6F7F9",
"7 c #F2F5FC",
"8 c #F4F7FF",
"9 c #F6F8FF",
"0 c #F9FAFA",
"q c #F8FAFF",
"w c #FBFCFD",
"e c #FCFCFC",
"r c #FDFDFC",
"t c #FCFCFD",
"y c #FCFDFD",
"u c #FDFDFD",
"i c #FDFDFE",
"p c #FDFDFF",
"a c #FEFEFE",
"s c #FFFFFE",
"d c #FFFFFF",
/* pixels */
"                         ",
"                         ",
"                         ",
"                         ",
"                         ",
"         ttt             ",
"         ttt0    wt      ",
"        ttttttttttt      ",
"       7t8888qtttt6      ",
"      &39,,,:2ttt6       ",
"      *1<#@+&,445        ",
"      *$    O-;;         ",
"             X.X         ",
"                         ",
"                         ",
"                         ",
"                         ",
"                         ",
"                         ",
"                         ",
"                         ",
"                         ",
"                         ",
"                         ",
"                         "
};
