/* XPM */
static char *_3[] = {
/* columns rows colors chars-per-pixel */
"25 25 48 1 ",
"  c None",
". c #BCCBE9",
"X c #C4D2F1",
"o c #C6D3F5",
"O c #C8D5F5",
"+ c #CBD8FA",
"@ c #CDD9FA",
"# c #CDDAFB",
"$ c #CEDAFB",
"% c #CFDBFC",
"& c #CFDCFD",
"* c #D0DCFD",
"= c #D0DDFD",
"- c #D1DDFD",
"; c #D1DDFE",
": c #D1DDFF",
"> c #D3DEFE",
", c #D2DEFF",
"< c #D3DFFF",
"1 c #D7E2FF",
"2 c #DBE4FD",
"3 c #DAE4FF",
"4 c #DCE6FF",
"5 c #DEE7FF",
"6 c #ECEFF1",
"7 c #E2EAFF",
"8 c #E3EBFF",
"9 c #E5ECFF",
"0 c #E6ECFE",
"q c #E9EFFF",
"w c #EBF1FF",
"e c #EDF2FF",
"r c #F1F4FD",
"t c #F7F9FF",
"y c #F8F9FA",
"u c #F9FAFB",
"i c #FAFBFA",
"p c #FAFBFB",
"a c #FBFCFF",
"s c #FCFCFC",
"d c #FCFCFD",
"f c #FDFDFD",
"g c #FDFDFE",
"h c #FCFDFF",
"j c #FEFEFE",
"k c #FFFFFE",
"l c #FEFEFF",
"z c #FFFFFF",
/* pixels */
"                         ",
"                         ",
"                         ",
"           ggg           ",
"         #0ggggu         ",
"         =7agggg         ",
"         &8ggggg         ",
"         &4wtggg         ",
"         X+=qgu6         ",
"           =0r           ",
"           ===           ",
"           #=#           ",
"                         ",
"           ugu           ",
"         #=2wggu         ",
"         ===1442         ",
"          O===o          ",
"            .            ",
"                         ",
"                         ",
"                         ",
"                         ",
"                         ",
"                         ",
"                         "
};
