/* XPM */
static char *_4[] = {
/* columns rows colors chars-per-pixel */
"25 25 57 1 ",
"  c None",
". c #B4C2E1",
"X c #B4C3E1",
"o c #B8C6E1",
"O c #DADFE1",
"+ c #C5D3F5",
"@ c #C6D3F5",
"# c #C6D4F6",
"$ c #C8D5F8",
"% c #C9D6F8",
"& c #C9D7F9",
"* c #CAD7F8",
"= c #CAD7F9",
"- c #CAD7FA",
"; c #CBD8FA",
": c #CBD9FB",
"> c #CEDBFB",
", c #CFDBFB",
"< c #CCD9FC",
"1 c #D1DDFF",
"2 c #D2DEFF",
"3 c #D4E0FF",
"4 c #D5E0FF",
"5 c #DCE5FF",
"6 c #DDE6FE",
"7 c #DDE6FF",
"8 c #DEE7FF",
"9 c #DFE7FF",
"0 c #DFE8FF",
"q c #E1E8F8",
"w c #E5EBF9",
"e c #E1E9FF",
"r c #E2EAFF",
"t c #E3EAFF",
"y c #F3F5F5",
"u c #F4F5F5",
"i c #F5F6F6",
"p c #F6F7F8",
"a c #F4F7FF",
"s c #F7F8F8",
"d c #F7F8F9",
"f c #F6F8FF",
"g c #F6F9FF",
"h c #F9FAFA",
"j c #FAFBFA",
"k c #FAFBFB",
"l c #FBFBFC",
"z c #FBFBFE",
"x c #FCFDFE",
"c c #FCFCFF",
"v c #FCFDFF",
"b c #FDFDFF",
"n c #FDFEFF",
"m c #FFFFFE",
"M c #FEFEFF",
"N c #FEFFFF",
"B c #FFFFFF",
/* pixels */
"                         ",
"                         ",
"                         ",
"                         ",
"                         ",
"       ;6zxj -exxj       ",
"       <6xxj -exxl       ",
"       ;6xxs -exxj       ",
"       -0xxu #exxs       ",
"       -6axu +0fxp       ",
"       -36au #36fs       ",
"        ;1qO .-1w        ",
"         ,o   .,         ",
"                         ",
"                         ",
"                         ",
"                         ",
"                         ",
"                         ",
"                         ",
"                         ",
"                         ",
"                         ",
"                         ",
"                         "
};
