/* XPM */
static char *_5[] = {
/* columns rows colors chars-per-pixel */
"25 25 56 1 ",
"  c None",
". c #B9C8E7",
"X c #BAC8EA",
"o c #BECCEB",
"O c #C3CDDC",
"+ c #D1D8DC",
"@ c #C0CEED",
"# c #C2CFEE",
"$ c #C9D3E6",
"% c #CDD6E5",
"& c #C3D0EF",
"* c #D1DAED",
"= c #C1D0F0",
"- c #C3D1F0",
"; c #C9D6F5",
": c #CAD8F9",
"> c #CCD8F9",
", c #CCD9F9",
"< c #CFDCFC",
"1 c #CFDCFE",
"2 c #D0DCFE",
"3 c #D1DDFE",
"4 c #D1DDFF",
"5 c #D2DEFF",
"6 c #DDE1E5",
"7 c #D4E0FF",
"8 c #D6E1FF",
"9 c #D9E3FF",
"0 c #DAE4FF",
"q c #DFE7FF",
"w c #DFE8FF",
"e c #E5E8EA",
"r c #EDEEF0",
"t c #E4EBFF",
"y c #E6ECFD",
"u c #E7EDFE",
"i c #EEF1F5",
"p c #EAF0FF",
"a c #EEF2FF",
"s c #F6F7F8",
"d c #F5F8FF",
"f c #F6F8FF",
"g c #FBFBFC",
"h c #F8FAFF",
"j c #F9FAFF",
"k c #F9FBFF",
"l c #FBFCFF",
"z c #FCFDFE",
"x c #FDFDFE",
"c c #FDFEFF",
"v c #FEFEFE",
"b c #FFFEFE",
"n c #FFFFFE",
"m c #FEFEFF",
"M c #FEFFFF",
"N c #FFFFFF",
/* pixels */
"                         ",
"                         ",
"                         ",
"                         ",
"          M    M         ",
"         MM   MM         ",
"      <2qMMMMMMMMMj      ",
"       >7qlMa0wlMs       ",
"        =7je X7jr        ",
"         7j   7j         ",
"         tl   tl         ",
"        %jM+ OjM6        ",
"      >229jMy29jMy:      ",
"       ;229fp229fi       ",
"        #22$ .22*        ",
"         #2   o2         ",
"          &    =         ",
"                         ",
"                         ",
"                         ",
"                         ",
"                         ",
"                         ",
"                         ",
"                         "
};
