/* XPM */
static char *_6[] = {
/* columns rows colors chars-per-pixel */
"25 25 87 1 ",
"  c None",
". c #ADBCDA",
"X c #B1C0DE",
"o c #B5C4E2",
"O c #B9C8E5",
"+ c #BDCBEA",
"@ c #C0CEEE",
"# c #C5D2E9",
"$ c #C4D1F1",
"% c #C8D5F5",
"& c #C9D5F5",
"* c #C9D6F7",
"= c #CCD8F8",
"- c #CCD9F9",
"; c #CEDAF9",
": c #CDD9FB",
"> c #CDDAFA",
", c #CEDAFB",
"< c #CEDBFB",
"1 c #CFDBFD",
"2 c #CFDCFC",
"3 c #D0DCFD",
"4 c #D1DDFD",
"5 c #D0DDFE",
"6 c #D1DDFE",
"7 c #D1DDFF",
"8 c #D1DEFF",
"9 c #D2DEFE",
"0 c #D2DEFF",
"q c #D3DEFF",
"w c #D3DFFF",
"e c #DBE1EE",
"r c #D6E1FC",
"t c #D4E0FF",
"y c #D5E1FF",
"u c #D6E1FE",
"i c #D6E1FF",
"p c #D7E2FF",
"a c #D8E2FD",
"s c #D9E3FF",
"d c #DEE7FD",
"f c #DDE6FE",
"g c #DDE6FF",
"h c #DDE7FF",
"j c #E5E9F1",
"k c #E5EAF0",
"l c #ECEFF3",
"z c #E0E7F9",
"x c #E2E9F9",
"c c #E2EAFD",
"v c #E1E9FF",
"b c #E2EAFF",
"n c #E4ECFF",
"m c #E6EDFF",
"M c #E7EDFF",
"N c #E8EEFF",
"B c #E9EFFF",
"V c #EAF0FF",
"C c #ECF1FF",
"Z c #EDF2FF",
"A c #F6F6F4",
"S c #F4F5F6",
"D c #F6F7F7",
"F c #F0F3F8",
"G c #F0F4FF",
"H c #F3F6FE",
"J c #F7F8F9",
"K c #F7F8FA",
"L c #F5F8FF",
"P c #F9FAFA",
"I c #F9FAFB",
"U c #FAFBFB",
"Y c #FCFCFB",
"T c #F9FAFD",
"R c #FAFAFC",
"E c #FAFBFF",
"W c #FBFCFC",
"Q c #FDFDFC",
"! c #FCFCFD",
"~ c #FCFDFD",
"^ c #FDFDFD",
"/ c #FEFEFD",
"( c #FCFDFE",
") c #FDFEFF",
"_ c #FFFFFE",
"` c #FEFEFF",
"' c #FFFFFF",
/* pixels */
"                         ",
"                         ",
"                         ",
"           QQW           ",
"         QRMGQQd         ",
"       ;GQj9MQlr9;       ",
"       9GA zLP  ;9       ",
"       9Mx#RQJ   *       ",
"       *19rVRP           ",
"        +;99NQQe         ",
"          ;9NQQv;        ",
"           *NQRdvQ       ",
"       1O  ;CA $MQ       ",
"       99@ FQA jQQ       ",
"       999;rCQJvss       ",
"        ;999rddr*        ",
"          X;r;.          ",
"            o            ",
"                         ",
"                         ",
"                         ",
"                         ",
"                         ",
"                         ",
"                         "
};
