/* XPM */
static char *_7[] = {
/* columns rows colors chars-per-pixel */
"25 25 70 1 ",
"  c None",
". c #B3C3E4",
"X c #B8C6E5",
"o c #BCCAE9",
"O c #C3CFEC",
"+ c #C9D4EE",
"@ c #D5DDEC",
"# c #C2CFF1",
"$ c #C4D1F1",
"% c #C5D3F1",
"& c #C8D5F6",
"* c #C9D6F6",
"= c #CAD7F7",
"- c #CBD8F8",
"; c #CBD8FA",
": c #CCD8F8",
"> c #CFDBF9",
", c #CDDAFA",
"< c #CFDBFC",
"1 c #CFDCFD",
"2 c #D0DBF5",
"3 c #D4DEF4",
"4 c #D5DFF6",
"5 c #D0DCFD",
"6 c #D1DDFE",
"7 c #D3DFFE",
"8 c #D2DEFF",
"9 c #D3DFFF",
"0 c #D6E0F8",
"q c #D5E0FD",
"w c #D5E0FF",
"e c #D5E1FF",
"r c #D6E1FE",
"t c #D7E2FF",
"y c #DBE5FE",
"u c #DAE4FF",
"i c #E7EAEC",
"p c #E5E9EF",
"a c #E8EBF0",
"s c #E2EAFD",
"d c #E0E8FF",
"f c #E2EAFF",
"g c #E5ECFF",
"h c #E6EDFF",
"j c #EDF0F1",
"k c #EEF1F5",
"l c #EDF1FE",
"z c #ECF1FF",
"x c #F0F2F4",
"c c #F1F3F4",
"v c #F5F7F7",
"b c #F0F4FE",
"n c #F2F5FF",
"m c #F3F6FF",
"M c #F6F8F9",
"N c #F7F9FC",
"B c #F8F9FA",
"V c #FAFAFB",
"C c #F8FAFD",
"Z c #F8FAFF",
"A c #FBFCFD",
"S c #FDFDFD",
"D c #FFFEFD",
"F c #FCFDFE",
"G c #FCFDFF",
"H c #FDFEFF",
"J c #FEFEFE",
"K c #FFFFFE",
"L c #FEFEFF",
"P c #FFFFFF",
/* pixels */
"                         ",
"                         ",
"                         ",
"                         ",
"       FFs7   CFF        ",
"      6n %gF wnFB        ",
"      6w iFB NFx         ",
"       16w0 BFi          ",
"          .2FF           ",
"           zFj           ",
"          @Fn            ",
"         OgC>            ",
"         aFM  kFz6       ",
"        xFv  *w3+uA      ",
"       ;ys3  <6  ws      ",
"       66;   X<>;6#      ",
"       *>     o**%       ",
"                         ",
"                         ",
"                         ",
"                         ",
"                         ",
"                         ",
"                         ",
"                         "
};
