/* XPM */
static char *_8[] = {
/* columns rows colors chars-per-pixel */
"25 25 77 1 ",
"  c None",
". c #BFCDEE",
"X c #C2CFEF",
"o c #CDD6E7",
"O c #C2D0EF",
"+ c #C1CFF0",
"@ c #C3D1F1",
"# c #C5D2F2",
"$ c #C4D2F3",
"% c #C5D2F3",
"& c #C6D3F2",
"* c #C6D3F3",
"= c #C6D4F3",
"- c #C7D4F4",
"; c #C6D4F5",
": c #CBD6F1",
"> c #C8D5F4",
", c #C8D6F7",
"< c #CAD7F7",
"1 c #CBD7F7",
"2 c #CDD9FA",
"3 c #CEDAFB",
"4 c #CEDBFC",
"5 c #CFDBFD",
"6 c #D0DCFC",
"7 c #D1DDFE",
"8 c #D1DDFF",
"9 c #D2DEFF",
"0 c #D3DFFF",
"q c #D4DFFF",
"w c #DAE2F2",
"e c #DBE2F2",
"r c #D4E0FF",
"t c #D5E1FF",
"y c #D8E1F8",
"u c #D8E2FE",
"i c #DAE4FE",
"p c #DBE5FF",
"a c #DCE5FD",
"s c #DEE6FD",
"d c #DCE5FF",
"f c #DCE6FF",
"g c #E0E6F6",
"h c #EBEFF7",
"j c #E0E8FF",
"k c #E2EAFF",
"l c #E6ECFC",
"z c #E5ECFE",
"x c #EDF0F7",
"c c #EEF1F8",
"v c #EAF0FF",
"b c #EBF0FF",
"n c #EBF1FF",
"m c #ECF1FF",
"M c #EDF2FF",
"N c #F6F7F7",
"B c #F2F5FC",
"V c #F3F6FF",
"C c #F5F8FF",
"Z c #FAFAFA",
"A c #FBFBFA",
"S c #FAFBFB",
"D c #FAFBFD",
"F c #F8F9FE",
"G c #FAFBFE",
"H c #FAFBFF",
"J c #FAFCFE",
"K c #FBFCFE",
"L c #FBFCFF",
"P c #FCFDFC",
"I c #FDFDFD",
"U c #FEFEFD",
"Y c #FCFDFF",
"T c #FDFEFF",
"R c #FEFEFF",
"E c #FEFFFF",
"W c #FFFFFF",
/* pixels */
"                         ",
"                         ",
"                         ",
"                         ",
"        IIHVVVV          ",
"       pLIl466vI         ",
"       pL    2vI         ",
"       dL    cIS         ",
"      @rjhw%>dg          ",
"       :lIM6q6y          ",
"       oINw%-4MS         ",
"      .dH    >vS         ",
"      .pH    >vIH        ",
"      Xru    xICp        ",
"      O66>==>djd62       ",
"       =6rrrr6-+66-      ",
"        %-%%%%  %>       ",
"                         ",
"                         ",
"                         ",
"                         ",
"                         ",
"                         ",
"                         ",
"                         "
};
