/* XPM */
static char *_9[] = {
/* columns rows colors chars-per-pixel */
"25 25 33 1 ",
"  c None",
". c #BDCAEA",
"X c #C9D4EA",
"o c #C9D6F6",
"O c #CDD9FA",
"+ c #CEDAFC",
"@ c #CFDBFD",
"# c #CFDCFD",
"$ c #CFDCFE",
"% c #D0DCFD",
"& c #D0DCFE",
"* c #D1DDFE",
"= c #D2DEFF",
"- c #D3DFFF",
"; c #D7E1FD",
": c #D6E1FF",
"> c #D9E3FF",
", c #E2EAFF",
"< c #E3EAFF",
"1 c #E3EBFF",
"2 c #E4EBFF",
"3 c #F2F4F6",
"4 c #F3F6FF",
"5 c #F4F7FF",
"6 c #F8F9FC",
"7 c #FAFBFF",
"8 c #FBFCFF",
"9 c #FCFCFD",
"0 c #FCFDFD",
"q c #FDFDFE",
"w c #FCFDFF",
"e c #FEFEFE",
"r c #FFFFFF",
/* pixels */
"                         ",
"                         ",
"                         ",
"                         ",
"                         ",
"         &<8rrrr         ",
"         &<8rrrr         ",
"         #<rrrrr         ",
"         @<7rrrr         ",
"         &>24rrr         ",
"         o@&<573         ",
"          .&;;X          ",
"           &&@           ",
"           O&O           ",
"                         ",
"                         ",
"                         ",
"                         ",
"                         ",
"                         ",
"                         ",
"                         ",
"                         ",
"                         ",
"                         "
};
