/* XPM */
static char *_0[] = {
/* columns rows colors chars-per-pixel */
"25 25 39 1 ",
"  c None",
". c #BBC9E6",
"X c #BFCDEB",
"o c #C6D3F3",
"O c #C5D2F4",
"+ c #C5D3F5",
"@ c #C7D4F4",
"# c #C6D4F6",
"$ c #C8D5F7",
"% c #C9D6F9",
"& c #CAD7FA",
"* c #CCD8F9",
"= c #CCD9F9",
"- c #CDDAFA",
"; c #CEDBFB",
": c #D0DCFD",
"> c #D1DDFE",
", c #D1DDFF",
"< c #D3DFFE",
"1 c #D2DEFF",
"2 c #D4DFFF",
"3 c #D4E0FF",
"4 c #DAE4FF",
"5 c #DBE5FF",
"6 c #E4EBFF",
"7 c #E7EDFF",
"8 c #F4F7FF",
"9 c #F6F8FF",
"0 c #F6F9FF",
"q c #FBFBFC",
"w c #F9FAFE",
"e c #FBFCFC",
"r c #FBFCFE",
"t c #FCFDFD",
"y c #FDFEFE",
"u c #FEFEFE",
"i c #FEFEFF",
"p c #FEFFFF",
"a c #FFFFFF",
/* pixels */
"                         ",
"                         ",
"                         ",
"            iiiiw        ",
"          iiiie          ",
"        &59ii            ",
"        &59ii            ",
"        $59ii            ",
"        #59ii            ",
"        +59ii            ",
"        +59ii            ",
"        +59ii            ",
"        +58ii            ",
"        #<27e            ",
"        o<<6w            ",
"          -3<X           ",
"          -<<<-          ",
"           .<<<<-        ",
"                         ",
"                         ",
"                         ",
"                         ",
"                         ",
"                         ",
"                         "
};
