/* XPM */
static char *_1[] = {
/* columns rows colors chars-per-pixel */
"25 25 35 1 ",
"  c None",
". c #BBC9E6",
"X c #CCD8F9",
"o c #CEDAF9",
"O c #CEDBFB",
"+ c #CFDBFC",
"@ c #CFDCFC",
"# c #D0DCFD",
"$ c #D1DDFE",
"% c #D1DDFF",
"& c #D2DEFF",
"* c #D3DFFF",
"= c #D4DFFE",
"- c #DCE2EB",
"; c #D4E0FF",
": c #D5E0FF",
"> c #D6E1FE",
", c #D7E1FF",
"< c #E3EBFF",
"1 c #EFF1F3",
"2 c #EDF2FF",
"3 c #EEF3FF",
"4 c #F1F2F4",
"5 c #F1F3F5",
"6 c #F2F4F5",
"7 c #F3F5F6",
"8 c #F5F6F8",
"9 c #F6F8F8",
"0 c #F6F8FA",
"q c #F9FAFE",
"w c #F9FBFF",
"e c #FDFDFD",
"r c #FDFEFF",
"t c #FEFEFE",
"y c #FFFFFF",
/* pixels */
"                         ",
"                         ",
"                         ",
"        +%%<w            ",
"          @%,3e          ",
"            =3e          ",
"            =3ee0        ",
"            =3ee8        ",
"            =3ee6        ",
"            =3ee6        ",
"            =3ee4        ",
"            =3ee4        ",
"            =3ee4        ",
"            =3ee4        ",
"            ,3ee1        ",
"           -we0          ",
"          X%,,X          ",
"        X%%%%.           ",
"                         ",
"                         ",
"                         ",
"                         ",
"                         ",
"                         ",
"                         "
};
