/* XPM */
static char *_2[] = {
/* columns rows colors chars-per-pixel */
"25 25 69 1 ",
"  c None",
". c #A5B6D2",
"X c #BAC5D2",
"o c #C0CEED",
"O c #C1CEED",
"+ c #CDD7EB",
"@ c #C6D4F4",
"# c #C9D6F7",
"$ c #CAD6F7",
"% c #CBD7F7",
"& c #CBD8F4",
"* c #C9D7F8",
"= c #CBD7F8",
"- c #CBD8F8",
"; c #CEDAFB",
": c #CFDCFC",
"> c #CFDCFE",
", c #D0DCFD",
"< c #D1DCFD",
"1 c #D3DEFD",
"2 c #D1DDFE",
"3 c #D0DDFF",
"4 c #D1DDFF",
"5 c #D2DEFF",
"6 c #D3DEFF",
"7 c #D3DFFF",
"8 c #D4DFFE",
"9 c #D4DFFF",
"0 c #D9E1F3",
"q c #D4E0FF",
"w c #D8E1F8",
"e c #D8E2FF",
"r c #D9E3FF",
"t c #DBE4FF",
"y c #DDE6FF",
"u c #E5E8EB",
"i c #E0E8FE",
"p c #E1EAFF",
"a c #E2EAFF",
"s c #E7EDFF",
"d c #E7EEFF",
"f c #E8EDF8",
"g c #E9EFFF",
"h c #ECF1FC",
"j c #EEF2FC",
"k c #EEF2FE",
"l c #EFF3FF",
"z c #F3F5F3",
"x c #F1F3F5",
"c c #F2F4F5",
"v c #F4F5F7",
"b c #F1F5FF",
"n c #F2F6FE",
"m c #F3F6FF",
"M c #F6F8FF",
"N c #F7F9FF",
"B c #F9FAFB",
"V c #F9FAFF",
"C c #FBFCFC",
"Z c #FBFCFD",
"A c #FCFCFC",
"S c #FCFCFD",
"D c #FDFDFD",
"F c #FEFEFD",
"G c #FFFFFD",
"H c #FEFEFE",
"J c #FEFEFF",
"K c #FEFFFF",
"L c #FFFFFF",
/* pixels */
"                         ",
"                         ",
"                         ",
"                         ",
"           5gA           ",
"       5h  hVA  AA       ",
"       5ahcAAAxCAA       ",
"       ;5yMAAAAAAB       ",
"        $5tMAAAAv        ",
"         +bAAAAu         ",
"         zAhmAA0         ",
"        fMbegAAa*        ",
"       :8855gAAa5:       ",
"       55@.-twX&55       ",
"        O  *q*  O        ",
"           O*O           ",
"                         ",
"                         ",
"                         ",
"                         ",
"                         ",
"                         ",
"                         ",
"                         ",
"                         "
};
