/* XPM */
static char *_3[] = {
/* columns rows colors chars-per-pixel */
"25 25 45 1 ",
"  c None",
". c #CBD8F8",
"X c #CBD8F9",
"o c #CCD8F9",
"O c #CCD9F9",
"+ c #CCD8FA",
"@ c #CFDBFB",
"# c #CEDBFE",
"$ c #D0DCFD",
"% c #D1DDFD",
"& c #D0DDFE",
"* c #D1DDFE",
"= c #D2DEFF",
"- c #D3DFFF",
"; c #D7E1FD",
": c #DFE7FD",
"> c #DFE8FF",
", c #E1E8F8",
"< c #E5ECFF",
"1 c #EAEFFB",
"2 c #E8EEFF",
"3 c #E9EFFF",
"4 c #EAF0FF",
"5 c #EDF2FF",
"6 c #F0F4FF",
"7 c #F1F5FF",
"8 c #F2F6FF",
"9 c #F7F9F9",
"0 c #F6F8FC",
"q c #F6F9FF",
"w c #F7F9FF",
"e c #F9F9F9",
"r c #FAFAF9",
"t c #FBFBF9",
"y c #FAFBFA",
"u c #FCFCFB",
"i c #FBFCFC",
"p c #FBFCFD",
"a c #FDFDFD",
"s c #FEFEFD",
"d c #FDFEFE",
"f c #FDFEFF",
"g c #FFFEFE",
"h c #FFFFFE",
"j c #FFFFFF",
/* pixels */
"                         ",
"                         ",
"                         ",
"                         ",
"           $2g           ",
"           #2g           ",
"           ;5g           ",
"           0gi           ",
"       +1ttggg9tuu       ",
"       $<888wgg088       ",
"       $$$$$2gi:$$       ",
"           +4t           ",
"           X>,           ",
"           +$X           ",
"           +$+           ",
"                         ",
"                         ",
"                         ",
"                         ",
"                         ",
"                         ",
"                         ",
"                         ",
"                         ",
"                         "
};
