/* XPM */
static char *_4[] = {
/* columns rows colors chars-per-pixel */
"25 25 38 1 ",
"  c None",
". c #BECCEB",
"X c #C3D1F1",
"o c #C9D6F7",
"O c #CAD7F7",
"+ c #C9D7F8",
"@ c #CDD9F9",
"# c #CDD9FA",
"$ c #CDDAFA",
"% c #CEDAFB",
"& c #CEDBFD",
"* c #D0DCFD",
"= c #D1DDFE",
"- c #D1DDFF",
"; c #D2DEFE",
": c #D2DEFF",
"> c #D6E0FC",
", c #D4E0FF",
"< c #D7E1FF",
"1 c #D7E2FF",
"2 c #DAE4FF",
"3 c #DDE6FF",
"4 c #E6EDFE",
"5 c #E7EDFF",
"6 c #E9EFFF",
"7 c #EAF0FF",
"8 c #EFF4FF",
"9 c #F2F5FC",
"0 c #FAFBFB",
"q c #F8FAFF",
"w c #FAFBFF",
"e c #FCFDFD",
"r c #FEFDFD",
"t c #FDFDFE",
"y c #FDFDFF",
"u c #FDFEFF",
"i c #FEFEFE",
"p c #FFFFFF",
/* pixels */
"                         ",
"                         ",
"                         ",
"                         ",
"                         ",
"           ppp           ",
"         %4pppp0         ",
"         =38wppp         ",
"         &=<7ppp         ",
"          O=24wp         ",
"           O&<69         ",
"            X=<<         ",
"           .%=O          ",
"           %=%           ",
"                         ",
"                         ",
"                         ",
"                         ",
"                         ",
"                         ",
"                         ",
"                         ",
"                         ",
"                         ",
"                         "
};
