/* XPM */
static char *_5[] = {
/* columns rows colors chars-per-pixel */
"25 25 24 1 ",
"  c None",
". c #BFCDEE",
"X c #BFCDEF",
"o c #C0CEF0",
"O c #C2D0F2",
"+ c #C4D1F2",
"@ c #D0DCFD",
"# c #D2DDFD",
"$ c #D2DEFD",
"% c #D2DEFE",
"& c #D3DEFF",
"* c #D3DFFF",
"= c #DDE6FF",
"- c #E5ECFF",
"; c #E6ECFF",
": c #E6EDFF",
"> c #E9EFFF",
", c #EBF0FD",
"< c #F9FBFF",
"1 c #FAFBFF",
"2 c #FAFCFF",
"3 c #FEFEFD",
"4 c #FFFEFD",
"5 c #FFFFFD",
/* pixels */
"                         ",
"                         ",
"                         ",
"                         ",
"                         ",
"                         ",
"        #,3333333        ",
"        #>2111111        ",
"        #=:::::::        ",
"        #########        ",
"         +oXXXoO         ",
"                         ",
"                         ",
"                         ",
"                         ",
"                         ",
"                         ",
"                         ",
"                         ",
"                         ",
"                         ",
"                         ",
"                         ",
"                         ",
"                         "
};
