/* XPM */
static char *_6[] = {
/* columns rows colors chars-per-pixel */
"25 25 31 1 ",
"  c None",
". c #BECCED",
"X c #C0CEED",
"o c #C3D0F1",
"O c #C7D4F3",
"+ c #CCD9FB",
"@ c #CEDBFC",
"# c #D0DCFD",
"$ c #D0DDFE",
"% c #D1DDFE",
"& c #D1DDFF",
"* c #D4DFFD",
"= c #D4E0FF",
"- c #DAE4FF",
"; c #DEE7FF",
": c #E0E8FF",
"> c #E6ECFE",
", c #EDF2FF",
"< c #EEF2FF",
"1 c #F0F2F3",
"2 c #F2F5FB",
"3 c #F1F5FF",
"4 c #FBFBFC",
"5 c #FBFCFF",
"6 c #FCFCFD",
"7 c #FDFDFE",
"8 c #FDFEFF",
"9 c #FEFEFE",
"0 c #FEFEFF",
"q c #FEFFFF",
"w c #FFFFFF",
/* pixels */
"                         ",
"                         ",
"                         ",
"                         ",
"                         ",
"           777           ",
"           777           ",
"         @>77774         ",
"         %;35777         ",
"         %=-,777         ",
"         O+%:,21         ",
"           %==           ",
"           Xo.           ",
"                         ",
"                         ",
"                         ",
"                         ",
"                         ",
"                         ",
"                         ",
"                         ",
"                         ",
"                         ",
"                         ",
"                         "
};
