/* XPM */
static char *_7[] = {
/* columns rows colors chars-per-pixel */
"25 25 42 1 ",
"  c None",
". c #C8D5F8",
"X c #CDD9FA",
"o c #CEDAFB",
"O c #D2DCF8",
"+ c #D0DCFD",
"@ c #D0DDFD",
"# c #D1DDFE",
"$ c #D2DEFF",
"% c #D3DFFF",
"& c #D9E2F7",
"* c #DBE4FA",
"= c #DBE5FF",
"- c #EAEDEE",
"; c #ECEFF0",
": c #E1E9FF",
"> c #E2E9FE",
", c #E4EBFE",
"< c #E9EEFA",
"1 c #E9EEFF",
"2 c #E9EFFF",
"3 c #EFF2F8",
"4 c #EBF0FF",
"5 c #F1F2F4",
"6 c #F4F5F6",
"7 c #F6F7F7",
"8 c #F1F4FD",
"9 c #F1F5FF",
"0 c #F7F8F8",
"q c #F7F8F9",
"w c #F7F8FB",
"e c #F6F8FE",
"r c #F8FAFF",
"t c #FBFCFC",
"y c #FBFCFE",
"u c #FBFCFF",
"i c #FCFCFC",
"p c #FCFCFD",
"a c #FCFDFF",
"s c #FFFFFE",
"d c #FEFEFF",
"f c #FFFFFF",
/* pixels */
"                         ",
"                         ",
"                         ",
"               >s        ",
"              ,9s        ",
"              ys0        ",
"            O>r7         ",
"            3ss7         ",
"           @1ss5         ",
"           @1y           ",
"           9ys           ",
"          *y0            ",
"         .=r-            ",
"         &4s;            ",
"         <e0             ",
"        @@o              ",
"        @@o              ",
"                         ",
"                         ",
"                         ",
"                         ",
"                         ",
"                         ",
"                         ",
"                         "
};
