/* XPM */
static char *_8[] = {
/* columns rows colors chars-per-pixel */
"25 25 72 1 ",
"  c None",
". c #B9C7E5",
"X c #B9C8E8",
"o c #BBC9E9",
"O c #BDCBE9",
"+ c #C2CFF1",
"@ c #C2D0F2",
"# c #C4D1F2",
"$ c #C4D2F2",
"% c #C5D2F2",
"& c #C6D3F2",
"* c #C7D4F4",
"= c #C7D5F6",
"- c #CAD6F2",
"; c #CED9F7",
": c #CEDAF7",
"> c #CAD7F8",
", c #CBD7F8",
"< c #CCD9FB",
"1 c #CEDBFB",
"2 c #CFDBFC",
"3 c #D0DCFD",
"4 c #D1DDFD",
"5 c #D1DDFE",
"6 c #D2DEFE",
"7 c #D2DEFF",
"8 c #D3DFFF",
"9 c #DDE4F4",
"0 c #D4E0FF",
"q c #D6E1FF",
"w c #D7E2FF",
"e c #DEE7FE",
"r c #DFE7FF",
"t c #DFE8FF",
"y c #E4E7E8",
"u c #E3E9F8",
"i c #E5EBFB",
"p c #E0E9FF",
"a c #E1E9FF",
"s c #E1EAFF",
"d c #E4EBFE",
"f c #E4EBFF",
"g c #E4ECFF",
"h c #E6EDFF",
"j c #E9EFFF",
"k c #EEF0F4",
"l c #ECF1FF",
"z c #EEF2FF",
"x c #EEF3FF",
"c c #EFF4FF",
"v c #F0F1F1",
"b c #F0F2F2",
"n c #F1F2F2",
"m c #F0F2F4",
"M c #F3F5F7",
"N c #F5F7F6",
"B c #F5F6F7",
"V c #F0F4FF",
"C c #F3F6FF",
"Z c #F4F7FF",
"A c #F6F8FD",
"S c #F9FBFF",
"D c #FBFCFC",
"F c #FCFDFC",
"G c #FCFCFD",
"H c #FCFDFD",
"J c #FEFEFD",
"K c #FDFDFE",
"L c #FCFDFF",
"P c #FDFEFF",
"I c #FEFEFE",
"U c #FFFFFF",
/* pixels */
"                         ",
"                         ",
"                         ",
"                         ",
"        ALLLSCZLL        ",
"       5lLLLi25lLL       ",
"       5lLD   25gL       ",
"       5CN     =dL       ",
"       5Cb X9y @gL       ",
"       5Cb ,su @gL       ",
"       5Cb ,0, @dL       ",
"       5Cb #2# -jL       ",
"       5lm     kLL       ",
"       50dM   NLLL       ",
"       550t;#;tsse       ",
"       O155505551o       ",
"        .=#####=.        ",
"                         ",
"                         ",
"                         ",
"                         ",
"                         ",
"                         ",
"                         ",
"                         "
};
