/* XPM */
static char *_9[] = {
/* columns rows colors chars-per-pixel */
"25 25 48 1 ",
"  c None",
". c #D3DAE5",
"X c #C3D0F0",
"o c #C2D0F1",
"O c #C6D3F3",
"+ c #C7D4F4",
"@ c #C8D5F5",
"# c #CAD7F7",
"$ c #CCD9F7",
"% c #CAD7F8",
"& c #CBD7F9",
"* c #CBD8F9",
"= c #CDD9F8",
"- c #CCD9F9",
"; c #CEDAF9",
": c #CEDAFB",
"> c #D0DCFB",
", c #D0DCFC",
"< c #D1DEFF",
"1 c #D2DEFF",
"2 c #D3DFFF",
"3 c #DCE5FE",
"4 c #DDE6FE",
"5 c #DDE6FF",
"6 c #E0E7F9",
"7 c #E2E9FF",
"8 c #E2EAFF",
"9 c #E9EFFF",
"0 c #EAF0FF",
"q c #EBF1FF",
"w c #EDF2FF",
"e c #F1F4F9",
"r c #F0F4FF",
"t c #F7F8FA",
"y c #F9FAFA",
"u c #FAFAFA",
"i c #FAFAFB",
"p c #FAFBFB",
"a c #FBFBFB",
"s c #FBFBFC",
"d c #FBFCFC",
"f c #FCFDFD",
"g c #FCFDFF",
"h c #FDFEFE",
"j c #FDFEFF",
"k c #FEFEFE",
"l c #FEFEFF",
"z c #FFFFFF",
/* pixels */
"                         ",
"                         ",
"                         ",
"                         ",
"           zzz           ",
"          zzzz           ",
"        tzzzzd           ",
"       ,rzz8ws           ",
"       ,56.>9i           ",
"       oo  &0i           ",
"           &0i           ",
"           &0i           ",
"           =0i           ",
"           ezi           ",
"       ==&$585=*==       ",
"       ,22,,,,,,,,       ",
"       ###+OOO+###       ",
"                         ",
"                         ",
"                         ",
"                         ",
"                         ",
"                         ",
"                         ",
"                         "
};
