/* XPM */
static char *_0[] = {
/* columns rows colors chars-per-pixel */
"25 25 71 1 ",
"  c None",
". c #B9C8E7",
"X c #BECCED",
"o c #CED7E8",
"O c #C6D3F2",
"+ c #C6D3F3",
"@ c #C7D4F3",
"# c #C7D4F4",
"$ c #CBD6F0",
"% c #C8D5F4",
"& c #C8D5F5",
"* c #C9D6F6",
"= c #CAD7F7",
"- c #CBD7F8",
"; c #CBD8F8",
": c #CBD8FA",
"> c #CCD8F9",
", c #CCD9FA",
"< c #CDD9FA",
"1 c #CEDAFB",
"2 c #CEDBFC",
"3 c #CFDCFC",
"4 c #D1DBF6",
"5 c #D0DCFC",
"6 c #D1DDFD",
"7 c #D0DCFE",
"8 c #D1DDFE",
"9 c #D1DDFF",
"0 c #D2DDFE",
"q c #D2DEFE",
"w c #D2DEFF",
"e c #D3DFFF",
"r c #D4DFFF",
"t c #D4E0FF",
"y c #D9E2FC",
"u c #D9E3FC",
"i c #DAE3FC",
"p c #D9E3FF",
"a c #DFE7FC",
"s c #DCE5FF",
"d c #E3E7EA",
"f c #E6E9EA",
"g c #E8EDF5",
"h c #E1E9FE",
"j c #E2EAFF",
"k c #E4EBFF",
"l c #E5ECFF",
"z c #E9EEFF",
"x c #EEF0F1",
"c c #EDF0F2",
"v c #EBF1FF",
"b c #EEF3FF",
"n c #EFF4FF",
"m c #F5F6F7",
"M c #F6F6F6",
"N c #F3F5F9",
"B c #F3F6FD",
"V c #F3F6FF",
"C c #F6F8FD",
"Z c #F6F8FF",
"A c #F6F9FF",
"S c #FAFBFB",
"D c #F8F9FC",
"F c #FBFCFF",
"G c #FFFFFC",
"H c #FDFDFE",
"J c #FEFEFE",
"K c #FFFFFE",
"L c #FEFEFF",
"P c #FEFFFF",
"I c white",
/* pixels */
"                         ",
"                         ",
"                         ",
"                         ",
"        ZLLZVVVVV        ",
"       8bLZy2388kL       ",
"       8bm     =lL       ",
"       8y4     gFL       ",
"              cLZj       ",
"          dfo$zbaX       ",
"         cLZj88,.        ",
"        NLFy:,,          ",
"       8bLS              ",
"       8nm               ",
"       8sy##====,,       ",
"       888rtrtr888       ",
"       +=++++@====       ",
"                         ",
"                         ",
"                         ",
"                         ",
"                         ",
"                         ",
"                         ",
"                         "
};
