/* XPM */
static char *_1[] = {
/* columns rows colors chars-per-pixel */
"25 25 64 1 ",
"  c None",
". c #C0CEED",
"X c #C4D1F0",
"o c #C6D3F3",
"O c #C6D3F4",
"+ c #C7D4F4",
"@ c #C6D4F5",
"# c #C8D4F4",
"$ c #C8D5F5",
"% c #C9D6F6",
"& c #CAD7F7",
"* c #CED9F6",
"= c #CFDAF6",
"- c #CBD7F8",
"; c #CBD8F8",
": c #CFDAF8",
"> c #CEDBFB",
", c #CEDAFC",
"< c #CFDBFC",
"1 c #CFDCFD",
"2 c #CFDCFF",
"3 c #D3DFFD",
"4 c #D1DDFE",
"5 c #D1DDFF",
"6 c #D1DEFF",
"7 c #D2DEFE",
"8 c #D2DEFF",
"9 c #D3DFFF",
"0 c #D4DFFF",
"q c #D6E0F9",
"w c #D5E0FE",
"e c #D4E0FF",
"r c #D9E2FC",
"t c #D8E2FD",
"y c #DFE8FF",
"u c #E1E9FF",
"i c #E2EAFE",
"p c #E2EAFF",
"a c #E3EAFF",
"s c #E9EFFF",
"d c #EEF1F5",
"f c #EBF0FC",
"g c #EAF0FF",
"h c #F5F6F7",
"j c #F6F7F6",
"k c #F1F4FA",
"l c #F6F7F8",
"z c #F1F5FF",
"x c #F3F6FF",
"c c #F4F7FD",
"v c #F7F9FC",
"b c #F7F9FD",
"n c #F6F8FF",
"m c #FAFBFA",
"M c #FCFCFB",
"N c #FAFBFD",
"B c #F8FAFF",
"V c #FCFDFD",
"C c #FCFDFE",
"Z c #FDFDFE",
"A c #FDFEFF",
"S c #FFFFFE",
"D c #FEFFFF",
"F c white",
/* pixels */
"                         ",
"                         ",
"                         ",
"                         ",
"        nAAnxxxk         ",
"       4gABr,14xM        ",
"       4e=    4xm        ",
"              cAl        ",
"           .O=iBh        ",
"           >e44if        ",
"           X&-41iA       ",
"              &esA       ",
"       44&     dAB       ",
"       44;    hAxr       ",
"        14;&&>iiq        ",
"         ;44044@         ",
"          &&@@X          ",
"                         ",
"                         ",
"                         ",
"                         ",
"                         ",
"                         ",
"                         ",
"                         "
};
