/* XPM */
static char *_2[] = {
/* columns rows colors chars-per-pixel */
"25 25 54 1 ",
"  c None",
". c #A8B7D5",
"X c #BECBE1",
"o c #C1CCE1",
"O c #CBD5E6",
"+ c #C5D3F2",
"@ c #C7D4F5",
"# c #CAD7F7",
"$ c #CFDCFC",
"% c #D4DDF4",
"& c #D1DDFC",
"* c #D0DCFD",
"= c #D0DDFD",
"- c #D1DDFD",
"; c #D0DCFE",
": c #D1DDFE",
"> c #D2DEFF",
", c #D3DFFF",
"< c #D5E0FD",
"1 c #DDE6FF",
"2 c #DFE8FF",
"3 c #EBEEEE",
"4 c #E1E8F9",
"5 c #E1E8FC",
"6 c #E6ECFC",
"7 c #E8EEFB",
"8 c #EBF0FF",
"9 c #EEF2FD",
"0 c #EFF3FD",
"q c #F0F2F2",
"w c #F2F4F5",
"e c #F5F6F6",
"r c #F5F7F7",
"t c #F7F7F7",
"y c #F1F4FC",
"u c #F0F4FF",
"i c #F1F5FF",
"p c #F2F5FF",
"a c #F3F6FF",
"s c #F4F7FF",
"d c #F7F8F9",
"f c #F7F9FF",
"g c #F8F9F9",
"h c #F9FAFB",
"j c #F8F9FC",
"k c #F9FBFF",
"l c #FBFCFC",
"z c #FCFCFD",
"x c #FCFDFF",
"c c #FDFEFE",
"v c #FEFEFE",
"b c #FEFEFF",
"n c #FEFFFF",
"m c #FFFFFF",
/* pixels */
"                         ",
"                         ",
"                         ",
"                         ",
"            ymmml        ",
"           <8mmmg        ",
"           jmmmmd        ",
"          mmmf2yr        ",
"         5mmqO>yr        ",
"        4ym3  6jw        ",
"        7s9X o9mg        ",
"       >>>>>>>>ymm       ",
"       >>>>>>>>yml       ",
"             .>yr        ",
"              $1%        ",
"              >>@        ",
"              +#         ",
"                         ",
"                         ",
"                         ",
"                         ",
"                         ",
"                         ",
"                         ",
"                         "
};
