/* XPM */
static char *_3[] = {
/* columns rows colors chars-per-pixel */
"25 25 64 1 ",
"  c None",
". c #BBCAEA",
"X c #C0CEED",
"o c #C5D2F3",
"O c #C6D3F3",
"+ c #C7D4F3",
"@ c #C5D3F5",
"# c #C6D3F4",
"$ c #C6D4F4",
"% c #C7D4F4",
"& c #C7D4F5",
"* c #C7D5F5",
"= c #C8D5F4",
"- c #C8D5F5",
"; c #C9D6F5",
": c #C9D5F6",
"> c #C9D6F6",
", c #CAD6F6",
"< c #CFDAF4",
"1 c #CCD9FB",
"2 c #CEDAFC",
"3 c #CEDBFC",
"4 c #CFDBFC",
"5 c #D0DCFC",
"6 c #D0DCFD",
"7 c #D1DDFD",
"8 c #D1DDFE",
"9 c #D2DEFE",
"0 c #D2DEFF",
"q c #D3DFFF",
"w c #D4DFFF",
"e c #D4E0FF",
"r c #D9E2FC",
"t c #D9E3FD",
"y c #D8E3FF",
"u c #DAE4FC",
"i c #DBE4FC",
"p c #DDE6FF",
"a c #DEE7FE",
"s c #EAEDF4",
"d c #E2EAFF",
"f c #E4EBFF",
"g c #E4ECFF",
"h c #E6EDFF",
"j c #EDF0F2",
"k c #ECF1FF",
"l c #EEF2FF",
"z c #EEF3FF",
"x c #EFF4FF",
"c c #F3F4F4",
"v c #F5F6F6",
"b c #F0F4FF",
"n c #F2F6FF",
"m c #F3F6FF",
"M c #F7F9FC",
"N c #F6F8FF",
"B c #FCFDFD",
"V c #FDFDFD",
"C c #FCFDFE",
"Z c #FCFDFF",
"A c #FDFEFE",
"S c #FFFFFE",
"D c #FEFFFF",
"F c white",
/* pixels */
"                         ",
"                         ",
"                         ",
"                         ",
"       7lDDNmmmmmm       ",
"       7lDNr377777       ",
"       7xv               ",
"       7mc               ",
"       7pi+oo&&,         ",
"       777weee77r        ",
"       o&#&&,,,3fD       ",
"               #fD       ",
"       7lj     ,hD       ",
"       7r<     sDD       ",
"       773,,,&,rdp       ",
"       X377ww7771.       ",
"         ,&&&&+,         ",
"                         ",
"                         ",
"                         ",
"                         ",
"                         ",
"                         ",
"                         ",
"                         "
};
