/* XPM */
static char *_4[] = {
/* columns rows colors chars-per-pixel */
"25 25 73 1 ",
"  c None",
". c #B8C6E4",
"X c #BAC8E8",
"o c #C1CFF1",
"O c #C4D2F1",
"+ c #C5D2F3",
"@ c #C5D3F3",
"# c #C6D3F2",
"$ c #C6D4F3",
"% c #C7D4F4",
"& c #CAD6F3",
"* c #C8D4F4",
"= c #C8D5F4",
"- c #C9D6F6",
"; c #CAD6F7",
": c #CDD9F6",
"> c #CCD8F9",
", c #CCD9FB",
"< c #CFDBFC",
"1 c #CFDCFF",
"2 c #D3DDF6",
"3 c #D0DCFC",
"4 c #D0DCFD",
"5 c #D1DDFD",
"6 c #D0DDFE",
"7 c #D1DDFE",
"8 c #D2DEFE",
"9 c #D2DEFF",
"0 c #D3DEFF",
"q c #D3DFFF",
"w c #D4DFFD",
"e c #D4DFFF",
"r c #DBE3F3",
"t c #D5E0FE",
"y c #D4E0FF",
"u c #D5E0FF",
"i c #DEE7FE",
"p c #DFE8FF",
"a c #E7EAEE",
"s c #E6EBF5",
"d c #E0E9FF",
"f c #E1E9FF",
"g c #E3EAFF",
"h c #E3EBFF",
"j c #E5EBFC",
"k c #E9EFFF",
"l c #EAEFFF",
"z c #EFF1F3",
"x c #EEF0F5",
"c c #ECF1FC",
"v c #EEF3FF",
"b c #EFF3FF",
"n c #F1F2F2",
"m c #F3F4F6",
"M c #F4F6F7",
"N c #F6F7F7",
"B c #F3F6FD",
"V c #F0F5FF",
"C c #F3F6FF",
"Z c #F7F9FC",
"A c #F7F9FE",
"S c #F9FAFB",
"D c #F9FBFF",
"F c #FAFBFE",
"G c #FBFCFC",
"H c #FCFCFC",
"J c #FCFDFD",
"K c #FDFDFD",
"L c #FDFDFE",
"P c #FCFDFF",
"I c #FEFEFE",
"U c #FEFFFF",
"Y c #FFFFFF",
/* pixels */
"                         ",
"                         ",
"                         ",
"                         ",
"         SKKDCCCC        ",
"        ZKKKj<88hZ       ",
"       8bKG    -8e       ",
"       8bN               ",
"       8bKznr+-s         ",
"       8bKKCp8ehba       ",
"       8bKK2o-81hK       ",
"       8cDm   -tkK       ",
"       8t-     xKK       ",
"       888-   NKKK       ",
"        >88-+:phhi       ",
"         -8tt888>X       ",
"          +$+++%.        ",
"                         ",
"                         ",
"                         ",
"                         ",
"                         ",
"                         ",
"                         ",
"                         "
};
