/* XPM */
static char *_5[] = {
/* columns rows colors chars-per-pixel */
"25 25 47 1 ",
"  c None",
". c #D0DAEE",
"X c #C8D6F5",
"o c #CDD9F8",
"O c #CCD9F9",
"+ c #CEDBFB",
"@ c #CFDBFC",
"# c #CFDCFC",
"$ c #CFDCFE",
"% c #D6DFF7",
"& c #D0DCFC",
"* c #D0DCFD",
"= c #D0DDFD",
"- c #D2DEFF",
"; c #D3DFFF",
": c #D4DFFE",
"> c #DCE2ED",
", c #DCE4F6",
"< c #D6E0FD",
"1 c #DFE7FA",
"2 c #D8E2FE",
"3 c #E9EDF3",
"4 c #E0E8FE",
"5 c #E6EDFF",
"6 c #E8EEFF",
"7 c #EBF1FF",
"8 c #EDF2FF",
"9 c #EEF3FF",
"0 c #F0F2F7",
"q c #F3F5F6",
"w c #F5F6F6",
"e c #F5F7F7",
"r c #F0F3F9",
"t c #F2F6FF",
"y c #F3F6FF",
"u c #F4F7FF",
"i c #F7F9FF",
"p c #F9FBFC",
"a c #F8FAFF",
"s c #FBFCFF",
"d c #FDFDFE",
"f c #FDFDFF",
"g c #FDFEFF",
"h c #FEFEFE",
"j c #FFFFFE",
"k c #FEFEFF",
"l c white",
/* pixels */
"                         ",
"                         ",
"                         ",
"                         ",
"       -5uyyyyyyij       ",
"       #---##@#:6j       ",
"               0jj       ",
"              ejjj       ",
"             %s91        ",
"            .9j,         ",
"            ejq          ",
"           pjr           ",
"          2i7o           ",
"          pj3            ",
"         <4>             ",
"        o-#              ",
"         oX              ",
"                         ",
"                         ",
"                         ",
"                         ",
"                         ",
"                         ",
"                         ",
"                         "
};
