/* XPM */
static char *_6[] = {
/* columns rows colors chars-per-pixel */
"25 25 77 1 ",
"  c None",
". c #BBC9EA",
"X c #BBCAEB",
"o c #BECCEA",
"O c #BECCEB",
"+ c #BFCDEC",
"@ c #C5D2F2",
"# c #C5D2F3",
"$ c #C6D3F2",
"% c #C7D4F3",
"& c #C7D4F4",
"* c #C6D4F5",
"= c #C8D5F4",
"- c #C8D5F5",
"; c #C9D6F6",
": c #C9D6F7",
"> c #CDD9F3",
", c #CBD7F8",
"< c #CBD8F8",
"1 c #CCD8F9",
"2 c #CCD9FB",
"3 c #CEDBFB",
"4 c #CEDAFC",
"5 c #CFDBFD",
"6 c #CFDCFE",
"7 c #D5DEF3",
"8 c #D0DBF8",
"9 c #D0DCFD",
"0 c #D1DDFD",
"q c #D1DDFE",
"w c #D0DDFF",
"e c #D1DEFF",
"r c #D2DEFE",
"t c #D2DEFF",
"y c #D3DFFF",
"u c #D4DFFF",
"i c #D7E1F9",
"p c #DBE4FA",
"a c #D8E3FF",
"s c #DAE4FD",
"d c #DBE5FF",
"f c #DEE7FE",
"g c #E3E7EA",
"h c #E9EDF3",
"j c #EDEFF3",
"k c #EAEEF6",
"l c #E3EAFA",
"z c #E2EAFF",
"x c #E4EBFF",
"c c #E6ECFD",
"v c #E5ECFF",
"b c #E6EDFF",
"n c #EAEFFA",
"m c #E9EFFF",
"M c #EEF3FF",
"N c #EFF3FF",
"B c #F0F2F4",
"V c #F5F6F6",
"C c #F0F3F8",
"Z c #F5F7F8",
"A c #F3F6FD",
"S c #F0F4FF",
"D c #F4F7FE",
"F c #F7F9FE",
"G c #F8F9F8",
"H c #FAFBFB",
"J c #FBFCFF",
"K c #FCFCFC",
"L c #FCFCFD",
"P c #FCFDFD",
"I c #FDFDFD",
"U c #FDFDFE",
"Y c #FCFDFF",
"T c #FDFEFE",
"R c #FEFEFE",
"E c #FFFFFE",
"W c #FFFFFF",
/* pixels */
"                         ",
"                         ",
"                         ",
"                         ",
"        FKKKl4qmD        ",
"       qMKH   3qxK       ",
"       qMH     <cK       ",
"       qSV     kJK       ",
"       qdcj   %SKK       ",
"       OpSK7.#qzng       ",
"        CKKi*3qq8        ",
"       qMKZ   <6xK       ",
"       qMB     =cK       ",
"       qa>     hKK       ",
"       qq4#   #dzf       ",
"       O3uq*+*qq3.       ",
"         =======         ",
"                         ",
"                         ",
"                         ",
"                         ",
"                         ",
"                         ",
"                         ",
"                         "
};
