/* XPM */
static char *_7[] = {
/* columns rows colors chars-per-pixel */
"25 25 70 1 ",
"  c None",
". c #BBC8E7",
"X c #BCC9E7",
"o c #BCCBE9",
"O c #BDCBEA",
"+ c #C2D0EF",
"@ c #C4D1F1",
"# c #C6D3F3",
"$ c #C6D4F3",
"% c #C6D3F4",
"& c #C7D4F4",
"* c #C8D5F5",
"= c #CAD7F7",
"- c #CEDAF7",
"; c #C8D5F8",
": c #CBD7F8",
"> c #CBD8F8",
", c #CCD9FB",
"< c #CDDAFA",
"1 c #CDDAFB",
"2 c #CEDAFB",
"3 c #CEDBFB",
"4 c #CFDBFC",
"5 c #CFDBFD",
"6 c #D6DFF4",
"7 c #D0DCFC",
"8 c #D0DCFD",
"9 c #D1DDFE",
"0 c #D0DCFF",
"q c #D1DDFF",
"w c #D2DEFE",
"e c #D2DEFF",
"r c #D3DFFF",
"t c #D4DFFD",
"y c #D6E0F9",
"u c #D4E0FF",
"i c #D8E2FD",
"p c #DDE6FF",
"a c #DFE8FF",
"s c #E3E8F4",
"d c #E0E8FB",
"f c #E2EAFF",
"g c #E3EBFF",
"h c #E5ECFC",
"j c #E5ECFF",
"k c #E9EFFF",
"l c #EFF1F5",
"z c #EDF2FF",
"x c #EEF3FF",
"c c #EFF4FF",
"v c #F5F7F7",
"b c #F2F5FB",
"n c #F1F5FF",
"m c #F3F6FF",
"M c #F4F7FF",
"N c #F7F9FC",
"B c #F7FAFF",
"V c #F8F8F8",
"C c #F9FAFB",
"Z c #FAFBFD",
"A c #F9FBFF",
"S c #FCFCFC",
"D c #FCFCFD",
"F c #FCFDFD",
"G c #FDFDFD",
"H c #FCFDFE",
"J c #FDFDFE",
"K c #FFFFFE",
"L c #FEFFFF",
"P c #FFFFFF",
/* pixels */
"                         ",
"                         ",
"                         ",
"                         ",
"         CSSAmmb         ",
"        NSSSh5wzN        ",
"       wzSS   wwhS       ",
"       wmC     ;fS       ",
"       wp6     sAS       ",
"       ww,.   XdMS       ",
"       =wuwO OwwfS       ",
"        @5,,,,,tkS       ",
"               lSA       ",
"        #5>   vSmi       ",
"        >ww>#-afy        ",
"         =wtuww%         ",
"          &&$&#          ",
"                         ",
"                         ",
"                         ",
"                         ",
"                         ",
"                         ",
"                         ",
"                         "
};
