/* XPM */
static char *_8[] = {
/* columns rows colors chars-per-pixel */
"25 25 40 1 ",
"  c None",
". c #C1CFEE",
"X c #C7D4F6",
"o c #C9D6F6",
"O c #CAD7F9",
"+ c #CBD8F9",
"@ c #CEDAFB",
"# c #CEDBFB",
"$ c #D0DCFD",
"% c #D0DDFD",
"& c #D1DDFE",
"* c #D1DDFF",
"= c #D1DEFF",
"- c #D2DEFE",
"; c #D2DEFF",
": c #D3DFFF",
"> c #D6E1FF",
", c #D8E2FA",
"< c #DDE6FF",
"1 c #DFE7FF",
"2 c #E1E9FF",
"3 c #E3EAFF",
"4 c #E8EEFF",
"5 c #E9EFFF",
"6 c #ECF0F9",
"7 c #F4F5F7",
"8 c #F6F7F7",
"9 c #F0F4FE",
"0 c #F0F4FF",
"q c #F1F5FF",
"w c #F4F7FF",
"e c #F7F9FF",
"r c #F9F9FA",
"t c #FBFCFA",
"y c #FBFCFF",
"u c #FDFDFD",
"i c #FEFEFE",
"p c #FEFEFF",
"a c #FEFFFF",
"s c #FFFFFF",
/* pixels */
"                         ",
"                         ",
"                         ",
"                         ",
"           sss           ",
"         *3yssss         ",
"         *><0sss         ",
"          O*<46          ",
"           o+X           ",
"                         ",
"                         ",
"           8r8           ",
"          ,4est          ",
"         ***30w0         ",
"         #*****#         ",
"          .***.          ",
"                         ",
"                         ",
"                         ",
"                         ",
"                         ",
"                         ",
"                         ",
"                         ",
"                         "
};
