/* XPM */
static char *_9[] = {
/* columns rows colors chars-per-pixel */
"25 25 47 1 ",
"  c None",
". c #C4D1F0",
"X c #C6D3F2",
"o c #C8D5F5",
"O c #C9D6F5",
"+ c #CBD8F8",
"@ c #CCD8F9",
"# c #CDDAFA",
"$ c #CEDAFB",
"% c #CFDBFB",
"& c #CEDBFC",
"* c #CFDBFC",
"= c #CFDBFD",
"- c #D0DCFD",
"; c #D1DDFE",
": c #D0DDFF",
"> c #D1DEFF",
", c #D2DEFF",
"< c #D6E1FC",
"1 c #D5E0FF",
"2 c #DCE5FF",
"3 c #DDE6FF",
"4 c #E3EBFF",
"5 c #E9EFFD",
"6 c #E8EEFF",
"7 c #EAF0FF",
"8 c #EEF2FF",
"9 c #F2F4F5",
"0 c #F6F7F8",
"q c #F0F4FD",
"w c #F0F4FF",
"e c #F3F7FF",
"r c #F5F7FF",
"t c #F7F8F8",
"y c #F7F8F9",
"u c #FAFAFB",
"i c #F9FAFD",
"p c #F9FAFF",
"a c #F9FBFF",
"s c #FCFDFC",
"d c #FCFCFD",
"f c #FCFDFD",
"g c #FDFDFD",
"h c #FDFDFE",
"j c #FEFEFE",
"k c #FEFEFF",
"l c #FFFFFF",
/* pixels */
"                         ",
"                         ",
"                         ",
"           ddd           ",
"          5dddd          ",
"         ;38addd         ",
"         %=;4ray         ",
"           %;%           ",
"                         ",
"                         ",
"           yu0           ",
"         o<4edd9         ",
"         ;;;37ad         ",
"         X%;;<ed         ",
"           o&<5e         ",
"            .;;+         ",
"         %;;;&           ",
"                         ",
"                         ",
"                         ",
"                         ",
"                         ",
"                         ",
"                         ",
"                         "
};
