/* XPM */
static char *_0[] = {
/* columns rows colors chars-per-pixel */
"25 25 31 1 ",
"  c None",
". c #BAC8E6",
"X c #BCC9E9",
"o c #C7D4F4",
"O c #C9D6F6",
"+ c #CAD7F7",
"@ c #CAD7F9",
"# c #CCD8F8",
"$ c #CDDAFA",
"% c #CEDBFB",
"& c #CEDBFC",
"* c #CFDBFC",
"= c #D0DCFA",
"- c #D0DCFD",
"; c #D1DDFE",
": c #D1DEFE",
"> c #D2DEFF",
", c #D3DFFF",
"< c #E5E8EC",
"1 c #E1E9FF",
"2 c #EAEFFB",
"3 c #EEF0F2",
"4 c #F3F6FE",
"5 c #F6F8F8",
"6 c #F7F8F9",
"7 c #FBFBFC",
"8 c #FCFCFC",
"9 c #FCFDFD",
"0 c #FDFDFE",
"q c #FEFEFE",
"w c #FFFFFF",
/* pixels */
"                         ",
"                         ",
"                         ",
"                         ",
"              7888       ",
"             88886       ",
"            8888         ",
"          68886          ",
"         =4883           ",
"        &,12<            ",
"        &,,@             ",
"         $,,,X           ",
"          o,,,+          ",
"           .,,,&         ",
"             $,,,        ",
"              +,,$       ",
"               +$        ",
"                         ",
"                         ",
"                         ",
"                         ",
"                         ",
"                         ",
"                         ",
"                         "
};
