/* XPM */
static char *_1[] = {
/* columns rows colors chars-per-pixel */
"25 25 24 1 ",
"  c None",
". c #C9D6F6",
"X c #C9D6F8",
"o c #CAD7F9",
"O c #CBD8F9",
"+ c #CCD8FA",
"@ c #CDD9FA",
"# c #CDDAFA",
"$ c #CEDBFB",
"% c #CDDAFD",
"& c #CEDBFC",
"* c #CFDBFC",
"= c #D0DCFD",
"- c #D3DFFF",
"; c #D7E1FF",
": c #DEE6FC",
"> c #DDE6FF",
", c #E0E9FF",
"< c #E2EAFF",
"1 c #F8FAFD",
"2 c #F8FAFF",
"3 c #FCFCFF",
"4 c #FCFDFF",
"5 c #FDFDFF",
/* pixels */
"                         ",
"                         ",
"                         ",
"                         ",
"                         ",
"       &>233333332       ",
"       &;<<<<<<<<>       ",
"        @ooooooo@        ",
"                         ",
"                         ",
"                         ",
"       .=&&@@@&&=.       ",
"       @===;=-===@       ",
"       .=&&&@@&&=.       ",
"                         ",
"                         ",
"                         ",
"                         ",
"                         ",
"                         ",
"                         ",
"                         ",
"                         ",
"                         ",
"                         "
};
