/* XPM */
static char *_2[] = {
/* columns rows colors chars-per-pixel */
"25 25 56 1 ",
"  c None",
". c #BCC9E6",
"X c #BFCCEC",
"o c #C4D1F2",
"O c #C7D4F4",
"+ c #C8D5F7",
"@ c #C9D6F6",
"# c #CCD8F8",
"$ c #CCD8F9",
"% c #CFDBFA",
"& c #CEDBFB",
"* c #CEDBFD",
"= c #D0DDFE",
"- c #D1DDFE",
"; c #D1DDFF",
": c #D2DEFF",
"> c #D3DFFF",
", c #D4DFFD",
"< c #D4DFFF",
"1 c #D5E0FF",
"2 c #D8E2FA",
"3 c #DCE5FB",
"4 c #D9E2FC",
"5 c #DAE4FE",
"6 c #DBE5FF",
"7 c #DCE5FF",
"8 c #DCE6FF",
"9 c #E2E5E9",
"0 c #E2EAFC",
"q c #E0E8FF",
"w c #E1E9FF",
"e c #E1EAFF",
"r c #E2EAFF",
"t c #E9EEFE",
"y c #EAEFFE",
"u c #ECF1FF",
"i c #EFF4FF",
"p c #F4F6F7",
"a c #F1F4FF",
"s c #F1F5FF",
"d c #F2F5FE",
"f c #F6F7FC",
"g c #F4F7FF",
"h c #F7F8FA",
"j c #F9FAF8",
"k c #FAFAF9",
"l c #F8F9FC",
"z c #FBFBFC",
"x c #F9FBFE",
"c c #FAFCFF",
"v c #FCFDFF",
"b c #FDFEFF",
"n c #FEFEFE",
"m c #FFFFFE",
"M c #FEFEFF",
"N c #FFFFFF",
/* pixels */
"                         ",
"                         ",
"                         ",
"                         ",
"       *6df              ",
"       $><ux             ",
"         >>rx            ",
"          $18dj          ",
"           o>8th         ",
"            X3dMr        ",
"             jMi4        ",
"           9MMt$         ",
"          pMcrO          ",
"         xMf6.           ",
"        <rr2             ",
"       $>>+              ",
"        $+               ",
"                         ",
"                         ",
"                         ",
"                         ",
"                         ",
"                         ",
"                         ",
"                         "
};
