/* XPM */
static char *_3[] = {
/* columns rows colors chars-per-pixel */
"25 25 58 1 ",
"  c None",
". c #B8C7E7",
"X c #BFCDEB",
"o c #BFCCEE",
"O c #BFCDEE",
"+ c #C4D2F3",
"@ c #CBD7F5",
"# c #CAD7F7",
"$ c #C8D6F9",
"% c #CAD7F9",
"& c #CBD8F8",
"* c #CBD8FA",
"= c #CEDAFB",
"- c #CEDBFB",
"; c #CEDAFC",
": c #D5DEF6",
"> c #D0DCFD",
", c #D1DDFE",
"< c #D1DEFF",
"1 c #D2DEFE",
"2 c #D2DEFF",
"3 c #D3DFFF",
"4 c #D8E1F8",
"5 c #D8E3FF",
"6 c #D9E4FF",
"7 c #DBE5FF",
"8 c #DFE7FE",
"9 c #E8EAEB",
"0 c #E9ECED",
"q c #E5EAF4",
"w c #E1E8FD",
"e c #E2E9FE",
"r c #E2EAFF",
"t c #E3EBFF",
"y c #E7EDFD",
"u c #E5ECFF",
"i c #E7EEFF",
"p c #E8EEFF",
"a c #EEF0F2",
"s c #EDF1F7",
"d c #ECF0FD",
"f c #EDF2FF",
"g c #EFF3FF",
"h c #EFF4FF",
"j c #F3F4F4",
"k c #F0F4FF",
"l c #F1F5FF",
"z c #FAFAF9",
"x c #F8F9FA",
"c c #FAFBFA",
"v c #FAFBFF",
"b c #FBFCFD",
"n c #FEFEFD",
"m c #FDFDFE",
"M c #FDFEFF",
"N c #FEFEFE",
"B c #FEFEFF",
"V c white",
/* pixels */
"                         ",
"                         ",
"                         ",
"          NNNNN          ",
"        xNNNf66lx        ",
"       1lNN   15yb       ",
"       1hx     $eN       ",
"       17:     qvN       ",
"              aye7       ",
"           0jsy5&        ",
"          @epeX.         ",
"          11$            ",
"          oo             ",
"           9             ",
"         4fNx            ",
"        =11plf           ",
"         =11;+           ",
"          @&             ",
"                         ",
"                         ",
"                         ",
"                         ",
"                         ",
"                         ",
"                         "
};
