/* XPM */
static char *_4[] = {
/* columns rows colors chars-per-pixel */
"25 25 44 1 ",
"  c None",
". c #C1CEEF",
"X c #C2D0EF",
"o c #C3D0F0",
"O c #C3D1F0",
"+ c #C4D1F0",
"@ c #C4D1F1",
"# c #C4D2F1",
"$ c #C5D2F2",
"% c #C6D3F3",
"& c #C6D4F3",
"* c #C7D4F4",
"= c #C8D4F4",
"- c #C8D5F5",
"; c #C9D6F6",
": c #CAD7F7",
"> c #CBD7F7",
", c #CEDAF7",
"< c #CAD6F8",
"1 c #CBD7F8",
"2 c #CBD8F8",
"3 c #CCD8F9",
"4 c #CDD9FA",
"5 c #CDDAFA",
"6 c #CDDAFB",
"7 c #CEDAFB",
"8 c #CFDAFB",
"9 c #CEDBFB",
"0 c #CFDBFB",
"q c #CFDBFC",
"w c #CFDCFC",
"e c #CFDCFE",
"r c #D0DAF1",
"t c #D0DCFC",
"y c #D0DCFD",
"u c #D3DEFC",
"i c #D9E2F8",
"p c #DEE7FE",
"a c #E7EAED",
"s c #F1F4F7",
"d c #F3F6FA",
"f c #F6F8FC",
"g c #F9F9FA",
"h c #FAFBFC",
/* pixels */
"                         ",
"                         ",
"                         ",
"                         ",
"         fy77qqw         ",
"       dg       77       ",
"      y,  hpw2   2y      ",
"      y* 7    7  :y      ",
"      y*      y  :y      ",
"      y&  ar.:y  *w      ",
"      q@  si<7y  @q      ",
"      q@ y    y  @q      ",
"      7@ 7    7  @7      ",
"      q@  7qw: 7y*       ",
"       :o                ",
"        @@oXXo@@         ",
"         2<::<27         ",
"                         ",
"                         ",
"                         ",
"                         ",
"                         ",
"                         ",
"                         ",
"                         "
};
