/* XPM */
static char *_5[] = {
/* columns rows colors chars-per-pixel */
"25 25 65 1 ",
"  c None",
". c #B1C2E3",
"X c #C1CFF2",
"o c #C3D0F0",
"O c #C3D2F3",
"+ c #C7D3F0",
"@ c #C5D2F2",
"# c #C5D4F5",
"$ c #C7D5F6",
"% c #C8D5F5",
"& c #C9D6F6",
"* c #CDD8F0",
"= c #CBD8F9",
"- c #CCD9F9",
"; c #CCD9FA",
": c #CDD9FA",
"> c #CDDAFA",
", c #CEDAFA",
"< c #CFDBFB",
"1 c #CEDBFD",
"2 c #D5DEF0",
"3 c #D0DCFD",
"4 c #D1DDFF",
"5 c #D2DEFE",
"6 c #D2DEFF",
"7 c #D3DFFF",
"8 c #D6E1FF",
"9 c #D7E2FF",
"0 c #D8E2F9",
"q c #DCE4FA",
"w c #DCE5FB",
"e c #D8E2FF",
"r c #D9E3FF",
"t c #DCE6FF",
"y c #DEE7FF",
"u c #DFE8FE",
"i c #DFE8FF",
"p c #E7EBF1",
"a c #EDEFF0",
"s c #E0E9FF",
"d c #E1E9FF",
"f c #E5EBFC",
"g c #E5ECFF",
"h c #E9EEFE",
"j c #EEF0F1",
"k c #EAF0FF",
"l c #F0F2F2",
"z c #F0F3F3",
"x c #F2F4F5",
"c c #F3F5F6",
"v c #F2F6FF",
"b c #F3F6FF",
"n c #F8F9FA",
"m c #FAFBFB",
"M c #F9FBFF",
"N c #FAFBFF",
"B c #FAFCFF",
"V c #FEFEFD",
"C c #FCFDFF",
"Z c #FDFDFF",
"A c #FEFEFE",
"S c #FFFFFE",
"D c #FEFEFF",
"F c #FEFFFF",
"G c #FFFFFF",
/* pixels */
"                         ",
"                         ",
"                         ",
"                         ",
"          GGMbb          ",
"         tBGf1eM         ",
"         GG   9M         ",
"        uGG   9MG        ",
"       $tGG   bGGc       ",
"       OuGG2.*kkMl       ",
"       XtGGs4444bl       ",
"       +gGn0=::4ba       ",
"       pGn     :bj       ",
"      $hGn     :bGc      ",
"      :rst     :tsq      ",
"      :441     444:      ",
"      O&&@     @&&O      ",
"                         ",
"                         ",
"                         ",
"                         ",
"                         ",
"                         ",
"                         ",
"                         "
};
