/* XPM */
static char *_6[] = {
/* columns rows colors chars-per-pixel */
"25 25 70 1 ",
"  c None",
". c #BCCAEB",
"X c #BDCCED",
"o c #C4D1F2",
"O c #C5D2F3",
"+ c #C6D3F2",
"@ c #C6D3F3",
"# c #C6D3F5",
"$ c #C7D4F4",
"% c #C7D4F6",
"& c #C8D5F3",
"* c #C8D5F4",
"= c #C8D5F5",
"- c #C9D5F5",
"; c #C9D6F5",
": c #C9D6F7",
"> c #CAD6F6",
", c #CAD6F7",
"< c #CAD7F7",
"1 c #CDD9F6",
"2 c #C9D6F8",
"3 c #CCD9FB",
"4 c #CEDBFC",
"5 c #CFDBFC",
"6 c #CFDCFC",
"7 c #CFDCFE",
"8 c #D0DCFE",
"9 c #D1DDFE",
"0 c #D1DEFF",
"q c #D2DEFF",
"w c #D2DFFF",
"e c #D3DFFF",
"r c #D4DFFF",
"t c #D8E0F1",
"y c #D9E1F2",
"u c #DEE5F5",
"i c #D4E0FF",
"p c #DAE3FC",
"a c #DAE4FD",
"s c #DEE7FE",
"d c #E8ECF3",
"f c #E8ECF4",
"g c #EBEFF5",
"h c #E1E9FF",
"j c #E2E9FF",
"k c #E2EAFF",
"l c #E5EBFC",
"z c #E4EBFF",
"x c #E5ECFF",
"c c #E6EDFF",
"v c #EBF1FF",
"b c #F3F5F5",
"n c #F4F5F6",
"m c #F3F6FD",
"M c #F3F6FF",
"N c #FCFCFB",
"B c #FAFBFC",
"V c #F8FAFF",
"C c #F9FBFF",
"Z c #FBFCFC",
"A c #FBFCFD",
"S c #FBFCFF",
"D c #FCFDFD",
"F c #FDFDFD",
"G c #FDFDFE",
"H c #FCFDFF",
"J c #FDFEFE",
"K c #FDFEFF",
"L c #FEFEFF",
"P c #FFFFFF",
/* pixels */
"                         ",
"                         ",
"                         ",
"                         ",
"       qcCFFCMMMM        ",
"       5qhFFl56qlF       ",
"        2hA    ,cF       ",
"        %hC    fAF       ",
"        #hFbto&MN        ",
"        #hFFvqqu         ",
"        #hFnt,qX         ",
"        #hC   ,qlF       ",
"        ,cC    $cF       ",
"        fFA    dFF       ",
"       ,ahs1oo,phs       ",
"       qqqqqiiiq3.       ",
"       %,%oooo$,         ",
"                         ",
"                         ",
"                         ",
"                         ",
"                         ",
"                         ",
"                         ",
"                         "
};
