/* XPM */
static char *_7[] = {
/* columns rows colors chars-per-pixel */
"25 25 59 1 ",
"  c None",
". c #BFCCEB",
"X c #C7D4F4",
"o c #C8D5F5",
"O c #C9D6F6",
"+ c #C9D6F7",
"@ c #CAD7F8",
"# c #CBD7F8",
"$ c #CBD8F8",
"% c #CCD9F9",
"& c #CDD9FA",
"* c #CDDAFA",
"= c #CEDAFA",
"- c #CFDBFB",
"; c #CEDAFC",
": c #CFDCFC",
"> c #CFDCFD",
", c #D1DCF7",
"< c #D0DCFC",
"1 c #D0DCFD",
"2 c #D1DDFD",
"3 c #D0DCFE",
"4 c #D1DDFE",
"5 c #D2DDFE",
"6 c #D2DEFE",
"7 c #D2DEFF",
"8 c #D3DFFF",
"9 c #D6E1FF",
"0 c #D9E2FC",
"q c #D9E3FE",
"w c #D8E2FF",
"e c #DBE4FC",
"r c #DCE6FE",
"t c #E3EBFF",
"y c #E4EBFF",
"u c #EDF2FF",
"i c #EEF2FF",
"p c #EEF3FF",
"a c #EFF3FF",
"s c #EFF4FF",
"d c #F3F5F5",
"f c #F4F5F5",
"g c #F5F6F6",
"h c #F4F6F7",
"j c #F6F7F7",
"k c #F6F8F7",
"l c #F3F5FA",
"z c #F3F6FD",
"x c #F0F4FF",
"c c #F3F6FF",
"v c #F7F9FC",
"b c #F6F8FD",
"n c #F6F8FF",
"m c #FAFBFE",
"M c #FBFCFE",
"N c #FDFEFE",
"B c #FFFFFE",
"V c #FEFFFF",
"C c white",
/* pixels */
"                         ",
"                         ",
"                         ",
"                         ",
"        nVVnccccc        ",
"       4pVn0;:44yV       ",
"       4pk     +tM       ",
"       4sf     +90       ",
"       4sd               ",
"       4sf               ",
"       4sf               ",
"       4cf               ",
"       4pf     *tm       ",
"       40,     lp0       ",
"       44:$$***re        ",
"       .;444444@         ",
"         +XX+++          ",
"                         ",
"                         ",
"                         ",
"                         ",
"                         ",
"                         ",
"                         ",
"                         "
};
