/* XPM */
static char *_8[] = {
/* columns rows colors chars-per-pixel */
"25 25 64 1 ",
"  c None",
". c #C6D3F2",
"X c #C6D3F3",
"o c #C6D4F3",
"O c #C5D3F4",
"+ c #C5D3F5",
"@ c #C7D4F4",
"# c #C7D5F4",
"$ c #C6D4F5",
"% c #C7D4F5",
"& c #C6D4F6",
"* c #C7D4F6",
"= c #C8D6F5",
"- c #C9D6F6",
"; c #C9D6F7",
": c #CAD7F7",
"> c #CDD9F5",
", c #C9D6F8",
"< c #CFDBF8",
"1 c #CFDBFC",
"2 c #CFDBFD",
"3 c #CFDCFC",
"4 c #D0DCFE",
"5 c #D1DDFF",
"6 c #D1DEFF",
"7 c #D2DEFF",
"8 c #D3DFFF",
"9 c #D7E1FA",
"0 c #D4E0FF",
"q c #D8E2FD",
"w c #DBE4FD",
"e c #DEE7FE",
"r c #DFE8FF",
"t c #E1E9FF",
"y c #E2EAFF",
"u c #E5EBFC",
"i c #E4EBFF",
"p c #E5ECFF",
"a c #E6EDFF",
"s c #E9EFFF",
"d c #ECF0F6",
"f c #EDF2FF",
"g c #F1F3F6",
"h c #F2F5FB",
"j c #F1F5FF",
"k c #F3F6FF",
"l c #F7F8F9",
"z c #F7F9FC",
"x c #FAFBFC",
"c c #FAFBFD",
"v c #FBFBFD",
"b c #F8FAFF",
"n c #F9FBFF",
"m c #FBFCFD",
"M c #FCFCFD",
"N c #FCFDFD",
"B c #FDFDFD",
"V c #FCFDFE",
"C c #FDFDFE",
"Z c #FCFDFF",
"A c #FDFEFF",
"S c #FFFFFE",
"D c #FEFEFF",
"F c #FFFFFF",
/* pixels */
"                         ",
"                         ",
"                         ",
"                         ",
"       7anBBnkkh         ",
"       17tBBu17fz        ",
"        ,tm   37aB       ",
"        &tn    ;uB       ",
"        &tn    OaB       ",
"        &tn    OuB       ",
"        &tn    OtB       ",
"        &tn    >sB       ",
"        ;um    gBn       ",
"        dBB   lBkq       ",
"       ;wte<&4rt9        ",
"       77777077&         ",
"       &;&XXXoX          ",
"                         ",
"                         ",
"                         ",
"                         ",
"                         ",
"                         ",
"                         ",
"                         "
};
