/* XPM */
static char *_0[] = {
/* columns rows colors chars-per-pixel */
"25 25 49 1 ",
"  c None",
". c #C2CFEE",
"X c #C5D2F3",
"o c #C6D4F4",
"O c #C7D4F4",
"+ c #C8D5F5",
"@ c #C9D5F5",
"# c #C9D6F6",
"$ c #CAD7F7",
"% c #CED9F2",
"& c #CFDAF4",
"* c #C9D6F8",
"= c #CCD8F8",
"- c #CCD8F9",
"; c #CCD9F9",
": c #CEDBFC",
"> c #D6DFF6",
", c #D0DCFC",
"< c #D0DCFD",
"1 c #D1DDFD",
"2 c #D1DDFE",
"3 c #D2DEFE",
"4 c #D2DEFF",
"5 c #D2DFFF",
"6 c #D3DFFF",
"7 c #D9E2FC",
"8 c #DCE5FF",
"9 c #DDE7FF",
"0 c #EBEFF3",
"q c #ECEFF4",
"w c #EEF2FF",
"e c #EEF3FF",
"r c #EFF3FF",
"t c #EFF4FF",
"y c #F0F2F2",
"u c #F1F3F3",
"i c #F2F3F4",
"p c #F2F4F4",
"a c #F5F6F6",
"s c #F0F4FF",
"d c #F2F6FF",
"f c #F3F6FF",
"g c #F7F9FC",
"h c #F6F8FF",
"j c #FDFDFC",
"k c #FDFEFF",
"l c #FFFFFE",
"z c #FEFFFF",
"x c white",
/* pixels */
"                         ",
"                         ",
"                         ",
"                         ",
"       2wzzhffffff       ",
"       2wzh7:22222       ",
"       2ta               ",
"       2fi               ",
"       2wz0&XOO#         ",
"       2wzz92222-        ",
"       2wjq&O##-         ",
"       2fy               ",
"       2fy               ",
"       2fp               ",
"       29>               ",
"       22*               ",
"       #-.               ",
"                         ",
"                         ",
"                         ",
"                         ",
"                         ",
"                         ",
"                         ",
"                         "
};
