/* XPM */
static char *_1[] = {
/* columns rows colors chars-per-pixel */
"25 25 68 1 ",
"  c None",
". c #BAC8E7",
"X c #BCCAEA",
"o c #BECBEA",
"O c #BECCEA",
"+ c #C1CEEE",
"@ c #D0D8EC",
"# c #C6D3F3",
"$ c #C6D4F3",
"% c #C6D4F4",
"& c #C7D4F4",
"* c #C6D4F5",
"= c #C9D5F6",
"- c #CBD8F6",
"; c #CBD8F8",
": c #CCD8F9",
"> c #CCD9F9",
", c #CFDBF8",
"< c #CEDAFB",
"1 c #CFDBFD",
"2 c #D0DCFC",
"3 c #D0DCFD",
"4 c #D1DDFD",
"5 c #D1DDFE",
"6 c #D1DDFF",
"7 c #D2DEFE",
"8 c #D2DEFF",
"9 c #D3DEFF",
"0 c #D3DFFF",
"q c #D4DFFE",
"w c #D4DFFF",
"e c #D7E0F9",
"r c #D5E0FF",
"t c #D6E1FF",
"y c #D8E2FD",
"u c #DAE4FE",
"i c #DFE8FF",
"p c #E2EAFF",
"a c #E4EBFF",
"s c #E5ECFC",
"d c #E9EFFF",
"f c #ECF0F5",
"g c #EFF2F6",
"h c #EBF0FF",
"j c #EDF2FF",
"k c #EEF3FF",
"l c #EFF3FF",
"z c #EFF4FF",
"x c #F3F5F5",
"c c #F4F5F5",
"v c #F2F5FB",
"b c #F6F7F8",
"n c #F0F4FF",
"m c #F1F5FF",
"M c #F3F6FF",
"N c #F7F8F8",
"B c #F7F9FC",
"V c #F9FAFB",
"C c #FAFBFD",
"Z c #F9FBFF",
"A c #FBFCFE",
"S c #FCFCFC",
"D c #FCFDFD",
"F c #FDFDFD",
"G c #FDFDFE",
"H c #FFFFFE",
"J c #FEFEFF",
"K c #FFFFFF",
/* pixels */
"                         ",
"                         ",
"                         ",
"                         ",
"         VSSZMMv         ",
"        BSSSs17jB        ",
"       7jSS   77aA       ",
"       7zV     ;ru       ",
"       7Mx               ",
"       7Mx   oOo@        ",
"       7Mc  +q77aS       ",
"       7jf  .<<qdS       ",
"       7r-     fSZ       ",
"       777<   bSMy       ",
"        <77;*<ipe        ",
"         =7qr77*         ",
"          $*#*#          ",
"                         ",
"                         ",
"                         ",
"                         ",
"                         ",
"                         ",
"                         ",
"                         "
};
