/* XPM */
static char *_2[] = {
/* columns rows colors chars-per-pixel */
"25 25 63 1 ",
"  c None",
". c #C1CEEE",
"X c #C4D2F3",
"o c #C5D3F4",
"O c #C6D3F4",
"+ c #C7D4F4",
"@ c #C7D4F5",
"# c #C8D5F4",
"$ c #C8D5F5",
"% c #C9D6F7",
"& c #CAD7F7",
"* c #CBD8F7",
"= c #C9D7F8",
"- c #CCD8F8",
"; c #CCD9FA",
": c #CCD9FC",
"> c #CDDAFC",
", c #CEDBFD",
"< c #CFDCFE",
"1 c #D0DAF4",
"2 c #D3DEF7",
"3 c #D5DFF5",
"4 c #D0DCFD",
"5 c #D1DDFD",
"6 c #D1DDFE",
"7 c #D0DDFF",
"8 c #D2DDFE",
"9 c #D2DEFE",
"0 c #D2DEFF",
"q c #D3DFFF",
"w c #D8E3FF",
"e c #DCE5FD",
"r c #DEE6FD",
"t c #DCE5FF",
"y c #DDE6FF",
"u c #E3EAFF",
"i c #E3EBFF",
"p c #E4EBFF",
"a c #E4ECFF",
"s c #E5ECFF",
"d c #EDF0F4",
"f c #EEF1F8",
"g c #EEF3FF",
"h c #EFF3FF",
"j c #F1F3F3",
"k c #F1F3F7",
"l c #F2F4F4",
"z c #F0F4FF",
"x c #F8F8F8",
"c c #FAFAFA",
"v c #FBFCFD",
"b c #FBFCFF",
"n c #FCFDFC",
"m c #FDFDFC",
"M c #FCFCFD",
"N c #FCFDFD",
"B c #FEFEFD",
"V c #FFFEFD",
"C c #FDFDFE",
"Z c #FDFEFE",
"A c #FDFEFF",
"S c #FEFEFF",
"D c white",
/* pixels */
"                         ",
"                         ",
"                         ",
"                         ",
"       6gn     ,un       ",
"       6gn     ,un       ",
"       6gc     ;an       ",
"       6gc     fvn       ",
"       6gnk2=&*ygn       ",
"       6gnny6q66un       ",
"       6gnd1O+&,pn       ",
"       6zj     Xan       ",
"       6zj     Xav       ",
"       6zk     Oan       ",
"       6y3     +wy       ",
"       66&     &6<       ",
"       &;.     .;&       ",
"                         ",
"                         ",
"                         ",
"                         ",
"                         ",
"                         ",
"                         ",
"                         "
};
