/* XPM */
static char *_3[] = {
/* columns rows colors chars-per-pixel */
"25 25 46 1 ",
"  c None",
". c #C6D3F3",
"X c #C7D4F4",
"o c #C8D5F5",
"O c #CAD7F7",
"+ c #CBD8F9",
"@ c #CCD8F9",
"# c #CEDAF9",
"$ c #CCD8FA",
"% c #CCD9FA",
"& c #CCD9FB",
"* c #CEDAFB",
"= c #CEDBFB",
"- c #CFDBFB",
"; c #CFDBFD",
": c #CFDCFC",
"> c #D0DCFC",
", c #D0DCFD",
"< c #D1DDFE",
"1 c #D1DEFF",
"2 c #D2DEFF",
"3 c #D3DFFF",
"4 c #DEE6FC",
"5 c #DCE5FE",
"6 c #DDE6FE",
"7 c #E1E9FF",
"8 c #E6EDFF",
"9 c #E9EFFF",
"0 c #EAF0FF",
"q c #EBF1FF",
"w c #F2F5FA",
"e c #F2F6FF",
"r c #F3F6FF",
"t c #F4F7FF",
"y c #F7F9FF",
"u c #F8F9F9",
"i c #F9F9FA",
"p c #F9FAFA",
"a c #FAFAFA",
"s c #FAFAFB",
"d c #FAFBFB",
"f c #FAFBFC",
"g c #F9FBFF",
"h c #FDFEFF",
"j c #FFFFFE",
"k c white",
/* pixels */
"                         ",
"                         ",
"                         ",
"                         ",
"       28trrgjjyrr       ",
"       :22229jg4;2       ",
"           %0u           ",
"           +0u           ",
"           +0u           ",
"           %0u           ",
"           %0u           ",
"           %0u           ",
"           %0u           ",
"           wju           ",
"       %%%%474%%%%       ",
"       22222222222       ",
"       OOOX...XOOO       ",
"                         ",
"                         ",
"                         ",
"                         ",
"                         ",
"                         ",
"                         ",
"                         "
};
