/* XPM */
static char *_4[] = {
/* columns rows colors chars-per-pixel */
"25 25 51 1 ",
"  c None",
". c #BECCED",
"X c #C0CEED",
"o c #C6D3F3",
"O c #C7D4F4",
"+ c #CBD7F1",
"@ c #C8D5F5",
"# c #C9D6F6",
"$ c #CFDAF7",
"% c #CCD9F9",
"& c #CFDBFA",
"* c #CEDAFB",
"= c #CEDBFD",
"- c #CFDCFC",
"; c #CFDCFD",
": c #D0DCFC",
"> c #D0DCFD",
", c #D0DDFD",
"< c #D1DDFD",
"1 c #D2DDFD",
"2 c #D1DDFE",
"3 c #D1DEFF",
"4 c #D2DEFE",
"5 c #D2DEFF",
"6 c #D3DEFF",
"7 c #D3DFFF",
"8 c #D7E1FC",
"9 c #D4E0FF",
"0 c #D8E2FD",
"q c #DDE6FF",
"w c #E0E8FF",
"e c #E1E9FF",
"r c #E6EDFF",
"t c #EAF0FF",
"y c #F1F3F6",
"u c #F4F5F5",
"i c #F5F6F6",
"p c #F3F5FA",
"a c #F0F4FF",
"s c #F1F5FF",
"d c #F2F6FF",
"f c #F3F6FF",
"g c #F4F7FF",
"h c #F8F8F8",
"j c #FBFBFC",
"k c #FAFBFD",
"l c #FBFCFF",
"z c #FDFDFD",
"x c #FFFFFE",
"c c #FEFEFF",
"v c #FFFFFF",
/* pixels */
"                         ",
"                         ",
"                         ",
"                         ",
"        =qffffglzz       ",
"        %777--7fzk       ",
"              7fh        ",
"              7fi        ",
"              7fi        ",
"              7fi        ",
"              7fi        ",
"       7tp    0gi        ",
"       79%    kzy        ",
"       777%  zzr$        ",
"        %77%0eq+         ",
"         #777=.          ",
"          oO#X           ",
"                         ",
"                         ",
"                         ",
"                         ",
"                         ",
"                         ",
"                         ",
"                         "
};
