/* XPM */
static char *_5[] = {
/* columns rows colors chars-per-pixel */
"25 25 48 1 ",
"  c None",
". c #ADBDD9",
"X c #B3C2E1",
"o c #BDCBEC",
"O c #BDCBED",
"+ c #BFCDED",
"@ c #BECCEE",
"# c #C2CFEF",
"$ c #C4D2F1",
"% c #C8D4F4",
"& c #CAD7F7",
"* c #CAD7FA",
"= c #CBD8F8",
"- c #CCD8F8",
"; c #CDD9FA",
": c #CEDAFB",
"> c #CEDBFB",
", c #CFDBFC",
"< c #D1DDFE",
"1 c #D0DDFF",
"2 c #D2DDFE",
"3 c #D2DEFF",
"4 c #D3DEFF",
"5 c #D3DFFF",
"6 c #D5E1FF",
"7 c #DBE5FF",
"8 c #DCE5FF",
"9 c #DEE6FE",
"0 c #E2E6E9",
"q c #E8EBEE",
"w c #E4EAFC",
"e c #E8EEFC",
"r c #EAF0FF",
"t c #F1F3F5",
"y c #F7F8F8",
"u c #F5F8FF",
"i c #F9FAFB",
"p c #FAFBFB",
"a c #FBFBFB",
"s c #FAFBFE",
"d c #FAFCFE",
"f c #FBFCFF",
"g c #FCFCFD",
"h c #FCFDFD",
"j c #FDFDFD",
"k c #FDFDFE",
"l c #FCFCFF",
"z c #FFFFFF",
/* pixels */
"                         ",
"                         ",
"                         ",
"                         ",
"       7f     jjj        ",
"       7f    jjjj        ",
"       7f   jjji         ",
"       7f  jjjt          ",
"       7fyijjq           ",
"      +7jjue0            ",
"      o7jjr-             ",
"      o7fiw33            ",
"      o9s X333$          ",
"      o9s  .333-         ",
"      +69    -33-        ",
"      #33     -33,       ",
"       &&      &--       ",
"                         ",
"                         ",
"                         ",
"                         ",
"                         ",
"                         ",
"                         ",
"                         "
};
