/* XPM */
static char *_6[] = {
/* columns rows colors chars-per-pixel */
"25 25 36 1 ",
"  c None",
". c #C7D3F3",
"X c #C7D4F4",
"o c #C8D4F5",
"O c #C8D5F5",
"+ c #C9D5F5",
"@ c #CAD6F6",
"# c #CBD7F7",
"$ c #CBD8F8",
"% c #CCD8F8",
"& c #CCD8F9",
"* c #CCD9F9",
"= c #CDDAFA",
"- c #CEDBFB",
"; c #D0DCFC",
": c #D0DCFD",
"> c #D1DDFD",
", c #D1DDFE",
"< c #D2DDFE",
"1 c #D2DEFE",
"2 c #D2DEFF",
"3 c #D3DFFF",
"4 c #DBE4FD",
"5 c #DCE5FF",
"6 c #EEF3FF",
"7 c #EFF3FF",
"8 c #EFF4FF",
"9 c #F7F7F7",
"0 c #F7F8F8",
"q c #F8F8F8",
"w c #F8F9F8",
"e c #F9F9F9",
"r c #FAFAF9",
"t c #FBFCFB",
"y c #FDFDFC",
"u c #FFFFFD",
/* pixels */
"                         ",
"                         ",
"                         ",
"                         ",
"       ,6y               ",
"       ,6y               ",
"       ,6t               ",
"       ,6r               ",
"       ,6r               ",
"       ,8r               ",
"       ,8r               ",
"       ,8r               ",
"       ,80               ",
"       ,89               ",
"       ,54----,,,,       ",
"       ,,,,,,,,,,,       ",
"       .OXXOOOOO-$       ",
"                         ",
"                         ",
"                         ",
"                         ",
"                         ",
"                         ",
"                         ",
"                         "
};
