/* XPM */
static char *_7[] = {
/* columns rows colors chars-per-pixel */
"25 25 62 1 ",
"  c None",
". c #B6C5E5",
"X c #B8C6E5",
"o c #BAC8E7",
"O c #D1D8E3",
"+ c #D3DAE3",
"@ c #C4D1F1",
"# c #C4D2F3",
"$ c #C5D3F4",
"% c #C6D3F4",
"& c #C7D4F6",
"* c #C8D5F7",
"= c #C9D6F6",
"- c #CAD7F8",
"; c #CBD7F8",
": c #CAD7F9",
"> c #CBD8FA",
", c #CCD8F9",
"< c #CEDAF8",
"1 c #CCD8FA",
"2 c #CDD9FA",
"3 c #CCD9FB",
"4 c #CDDAFA",
"5 c #CDDAFC",
"6 c #CEDAFC",
"7 c #CEDBFD",
"8 c #D2DEFE",
"9 c #D2DEFF",
"0 c #D3DFFF",
"q c #D9E2F8",
"w c #DAE3F9",
"e c #DAE4FF",
"r c #DEE7FF",
"t c #E1E9FE",
"y c #E0E8FF",
"u c #E3EAFF",
"i c #E3EBFF",
"p c #E4ECFF",
"a c #E8EEFF",
"s c #E9EFFF",
"d c #EAF0FF",
"f c #EDF2FF",
"g c #F2F3F3",
"h c #F2F4F4",
"j c #F4F5F6",
"k c #F6F7F7",
"l c #F0F4FD",
"z c #F8F8F8",
"x c #F9F9F8",
"c c #F8F9F9",
"v c #F9F9F9",
"b c #F9FAFB",
"n c #FAFAFA",
"m c #FBFCFC",
"M c #FBFCFF",
"N c #FDFDFC",
"B c #FDFDFD",
"V c #FCFDFE",
"C c #FEFEFE",
"Z c #FFFFFE",
"A c #FEFEFF",
"S c #FFFFFF",
/* pixels */
"                         ",
"                         ",
"                         ",
"                         ",
"      5aC       CCC      ",
"      5aCC     CCCM      ",
"      3aCCC   CCCCx      ",
"      >aCMylCCCCpfx      ",
"      :axO8ryyyO3ax      ",
"      :dg X585. @dx      ",
"      :dh  o=o  %dx      ",
"      :dh       %dx      ",
"      :dj       &dx      ",
"      :dj       =dx      ",
"      3eq       :eq      ",
"      38>       383      ",
"      @3@       @3@      ",
"                         ",
"                         ",
"                         ",
"                         ",
"                         ",
"                         ",
"                         ",
"                         "
};
