/* XPM */
static char *_8[] = {
/* columns rows colors chars-per-pixel */
"25 25 63 1 ",
"  c None",
". c #AABAD6",
"X c #B6C4E0",
"o c #B9C7E6",
"O c #BAC7E6",
"+ c #BFCDEB",
"@ c #C2D0EF",
"# c #C6D3F3",
"$ c #C4D2F6",
"% c #C7D4F5",
"& c #C8D5F5",
"* c #C9D6F7",
"= c #CAD6F6",
"- c #C9D6F8",
"; c #CBD8F8",
": c #CBD8FA",
"> c #CCD9FB",
", c #CEDAFB",
"< c #CDDAFD",
"1 c #CFDCFE",
"2 c #D4DDF3",
"3 c #D2DDFB",
"4 c #D0DCFC",
"5 c #D0DCFD",
"6 c #D0DDFD",
"7 c #D1DDFD",
"8 c #D1DDFE",
"9 c #D2DEFE",
"0 c #D2DEFF",
"q c #D3DFFF",
"w c #D9E1F3",
"e c #D6E1FF",
"r c #D7E2FF",
"t c #DDE6FD",
"y c #DCE6FF",
"u c #DFE8FF",
"i c #E0E5ED",
"p c #EDEFEF",
"a c #E4EAF9",
"s c #E3EBFF",
"d c #E4EBFF",
"f c #EAEFFC",
"g c #E9EFFF",
"h c #EEF0F0",
"j c #EEF0F1",
"k c #EEF2FF",
"l c #EEF3FF",
"z c #EFF3FF",
"x c #F0F1F2",
"c c #F1F3F7",
"v c #F0F4FF",
"b c #F2F5FF",
"n c #FAFAF9",
"m c #FCFCFD",
"M c #FCFDFD",
"N c #FDFDFD",
"B c #FCFDFE",
"V c #FDFDFE",
"C c #FDFEFE",
"Z c #FEFEFE",
"A c #FFFFFE",
"S c #FEFEFF",
"D c #FFFFFF",
/* pixels */
"                         ",
"                         ",
"                         ",
"                         ",
"       8lN     <sN       ",
"       8lNN    >sN       ",
"       8lNN    :dN       ",
"       8lNNN   -dN       ",
"       8lNNggp $sN       ",
"       8zni8ua wvN       ",
"       8vh *8>XcNN       ",
"       8vh #88qvNN       ",
"       8vh  o88lNN       ",
"       8vx   .8egN       ",
"       8y2    88ey       ",
"       88%    o>81       ",
"       *:+     o*#       ",
"                         ",
"                         ",
"                         ",
"                         ",
"                         ",
"                         ",
"                         ",
"                         "
};
