/* XPM */
static char *_9[] = {
/* columns rows colors chars-per-pixel */
"25 25 66 1 ",
"  c None",
". c #C6D3F5",
"X c #C7D4F4",
"o c #C8D5F5",
"O c #C8D5F7",
"+ c #C9D6F7",
"@ c #CAD6F6",
"# c #C8D5F8",
"$ c #CAD7F9",
"% c #CBD8F9",
"& c #CBD8FA",
"* c #CCD9F9",
"= c #CDD9F9",
"- c #CEDAF9",
"; c #CCD9FA",
": c #CDD9FA",
"> c #CCD9FB",
", c #CDDAFA",
"< c #CCDAFC",
"1 c #CDDAFC",
"2 c #CEDBFC",
"3 c #CFDBFC",
"4 c #CFDCFC",
"5 c #D3DDF6",
"6 c #D0DBFA",
"7 c #D0DCF8",
"8 c #D2DDF9",
"9 c #D0DCFD",
"0 c #D1DDFE",
"q c #D1DEFF",
"w c #D2DEFF",
"e c #D3DEFF",
"r c #D3DFFF",
"t c #D4E0FF",
"y c #DCE5FC",
"u c #DFE8FF",
"i c #E1E9FF",
"p c #E6EDFF",
"a c #E9EFFF",
"s c #EAEFFF",
"d c #EAF0FF",
"f c #EDF2FF",
"g c #EEF2FF",
"h c #EEF3FF",
"j c #F6F7F7",
"k c #F0F3F8",
"l c #F2F5FA",
"z c #F3F6FA",
"x c #F4F6F9",
"c c #F5F6F9",
"v c #F3F6FF",
"b c #F7F8F8",
"n c #F5F8FA",
"m c #F7F9FF",
"M c #F9F9F9",
"N c #F9FAF9",
"B c #F8F9FA",
"V c #FAFAFA",
"C c #FBFBFB",
"Z c #FBFBFC",
"A c #FBFCFD",
"S c #FCFCFC",
"D c #FCFDFC",
"F c #FFFFFE",
"G c #FEFEFF",
"H c #FFFFFF",
/* pixels */
"                         ",
"                         ",
"                         ",
"                         ",
"        BHHmvvvvz        ",
"       zHHAy<4eefn       ",
"      <aHZ     <edH      ",
"      <aB       $aH      ",
"      ;dj       odB      ",
"      %dj       odB      ",
"      %db       oaB      ",
"      %pk       8fB      ",
"      ;t;       xHx      ",
"      ;ee;     BHf8      ",
"       oee;;;;6ui5       ",
"        oeeeeeee.        ",
"         XoooooX         ",
"                         ",
"                         ",
"                         ",
"                         ",
"                         ",
"                         ",
"                         ",
"                         "
};
