/* XPM */
static char *_0[] = {
/* columns rows colors chars-per-pixel */
"25 25 63 1 ",
"  c None",
". c #B7C6E6",
"X c #B9C7E7",
"o c #C2CEE7",
"O c #C0CDEC",
"+ c #C0CDEE",
"@ c #CBD6F0",
"# c #C8D5F5",
"$ c #C8D5F6",
"% c #CBD8F8",
"& c #CCD8FA",
"* c #CCD9FA",
"= c #CDDAFA",
"- c #CEDAFB",
"; c #CEDAFC",
": c #D5DEF4",
"> c #D0DCFC",
", c #D0DCFD",
"< c #D1DDFD",
"1 c #D1DDFE",
"2 c #D1DDFF",
"3 c #D2DEFE",
"4 c #D2DEFF",
"5 c #D3DFFF",
"6 c #DEE3E9",
"7 c #D6E0FA",
"8 c #D4E0FF",
"9 c #D8E2FC",
"0 c #DFE7FC",
"q c #DCE6FF",
"w c #DDE6FF",
"e c #E8EDF7",
"r c #E1E9FE",
"t c #E6EDFF",
"y c #E9EEFF",
"u c #EFF1F0",
"i c #EBF1FF",
"p c #EDF2FF",
"a c #EEF2FF",
"s c #EEF3FF",
"d c #EFF3FF",
"f c #EFF4FF",
"g c #F1F3F3",
"h c #F2F3F4",
"j c #F2F4F4",
"k c #F6F7F6",
"l c #F2F5FB",
"z c #F5F6FA",
"x c #F0F4FF",
"c c #F3F6FF",
"v c #F7F9FC",
"b c #F6F8FF",
"n c #F6F9FF",
"m c #FAFBFA",
"M c #FBFCFF",
"N c #FFFFFC",
"B c #FFFFFD",
"V c #FCFDFE",
"C c #FDFEFF",
"Z c #FEFEFE",
"A c #FFFFFE",
"S c #FEFFFF",
"D c white",
/* pixels */
"                         ",
"                         ",
"                         ",
"                         ",
"       1pSSbcccl         ",
"       1pSb9;11pb        ",
"       1fk    18tS       ",
"       1cj     eMS       ",
"       1cg    uSbr       ",
"       1pm6o.@yiwO       ",
"       1pSSw111&X        ",
"       1pSz7&&&          ",
"       1ch               ",
"       1cg               ",
"       1w:               ",
"       11$               ",
"       $%O               ",
"                         ",
"                         ",
"                         ",
"                         ",
"                         ",
"                         ",
"                         ",
"                         "
};
