/* XPM */
static char *_1[] = {
/* columns rows colors chars-per-pixel */
"25 25 70 1 ",
"  c None",
". c #B6C4E2",
"X c #B8C6E5",
"o c #BAC8E9",
"O c #B9C8EA",
"+ c #BECBEB",
"@ c #BECCEB",
"# c #C1CFEE",
"$ c #C0CEEF",
"% c #C5D0E9",
"& c #C4D1F1",
"* c #C7D4F4",
"= c #C8D5F7",
"- c #C9D6F7",
"; c #CAD6F7",
": c #CBD7F8",
"> c #CBD8F8",
", c #CBD8F9",
"< c #CBD8FA",
"1 c #CCD9F9",
"2 c #CDD9FA",
"3 c #CCD9FB",
"4 c #CCD9FC",
"5 c #CDDAFC",
"6 c #D3DDF7",
"7 c #D0DCFD",
"8 c #D0DCFE",
"9 c #D0DDFE",
"0 c #D1DDFE",
"q c #D1DEFE",
"w c #D2DEFF",
"e c #D3DEFF",
"r c #D3DFFF",
"t c #D7E1FC",
"y c #D4E0FF",
"u c #E4E8EB",
"i c #E9ECEF",
"p c #E0E9FF",
"a c #E1E9FF",
"s c #E2EAFF",
"d c #E3EAFF",
"f c #E5ECFF",
"g c #E6EDFE",
"h c #E9EFFF",
"j c #ECF0F7",
"k c #EAF0FF",
"l c #EBF1FF",
"z c #ECF1FE",
"x c #EEF3FE",
"c c #EFF4FF",
"v c #F6F7F7",
"b c #F7F8F7",
"n c #F0F3FA",
"m c #F4F6FD",
"M c #F8F9F9",
"N c #FAFAFA",
"B c #FBFBFB",
"V c #FDFDFC",
"C c #FCFDFD",
"Z c #FDFDFD",
"A c #FEFEFD",
"S c #FFFEFD",
"D c #FDFDFE",
"F c #FDFEFE",
"G c #FDFEFF",
"H c #FEFEFE",
"J c #FFFEFE",
"K c #FFFFFE",
"L c #FEFEFF",
"P c white",
/* pixels */
"                         ",
"                         ",
"                         ",
"         DDDDDDD         ",
"        DDDkssssm        ",
"       zDDi%OO$9sz       ",
"      5hDu     @5hD      ",
"      3kv       ;kM      ",
"      >kb       ;hM      ",
"      >gj       6cM      ",
"      393       MDn      ",
"      ;999     DDg;      ",
"       $9999gDDDs$       ",
"         9999sDD         ",
"           >9tt          ",
"            &99:>        ",
"             +999*       ",
"              .X         ",
"                         ",
"                         ",
"                         ",
"                         ",
"                         ",
"                         ",
"                         "
};
