/* XPM */
static char *_2[] = {
/* columns rows colors chars-per-pixel */
"25 25 73 1 ",
"  c None",
". c #B6C5E6",
"X c #BECCEB",
"o c #BFCDEB",
"O c #C1CDE7",
"+ c #CAD5EF",
"@ c #C5D2F3",
"# c #C6D4F5",
"$ c #C7D5F5",
"% c #C8D5F4",
"& c #C8D5F5",
"* c #CBD8F8",
"= c #CBD8F9",
"- c #CEDAFB",
"; c #CEDAFC",
": c #CFDCFC",
"> c #CFDCFE",
", c #D4DDF3",
"< c #D0DCFD",
"1 c #D1DDFD",
"2 c #D1DDFE",
"3 c #D1DDFF",
"4 c #D2DEFE",
"5 c #D2DEFF",
"6 c #D2DFFF",
"7 c #D3DFFF",
"8 c #DDE3E8",
"9 c #D6E0F9",
"0 c #D4E0FF",
"q c #D8E2FC",
"w c #D9E3FF",
"e c #DDE6FD",
"r c #DCE6FF",
"t c #DDE6FF",
"y c #E2E6EA",
"u c #EDEFEF",
"i c #E7ECF7",
"p c #E4EBFF",
"a c #E4ECFF",
"s c #E7EEFF",
"d c #EBEFF8",
"f c #E9EFFF",
"g c #ECF1FF",
"h c #EEF2FF",
"j c #EEF3FF",
"k c #EFF3FF",
"l c #EFF4FF",
"z c #F1F2F2",
"x c #F1F2F3",
"c c #F1F3F3",
"v c #F2F4F4",
"b c #F5F6F6",
"n c #F4F6FA",
"m c #F0F4FF",
"M c #F3F6FF",
"N c #F4F7FF",
"B c #F7F9FC",
"V c #F6F8FF",
"C c #FAFBFA",
"Z c #FBFCFF",
"A c #FDFDFC",
"S c #FCFCFD",
"D c #FDFDFD",
"F c #FEFEFD",
"G c #FFFFFD",
"H c #FDFDFE",
"J c #FCFDFF",
"K c #FDFDFF",
"L c #FDFEFF",
"P c #FEFEFE",
"I c #FFFFFE",
"U c #FEFFFF",
"Y c white",
/* pixels */
"                         ",
"                         ",
"                         ",
"                         ",
"       2gJJVMMNJJ        ",
"       2gJVq;22gJJ       ",
"       2lb    ;0sJ       ",
"       2Mv     iZJ       ",
"       2Mx    uJJJ       ",
"       2lC8O.+fZCy       ",
"       2gJJt222sd        ",
"       2gJn9=-22pJ       ",
"       2Mx    -2pJ       ",
"       2Mx     #sJ       ",
"       2t,     @qt       ",
"       22#     &2>       ",
"       &=o     o=&       ",
"                         ",
"                         ",
"                         ",
"                         ",
"                         ",
"                         ",
"                         ",
"                         "
};
