/* XPM */
static char *_3[] = {
/* columns rows colors chars-per-pixel */
"25 25 67 1 ",
"  c None",
". c #B8C7E5",
"X c #BAC9E9",
"o c #C0CEEC",
"O c #C0CEED",
"+ c #C2CFEF",
"@ c #C2D0F0",
"# c #C5D3F3",
"$ c #C6D3F2",
"% c #C6D3F3",
"& c #C7D3F3",
"* c #C7D4F4",
"= c #C8D5F5",
"- c #C8D5F6",
"; c #CFDAF6",
": c #CEDAF7",
"> c #CBD8F8",
", c #CBD8FA",
"< c #CFDBF8",
"1 c #CCD9FB",
"2 c #CEDAFC",
"3 c #CFDBFC",
"4 c #D0DCFA",
"5 c #D0DCFD",
"6 c #D1DDFE",
"7 c #D2DDFE",
"8 c #D1DEFF",
"9 c #D2DEFE",
"0 c #D2DEFF",
"q c #D2DFFF",
"w c #D3DFFF",
"e c #D5E0FC",
"r c #D5E0FE",
"t c #D4E0FF",
"y c #D6E1FF",
"u c #D7E2FF",
"i c #D9E2FC",
"p c #D8E3FF",
"a c #DEE7FE",
"s c #DFE7FF",
"d c #DFE8FF",
"f c #E0E9FF",
"g c #E1E9FF",
"h c #E5EBFE",
"j c #E5ECFE",
"k c #E9EFFF",
"l c #EFF2F4",
"z c #EFF2F6",
"x c #ECF1FF",
"c c #EDF2FF",
"v c #EEF3FF",
"b c #F4F6F7",
"n c #F5F7F7",
"m c #F2F5FA",
"M c #F5F6F8",
"N c #F6F7F8",
"B c #F3F6FF",
"V c #F7F8FB",
"C c #F7F9FC",
"Z c #F6F8FD",
"A c #F6F8FF",
"S c #FDFDFD",
"D c #FDFDFE",
"F c #FEFEFE",
"G c #FFFFFE",
"H c #FEFFFF",
"J c #FFFFFF",
/* pixels */
"                         ",
"                         ",
"                         ",
"                         ",
"        AHHABBBm         ",
"       6cHAi266cV        ",
"       6cb    6t4        ",
"       6tjb              ",
"        ,ig;%o           ",
"         -66t6@o         ",
"          *-*,66w        ",
"              ,tkH       ",
"       6cl     mHH       ",
"       6tjN   NHHH       ",
"       66ts;#;gggs       ",
"       o2666t6661X       ",
"         -#####*.        ",
"                         ",
"                         ",
"                         ",
"                         ",
"                         ",
"                         ",
"                         ",
"                         "
};
