/* XPM */
static char *_4[] = {
/* columns rows colors chars-per-pixel */
"25 25 39 1 ",
"  c None",
". c #C6D3F3",
"X c #CBD8F9",
"o c #CCD8F9",
"O c #CCD8FA",
"+ c #CCD9FA",
"@ c #CDD9FB",
"# c #CDDAFB",
"$ c #CEDAFB",
"% c #CDDAFC",
"& c #CFDBFC",
"* c #CFDBFD",
"= c #CFDCFC",
"- c #D0DCFC",
"; c #D0DCFD",
": c #D1DDFE",
"> c #D2DEFF",
", c #D3DFFF",
"< c #DCE5FB",
"1 c #DAE4FF",
"2 c #DEE6FC",
"3 c #E6EDFF",
"4 c #E9EFFF",
"5 c #EAF0FF",
"6 c #F2F6FF",
"7 c #F3F6FF",
"8 c #F4F7FF",
"9 c #F7F9FF",
"0 c #F8F9F9",
"q c #F9F9FA",
"w c #F9FAFA",
"e c #FAFAFA",
"r c #FAFAFB",
"t c #FAFBFB",
"y c #FBFBFB",
"u c #FAFBFC",
"i c #F9FBFF",
"p c #FFFFFE",
"a c white",
/* pixels */
"                         ",
"                         ",
"                         ",
"                         ",
"       >3877ipp977       ",
"       =>>>>4pi2%>       ",
"           +50           ",
"           X50           ",
"           X50           ",
"           +50           ",
"           +50           ",
"           +50           ",
"           +50           ",
"           +50           ",
"           +1<           ",
"           %>%           ",
"           .+.           ",
"                         ",
"                         ",
"                         ",
"                         ",
"                         ",
"                         ",
"                         ",
"                         "
};
