/* XPM */
static char *_5[] = {
/* columns rows colors chars-per-pixel */
"25 25 57 1 ",
"  c None",
". c #C7D4F3",
"X c #C7D4F4",
"o c #C6D4F6",
"O c #C8D5F6",
"+ c #C9D6F7",
"@ c #CDD9F7",
"# c #CFDBF7",
"$ c #C8D5F8",
"% c #C9D6F8",
"& c #CAD7F9",
"* c #CBD8FA",
"= c #CDD9F9",
"- c #CCD9FA",
"; c #CDD9FA",
": c #CCDAFC",
"> c #CEDBFD",
", c #D0DCFA",
"< c #D0DCFD",
"1 c #D1DDFD",
"2 c #D1DDFE",
"3 c #D1DDFF",
"4 c #D2DDFE",
"5 c #D2DEFE",
"6 c #D2DEFF",
"7 c #D3DFFF",
"8 c #D7E1F9",
"9 c #D4E0FF",
"0 c #D8E2FD",
"q c #DFE8FF",
"w c #E1EAFF",
"e c #E3EBFF",
"r c #E4EBFF",
"t c #E9EFFF",
"y c #EBF0FF",
"u c #EEF3FF",
"i c #EFF3FF",
"p c #EFF4FF",
"a c #F0F2F7",
"s c #F3F4F7",
"d c #F0F4FF",
"f c #F1F5FF",
"g c #F8F8F8",
"h c #F9F9F9",
"j c #F9FAF9",
"k c #F8F9FA",
"l c #FBFBFA",
"z c #FAFBFD",
"x c #FDFDFC",
"c c #FCFCFD",
"v c #FCFDFD",
"b c #FEFEFD",
"n c #FCFDFE",
"m c #FDFDFE",
"M c #FDFEFE",
"N c #FFFFFE",
"B c #FEFEFF",
/* pixels */
"                         ",
"                         ",
"                         ",
"                         ",
"       2ux     >wx       ",
"       2ux     >wx       ",
"       2ul     *wx       ",
"       2ul     &rx       ",
"       2pl     &rx       ",
"       2pl     &rx       ",
"       2dl     &wx       ",
"       2ya     #tx       ",
"       29-     sxz       ",
"       222-   lxd0       ",
"        -22-+,qw8        ",
"         +22222o         ",
"          .ooo.          ",
"                         ",
"                         ",
"                         ",
"                         ",
"                         ",
"                         ",
"                         ",
"                         "
};
