/* XPM */
static char *_6[] = {
/* columns rows colors chars-per-pixel */
"25 25 55 1 ",
"  c None",
". c #B9C7E8",
"X c #BBC9E8",
"o c #BDCBEA",
"O c #C3D1F1",
"+ c #C6D4F6",
"@ c #C7D4F6",
"# c #CAD7F6",
"$ c #CEDAFB",
"% c #CDDAFC",
"& c #CEDBFC",
"* c #CFDBFC",
"= c #CFDBFE",
"- c #D4DFFA",
"; c #D0DCFD",
": c #D3DEFD",
"> c #D1DDFE",
", c #D2DEFF",
"< c #D3DFFF",
"1 c #D6E1FF",
"2 c #D7E2FF",
"3 c #DAE4FD",
"4 c #DAE4FF",
"5 c #DDE6FD",
"6 c #DEE7FF",
"7 c #ECEFF1",
"8 c #E3EAFA",
"9 c #E0E8FF",
"0 c #E1E9FF",
"q c #E2EAFF",
"w c #E3EBFF",
"e c #E6EDFF",
"r c #E9EFFF",
"t c #EDF2FF",
"y c #EFF3FF",
"u c #F3F5F6",
"i c #F4F5F6",
"p c #F3F6FA",
"a c #F3F6FF",
"s c #F4F7FE",
"d c #F9FAFB",
"f c #F8F9FD",
"g c #F9FAFD",
"h c #F9FBFF",
"j c #FAFCFF",
"k c #FBFCFF",
"l c #FCFCFC",
"z c #FDFDFC",
"x c #FCFDFD",
"c c #FFFFFD",
"v c #FDFDFE",
"b c #FCFDFF",
"n c #FDFEFF",
"m c #FEFEFE",
"M c white",
/* pixels */
"                         ",
"                         ",
"                         ",
"                         ",
"      &rc       4tc      ",
"      &ef       fcc      ",
"      $,0c     ,acd      ",
"       +0c     scu       ",
"       O20p   -cc7       ",
"        +2k   2fi        ",
"         2t   2f         ",
"         ,,   6k         ",
"         ,,   cc         ",
"          ,&8cc          ",
"          ,,406          ",
"          X&,&.          ",
"           o#o           ",
"                         ",
"                         ",
"                         ",
"                         ",
"                         ",
"                         ",
"                         ",
"                         "
};
