/* XPM */
static char *_7[] = {
/* columns rows colors chars-per-pixel */
"25 25 81 1 ",
"  c None",
". c #B2C1DE",
"X c #BECCED",
"o c #CDD4DE",
"O c #C1CFEE",
"+ c #C2CFEF",
"@ c #CCD4E0",
"# c #CFD9EE",
"$ c #D4D9E0",
"% c #C3D0F1",
"& c #C4D1F1",
"* c #C5D2F2",
"= c #C4D2F4",
"- c #C5D3F6",
"; c #C9D6F7",
": c #CAD7F7",
"> c #C8D5F8",
", c #CBD8FA",
"< c #CDD9F9",
"1 c #CFDBF8",
"2 c #CCD9FA",
"3 c #CCD9FB",
"4 c #CDD9FB",
"5 c #CDDAFB",
"6 c #CEDAFA",
"7 c #CDD9FC",
"8 c #CEDAFC",
"9 c #CEDBFC",
"0 c #CFDBFC",
"q c #CEDBFD",
"w c #CFDBFE",
"e c #CFDCFC",
"r c #D1DDFC",
"t c #D0DCFD",
"y c #D3DEFC",
"u c #D0DDFF",
"i c #D2DEFF",
"p c #D2DFFF",
"a c #D3DFFF",
"s c #D8E0F1",
"d c #DAE2F4",
"f c #D8E1F6",
"g c #D5E0FF",
"h c #D6E1FF",
"j c #D7E2FF",
"k c #DBE5FF",
"l c #DEE7FD",
"z c #DDE6FF",
"x c #DFE8FF",
"c c #E7EAED",
"v c #E9ECED",
"b c #EAEDED",
"n c #E9ECEF",
"m c #E4EAFB",
"M c #E0E8FC",
"N c #E2EAFF",
"B c #E9EFFF",
"V c #EAEFFF",
"C c #EAF0FF",
"Z c #ECF1FF",
"A c #F6F7F7",
"S c #F5F7FA",
"D c #F2F5FF",
"F c #F2F6FF",
"G c #F3F6FF",
"H c #F4F7FF",
"J c #F6F8FF",
"K c #F8F9F8",
"L c #F8F9F9",
"P c #F9FAFA",
"I c #FAFAFA",
"U c #FBFBFB",
"Y c #FCFCFB",
"T c #FBFCFF",
"R c #FCFCFC",
"E c #FCFDFC",
"W c #FDFDFC",
"Q c #FEFEFD",
"! c #FFFFFE",
"~ c #FEFFFF",
"^ c #FFFFFF",
/* pixels */
"                         ",
"                         ",
"                         ",
"                         ",
"      8BR       8BR      ",
"      8BR  yZR  8BR      ",
"      5BL  SRL  ,BY      ",
"      5CL 5GRRL >BL      ",
"      5kf 8GGMM =BL      ",
"      5y= mTCy8 fJL      ",
"      +e5$RAs;y@LRb      ",
"       XMRR   hHRc       ",
"       XxRR   yhHb       ",
"       XxRR   yyGb       ",
"       Ohlo   .yl#       ",
"       &y8     ey%       ",
"        ;&     &;        ",
"                         ",
"                         ",
"                         ",
"                         ",
"                         ",
"                         ",
"                         ",
"                         "
};
