/* XPM */
static char *_8[] = {
/* columns rows colors chars-per-pixel */
"25 25 65 1 ",
"  c None",
". c #B6C4E2",
"X c #B9C7E7",
"o c #B9C8E9",
"O c #BCCAE9",
"+ c #BFCDEC",
"@ c #D9DDE2",
"# c #C6D3F2",
"$ c #C6D4F3",
"% c #C8D5F5",
"& c #C8D5F6",
"* c #C9D5F6",
"= c #CFDAF4",
"- c #CAD7F8",
"; c #CBD8F8",
": c #CDDAFA",
"> c #CEDAFB",
", c #CDDAFC",
"< c #CFDBFC",
"1 c #CEDBFD",
"2 c #CFDBFD",
"3 c #CFDCFC",
"4 c #CFDCFE",
"5 c #D0DCFD",
"6 c #D0DDFE",
"7 c #D0DDFF",
"8 c #D2DEFF",
"9 c #D3DFFF",
"0 c #DFE3E7",
"q c #DCE5FB",
"w c #D9E2FD",
"e c #D8E3FF",
"r c #DAE4FF",
"t c #DBE4FF",
"y c #DDE5FC",
"u c #DEE7FF",
"i c #E6E9EC",
"p c #E9EDF4",
"a c #E1E9FF",
"s c #E2EAFF",
"d c #E3EAFF",
"f c #E4EBFC",
"g c #E6ECFC",
"h c #E9EFFF",
"j c #EFF4FF",
"k c #F0F2F3",
"l c #F2F3F5",
"z c #F1F4FD",
"x c #F2F5FF",
"c c #F5F7FE",
"v c #F7F9FE",
"b c #F6F8FF",
"n c #F7F9FF",
"m c #F9FAFA",
"M c #F8F9FE",
"N c #FBFCFC",
"B c #FAFCFF",
"V c #FBFCFF",
"C c #FDFDFC",
"Z c #FDFDFD",
"A c #FEFEFD",
"S c #FDFEFE",
"D c #FEFEFE",
"F c #FEFEFF",
"G c #FFFFFF",
/* pixels */
"                         ",
"                         ",
"                         ",
"                         ",
"      4dc       DDD      ",
"      :6uM     DDDm      ",
"       %6tv   DDDl       ",
"        +6tzDDDDi        ",
"         X1zDDD0         ",
"          fBvhg          ",
"         @Dvd61.         ",
"         DDq-:66         ",
"       $dDD   66zk       ",
"       pBB     4w=       ",
"      %wdu     666%      ",
"      461o     O464      ",
"      #;+       +;#      ",
"                         ",
"                         ",
"                         ",
"                         ",
"                         ",
"                         ",
"                         ",
"                         "
};
