/* XPM */
static char *_9[] = {
/* columns rows colors chars-per-pixel */
"25 25 51 1 ",
"  c None",
". c #BDCBEC",
"X c #C3D0EF",
"o c #C3D1F0",
"O c #C7D4F4",
"+ c #C7D5F6",
"@ c #C9D6F7",
"# c #CAD7F7",
"$ c #CAD7F9",
"% c #CCD8F8",
"& c #CCD8F9",
"* c #CDDAFA",
"= c #CFDCFE",
"- c #D0DCFD",
"; c #D0DCFE",
": c #D0DDFE",
"> c #D0DDFF",
", c #D2DEFF",
"< c #D3DFFF",
"1 c #D7E0F7",
"2 c #D4E0FF",
"3 c #D7E2FF",
"4 c #D9E3FE",
"5 c #DAE4FF",
"6 c #DEE7FF",
"7 c #E6E9EC",
"8 c #EBEEF0",
"9 c #E0E8FF",
"0 c #E3EAFF",
"q c #E8EEFF",
"w c #E9EFFF",
"e c #EFF3FA",
"r c #EAF0FF",
"t c #F1F3F4",
"y c #F4F6F6",
"u c #F4F6F7",
"i c #F6F7F6",
"p c #F5F7FE",
"a c #F6F9FF",
"s c #F7F9FF",
"d c #F9F9FA",
"f c #F8F9FE",
"g c #F9FAFE",
"h c #FAFBFF",
"j c #FCFCFD",
"k c #FDFDFE",
"l c #FDFEFE",
"z c #FEFEFE",
"x c #FFFFFE",
"c c #FEFEFF",
"v c #FFFFFF",
/* pixels */
"                         ",
"                         ",
"                         ",
"                         ",
"      =0p       kkk      ",
"      *:6h     kkkd      ",
"       O:5h   4hkt       ",
"        .3h   sk7        ",
"         30eidkk         ",
"         o:0skk8         ",
"          =:qkk          ",
"          #:qki          ",
"           Ori           ",
"           Ori           ",
"           #51           ",
"           *:$           ",
"           X*X           ",
"                         ",
"                         ",
"                         ",
"                         ",
"                         ",
"                         ",
"                         ",
"                         "
};
