/* XPM */
static char *_0[] = {
/* columns rows colors chars-per-pixel */
"25 25 63 1 ",
"  c None",
". c #B6C5E5",
"X c #BECCED",
"o c #C3D0EE",
"O c #C6D3F3",
"+ c #C7D4F4",
"@ c #C7D5F5",
"# c #C8D4F4",
"$ c #C8D5F5",
"% c #C9D5F5",
"& c #C9D6F6",
"* c #CAD6F6",
"= c #CAD7F7",
"- c #CBD7F8",
"; c #CBD8F8",
": c #CCD8F8",
"> c #CDD9FA",
", c #CEDBFB",
"< c #CFDBFC",
"1 c #CFDCFC",
"2 c #D0DCFC",
"3 c #D0DCFD",
"4 c #D1DDFD",
"5 c #D1DDFE",
"6 c #D2DDFE",
"7 c #D2DEFF",
"8 c #D3DFFF",
"9 c #D4DFFE",
"0 c #D4DFFF",
"q c #DCE3F1",
"w c #DAE3FC",
"e c #DFE7FC",
"r c #DCE5FF",
"t c #E5E9EC",
"y c #E9EDEF",
"u c #E3EAFD",
"i c #E6EDFF",
"p c #E8EEFF",
"a c #EEF3FF",
"s c #EFF4FF",
"d c #F2F3F5",
"f c #F0F2F7",
"g c #F6F7F7",
"h c #F5F7FB",
"j c #F2F6FF",
"k c #F3F6FF",
"l c #F4F7FF",
"z c #F7F8F9",
"x c #F5F8FF",
"c c #F7F9FF",
"v c #F9FAFA",
"b c #FAFAFA",
"n c #FCFCFB",
"m c #FAFBFC",
"M c #F8FAFF",
"N c #FBFCFF",
"B c #FCFDFD",
"V c #FFFEFD",
"C c #FDFEFE",
"Z c #FEFEFE",
"A c #FFFFFE",
"S c #FEFEFF",
"D c white",
/* pixels */
"                         ",
"                         ",
"                         ",
"                         ",
"       7ilkkkkkkmA       ",
"       17771<<19pA       ",
"               fAA       ",
"             bbAz        ",
"           tnNiq         ",
"          yAxuo          ",
"         fAxeX           ",
"        hANw.            ",
"       7aAm              ",
"       7sg               ",
"       7ew@===::::       ",
"       77799977777       ",
"       O=OOO@===;=       ",
"                         ",
"                         ",
"                         ",
"                         ",
"                         ",
"                         ",
"                         ",
"                         "
};
