/* XPM */
static char *_1[] = {
/* columns rows colors chars-per-pixel */
"25 25 31 1 ",
"  c None",
". c #CEDAFB",
"X c #CEDBFC",
"o c #CFDBFC",
"O c #CFDCFD",
"+ c #D0DCFD",
"@ c #D2DDFD",
"# c #D0DDFE",
"$ c #D1DDFE",
"% c #D1DEFF",
"& c #D3DFFF",
"* c #D4E0FF",
"= c #EBEEEE",
"- c #ECEEEE",
"; c #ECEEEF",
": c #EBEEF2",
"> c #E3EBFE",
", c #E2EAFF",
"< c #E3EBFF",
"1 c #E4EBFF",
"2 c #EEF0F0",
"3 c #EFF1F1",
"4 c #F0F2F2",
"5 c #F1F2F2",
"6 c #F8FAFF",
"7 c #FAFBFE",
"8 c #FAFBFF",
"9 c #FBFCFE",
"0 c #FBFCFF",
"q c #FDFEFF",
"w c #FFFFFF",
/* pixels */
"                         ",
"                         ",
"                         ",
"         #,0qqq0         ",
"         #,0q7,#         ",
"         O105            ",
"         o17-            ",
"         o17=            ",
"         o17-            ",
"         o172            ",
"         o172            ",
"         o175            ",
"         o175            ",
"         o175            ",
"         o172            ",
"         o,7:            ",
"         o#*####         ",
"         .#####O         ",
"                         ",
"                         ",
"                         ",
"                         ",
"                         ",
"                         ",
"                         "
};
