/* XPM */
static char *_2[] = {
/* columns rows colors chars-per-pixel */
"25 25 40 1 ",
"  c None",
". c #BFCDEE",
"X c #C3D1F0",
"o c #C7D5F7",
"O c #C8D4F4",
"+ c #C8D5F6",
"@ c #C8D5F7",
"# c #C9D6F8",
"$ c #CCD9F9",
"% c #CDD9FA",
"& c #CDDAFA",
"* c #CEDAFB",
"= c #CFDBFD",
"- c #CFDCFC",
"; c #CFDCFE",
": c #D0DCFD",
"> c #D2DEFD",
", c #D1DDFE",
"< c #D1DEFF",
"1 c #D3DFFE",
"2 c #D2DEFF",
"3 c #D3DFFF",
"4 c #D7E1FD",
"5 c #D5E0FF",
"6 c #D6E1FE",
"7 c #D6E1FF",
"8 c #DBE5FF",
"9 c #DCE6FF",
"0 c #E3E9F8",
"q c #E1E9FF",
"w c #E5ECFF",
"e c #E9EFFF",
"r c #EAEFFE",
"t c #EDF1FA",
"y c #EDF1FE",
"u c #F3F5F8",
"i c #F4F7FF",
"p c #F9F9F8",
"a c #FAFBFD",
"s c #F9FBFF",
/* pixels */
"                         ",
"                         ",
"                         ",
"        >y               ",
"        >qr              ",
"        $;>              ",
"         o9sp            ",
"         +8iu            ",
"         +>5rs           ",
"           ;55           ",
"           ;>=           ",
"            +5t          ",
"            .5w0         ",
"            X>>+         ",
"             $>$         ",
"              $>>        ",
"              $>>        ",
"                         ",
"                         ",
"                         ",
"                         ",
"                         ",
"                         ",
"                         ",
"                         "
};
