/* XPM */
static char *_3[] = {
/* columns rows colors chars-per-pixel */
"25 25 42 1 ",
"  c None",
". c #BFCDEE",
"X c #C0CDEE",
"o c #C0CEEF",
"O c #C1CFF0",
"+ c #C1CFF1",
"@ c #C3D0F2",
"# c #C3D1F2",
"$ c #C4D1F1",
"% c #CEDAFB",
"& c #CFDBFC",
"* c #D1DDFC",
"= c #D0DCFD",
"- c #D0DDFE",
"; c #D1DDFE",
": c #D1DEFF",
"> c #D2DEFE",
", c #D3DEFF",
"< c #D3DFFF",
"1 c #D4DFFE",
"2 c #D4E0FF",
"3 c #D5E0FF",
"4 c #D6E1FE",
"5 c #D6E1FF",
"6 c #D8E2FF",
"7 c #D8E3FF",
"8 c #E7EBF2",
"9 c #E1E9FF",
"0 c #EFF3FF",
"q c #EFF4FF",
"w c #F0F4FF",
"e c #F8FAFC",
"r c #F8FAFF",
"t c #FAFBFF",
"y c #FBFCFC",
"u c #FCFCFC",
"i c #FCFDFD",
"p c #FDFDFD",
"a c #FCFDFF",
"s c #FDFEFF",
"d c #FEFEFE",
"f c #FEFEFF",
/* pixels */
"                         ",
"                         ",
"                         ",
"         -9rdddd         ",
"         ----7wd         ",
"            #50d         ",
"            X5qd         ",
"            .5qy         ",
"            X5qy         ",
"            O5qy         ",
"            O5qy         ",
"            #5qy         ",
"            #5qy         ",
"            #5qy         ",
"            $7wy         ",
"            8rdr         ",
"         ----55-         ",
"         &-----%         ",
"                         ",
"                         ",
"                         ",
"                         ",
"                         ",
"                         ",
"                         "
};
