/* XPM */
static char *_4[] = {
/* columns rows colors chars-per-pixel */
"25 25 48 1 ",
"  c None",
". c #BDCBEA",
"X c #C0CFF0",
"o c #C9D5F6",
"O c #CAD6F7",
"+ c #CBD7F7",
"@ c #CAD7F8",
"# c #CBD7F8",
"$ c #CEDBFB",
"% c #CFDBFC",
"& c #CFDCFC",
"* c #D0DCFD",
"= c #D2DEFF",
"- c #D3DFFF",
"; c #D4DFFE",
": c #D7E1FD",
"> c #D6E1FE",
", c #D6E1FF",
"< c #DCE4F8",
"1 c #DAE3FE",
"2 c #DEE7FC",
"3 c #E2E7EA",
"4 c #EAEEF6",
"5 c #E1E8F8",
"6 c #E3EAFF",
"7 c #EEF0F0",
"8 c #EBF0FC",
"9 c #EBF0FF",
"0 c #EDF2FF",
"q c #F3F5FB",
"w c #F2F5FF",
"e c #F4F7FF",
"r c #F6F8FE",
"t c #F6F9FE",
"y c #F7F9FF",
"u c #F9FAFB",
"i c #F8FAFE",
"p c #F9FBFF",
"a c #FAFBFF",
"s c #FBFCFC",
"d c #FBFCFD",
"f c #FCFCFC",
"g c #FCFDFF",
"h c #FDFEFF",
"j c #FFFFFE",
"k c #FEFEFF",
"l c #FEFFFF",
"z c white",
/* pixels */
"                         ",
"                         ",
"                         ",
"                         ",
"           kks           ",
"           rkk           ",
"          1ekrr          ",
"          ik9>>          ",
"         uk7 X>q         ",
"        5kw   >0<        ",
"       +6i>   ***@       ",
"       4is     **+       ",
"       293     .&&       ",
"      &*@       @*&      ",
"      $*+       +*$      ",
"                         ",
"                         ",
"                         ",
"                         ",
"                         ",
"                         ",
"                         ",
"                         ",
"                         ",
"                         "
};
