/* XPM */
static char *_5[] = {
/* columns rows colors chars-per-pixel */
"25 25 25 1 ",
"  c None",
". c #BDCCED",
"X c #BECDEE",
"o c #C0CEEF",
"O c #C2D0F2",
"+ c #C3D0F2",
"@ c #D0DCFD",
"# c #D1DDFD",
"$ c #D2DDFD",
"% c #D2DEFD",
"& c #D2DEFE",
"* c #D2DEFF",
"= c #DEE7FF",
"- c #E5ECFF",
"; c #E6ECFF",
": c #E6EDFF",
"> c #EAF0FF",
", c #EDF1FD",
"< c #F9FAFF",
"1 c #FAFBFF",
"2 c #FBFCFF",
"3 c #FEFEFC",
"4 c #FEFEFD",
"5 c #FFFEFD",
"6 c #FFFFFD",
/* pixels */
"                         ",
"                         ",
"                         ",
"                         ",
"                         ",
"                         ",
"       *,444444444       ",
"       *>211111111       ",
"       *=:::::::::       ",
"       ***********       ",
"        +oXX.XXo+        ",
"                         ",
"                         ",
"                         ",
"                         ",
"                         ",
"                         ",
"                         ",
"                         ",
"                         ",
"                         ",
"                         ",
"                         ",
"                         ",
"                         "
};
