/* XPM */
static char *_6[] = {
/* columns rows colors chars-per-pixel */
"25 25 35 1 ",
"  c None",
". c #C3D2F1",
"X c #C3D1F2",
"o c #C5D3F3",
"O c #C8D5F5",
"+ c #CBD8F8",
"@ c #CEDBFB",
"# c #CDDAFD",
"$ c #CEDBFD",
"% c #CFDCFD",
"& c #D0DBF9",
"* c #D0DDFE",
"= c #D1DDFE",
"- c #D1DDFF",
"; c #D2DEFF",
": c #D3DEFF",
"> c #D3DFFF",
", c #D5E0FF",
"< c #D6E1FF",
"1 c #D7E2FF",
"2 c #E2E9FD",
"3 c #E0E9FF",
"4 c #E1E9FF",
"5 c #E6EDFF",
"6 c #EAEFFB",
"7 c #E9EFFF",
"8 c #F3F6FE",
"9 c #F5F8FF",
"0 c #F6F8FE",
"q c #F7F9FF",
"w c #F8F9F8",
"e c #FCFCFD",
"r c #FFFEFD",
"t c #FEFEFE",
"y c #FEFEFF",
/* pixels */
"                         ",
"                         ",
"                         ",
"                         ",
"                         ",
"         ;;4ee           ",
"        @;;49ee          ",
"          ;149e          ",
"          +$;58          ",
"           o;149w        ",
"            O$176        ",
"             O;1&        ",
"              ..         ",
"                         ",
"                         ",
"                         ",
"                         ",
"                         ",
"                         ",
"                         ",
"                         ",
"                         ",
"                         ",
"                         ",
"                         "
};
