/* XPM */
static char *_7[] = {
/* columns rows colors chars-per-pixel */
"25 25 65 1 ",
"  c None",
". c #B6C4E2",
"X c #B9C7E6",
"o c #BBCAE9",
"O c #BECCEC",
"+ c #BFCDEC",
"@ c #C0CDEB",
"# c #C6D1E8",
"$ c #D3DBEB",
"% c #C4D0F1",
"& c #C4D2F5",
"* c #C7D4F4",
"= c #CBD7F7",
"- c #CBD7F8",
"; c #CBD8F8",
": c #CCD9F9",
"> c #CCD9FA",
", c #CDDAFB",
"< c #CEDBFB",
"1 c #CFDCFE",
"2 c #D0DCFB",
"3 c #D0DCFD",
"4 c #D1DDFE",
"5 c #D1DEFF",
"6 c #D2DEFE",
"7 c #D2DEFF",
"8 c #D3DFFF",
"9 c #D4DFFF",
"0 c #D8E3FF",
"q c #DBE5FE",
"w c #DBE5FF",
"e c #DCE6FF",
"r c #E6E9ED",
"t c #E6EAED",
"y c #E7EBED",
"u c #E8EAEB",
"i c #EAEDEF",
"p c #ECEEEF",
"a c #E3EAFC",
"s c #E0E8FF",
"d c #E2EAFF",
"f c #E4EBFF",
"g c #E5ECFF",
"h c #EEF0F2",
"j c #EFF3FB",
"k c #EAF0FF",
"l c #EBF0FF",
"z c #EBF1FF",
"x c #EEF2FC",
"c c #EDF1FE",
"v c #ECF2FF",
"b c #F6F8FF",
"n c #FAFAFA",
"m c #FBFBFC",
"M c #F9FAFF",
"N c #FAFCFF",
"B c #FBFCFF",
"V c #FEFEFD",
"C c #FDFDFE",
"Z c #FCFDFF",
"A c #FDFEFF",
"S c #FEFEFE",
"D c #FFFFFE",
"F c #FEFEFF",
"G c #FFFFFF",
/* pixels */
"                         ",
"                         ",
"                         ",
"                         ",
"         mDDDD  DD       ",
"         DDNvlvnDD       ",
"        DDDj21gNDD       ",
"       qDDh  :9dDD       ",
"       qDp    &eDD       ",
"       0v     #lDDr      ",
"       66     rDNDr      ",
"      %66<.  iDbdmu      ",
"       *66;o@dld6f$      ",
"        -66666::66+      ",
"         -6666X 66+      ",
"                         ",
"                         ",
"                         ",
"                         ",
"                         ",
"                         ",
"                         ",
"                         ",
"                         ",
"                         "
};
