/* XPM */
static char *_8[] = {
/* columns rows colors chars-per-pixel */
"25 25 67 1 ",
"  c None",
". c #B7C6E3",
"X c #B8C8EB",
"o c #BECBEA",
"O c #BECCED",
"+ c #C6D3F3",
"@ c #C7D4F3",
"# c #C5D2F4",
"$ c #C5D3F4",
"% c #C7D4F4",
"& c #C7D5F4",
"* c #C6D4F6",
"= c #C8D5F5",
"- c #C9D6F6",
"; c #CDD8F5",
": c #CBD8FA",
"> c #CFDAF8",
", c #CEDAFD",
"< c #D3DDF3",
"1 c #D0DCFD",
"2 c #D1DDFD",
"3 c #D1DDFE",
"4 c #D0DDFF",
"5 c #D1DDFF",
"6 c #D2DEFE",
"7 c #D2DEFF",
"8 c #D3DFFF",
"9 c #D7E1F9",
"0 c #D4E0FF",
"q c #D8E2FD",
"w c #D8E2FE",
"e c #DBE4FE",
"r c #DBE5FF",
"t c #DFE8FF",
"y c #EDEFF2",
"u c #E0E8FF",
"i c #E1E9FF",
"p c #E2EAFF",
"a c #E3EAFF",
"s c #E3EBFF",
"d c #E4EBFF",
"f c #E5ECFE",
"g c #E9EFFF",
"h c #EEF3FF",
"j c #EFF3FF",
"k c #F0F2F3",
"l c #F0F2F5",
"z c #F2F3F4",
"x c #F5F6F7",
"c c #F7F8F7",
"v c #F2F5F8",
"b c #F6F7F8",
"n c #F0F4FF",
"m c #F1F5FF",
"M c #FAFBFA",
"N c #FCFCFB",
"B c #FAFBFD",
"V c #FDFDFC",
"C c #FEFEFD",
"Z c #FFFFFD",
"A c #FDFDFE",
"S c #FDFEFE",
"D c #FDFEFF",
"F c #FEFEFE",
"G c #FFFFFE",
"H c #FEFEFF",
"J c white",
/* pixels */
"                         ",
"                         ",
"                         ",
"                         ",
"       3hF               ",
"       3hN               ",
"       3hM               ",
"       3hc bFFF          ",
"       3hFvfaaaw         ",
"       3hFF<X#33r        ",
"       3hFy   %,dF       ",
"       3nk     ;gF       ",
"       3nl     lFB       ",
"       3hFb   bFnw       ",
"       3raa>#>ta9        ",
"       33:O3033%         ",
"       +-. o-%@          ",
"                         ",
"                         ",
"                         ",
"                         ",
"                         ",
"                         ",
"                         ",
"                         "
};
