/* XPM */
static char *_9[] = {
/* columns rows colors chars-per-pixel */
"25 25 55 1 ",
"  c None",
". c #B9C7E5",
"X c #BCCBEA",
"o c #BDCBEB",
"O c #C1CEED",
"+ c #C1CEEE",
"@ c #C6D3F4",
"# c #C8D5F5",
"$ c #C9D6F6",
"% c #CAD7F8",
"& c #CBD7F8",
"* c #C9D7FA",
"= c #CAD8FA",
"- c #CDDAFD",
"; c #CFDBFC",
": c #CFDBFD",
"> c #D5DFF7",
", c #D3DEFA",
"< c #D0DDFD",
"1 c #D1DDFE",
"2 c #D1DDFF",
"3 c #D1DEFF",
"4 c #D2DEFE",
"5 c #D2DEFF",
"6 c #D3DEFF",
"7 c #D3DFFF",
"8 c #D5E0FF",
"9 c #D6E1FF",
"0 c #DBE4FB",
"q c #DBE5FF",
"w c #DEE7FF",
"e c #DFE8FF",
"r c #E3E9FA",
"t c #E9EFFF",
"y c #EAF0FF",
"u c #EDF1FE",
"i c #ECF1FF",
"p c #EDF2FF",
"a c #F1F2F2",
"s c #F1F3F5",
"d c #F6F7F8",
"f c #F4F7FB",
"g c #F2F5FF",
"h c #F4F6FC",
"j c #F8F9F9",
"k c #F8F9FB",
"l c #FCFCFC",
"z c #FEFEFD",
"x c #FCFDFE",
"c c #FCFDFF",
"v c #FDFEFE",
"b c #FEFEFE",
"n c #FFFFFE",
"m c #FEFEFF",
"M c #FFFFFF",
/* pixels */
"                         ",
"                         ",
"                         ",
"                         ",
"           vvvvv         ",
"          vvvgyih        ",
"         vvvk0-8id       ",
"       *wvvd  X18,       ",
"       =eva              ",
"       *qi               ",
"       *11.              ",
"       *11-O   kvs       ",
"        #11-OX>tyr       ",
"         *111111-@       ",
"          #11111         ",
"                         ",
"                         ",
"                         ",
"                         ",
"                         ",
"                         ",
"                         ",
"                         ",
"                         ",
"                         "
};
