/* XPM */
static char *c9bf88686efe48aed2293fbb9db7f7daxhDUBdOXqEH2AgBX[] = {
/* columns rows colors chars-per-pixel */
"64 64 20 1 ",
"  c None",
". c #090A14",
"X c #10141F",
"o c #151D28",
"O c #341C27",
"+ c #19332D",
"@ c #202E37",
"# c #4D2B32",
"$ c #752438",
"% c #25562E",
"& c #394A50",
"* c #577277",
"= c #A53030",
"- c #BE772B",
"; c #468232",
": c #DA863E",
"> c #DE9E41",
", c #819796",
"< c #A8B5B2",
"1 c #EBEDE9",
/* pixels */
"                            >       >                           ",
"                           ->       >-                          ",
"                          >->       >->                         ",
"                         >>->   =   >->>                        ",
"                         >-->   =   >-->                        ",
"                        >>-->  ===  >-->>                       ",
"                        -----  ===  -----                       ",
"                         --   %%%%%   --                        ",
"                      ;;;%%*<<<<<<<<<*%%;;;                     ",
"                       ;%%+,****<****,%%%;                      ",
"                         %%XXXX*<*XXXX%%                        ",
"                          %XX.$*<*$.XX%                         ",
"                           XX.=*<*=.XX                          ",
"                           ++++<<<++++                          ",
"                           %+1+*<*+1+%                          ",
"                            +1+*<*+1+                           ",
"                            %1++<++1%                           ",
"                            %%;;;;;%%                           ",
"                             +++++++                            ",
"                          OOOOOOOOOOO                           ",
"                         O#####OOO##OOO                         ",
"                        O#######O#######                        ",
"                       O#######OOO#######                       ",
"                      O#######OooooO#####O                      ",
"                      O######Oooooooo#####O                     ",
"                     OOO####OX::$$XXoo####O#                    ",
"                     ###O##OX@@:$@@Xooo####O                    ",
"                    O####OOOX@&:$&@Xoooo####O                   ",
"                    O#####OOoX@&&@Xoooooo###O#                  ",
"                   OO######OooX&&XoooooooX###O#                 ",
"                   O#O#####OooX@@XoooOOooo####O                 ",
"                  O###O####OooX@@XoooOOOooo#####                ",
"                  O###O####OoooXXoooOOOOOooO###O#               ",
"                 O#####O###OoooXXoooOOOOOooOO###O#              ",
"                 O######O#OooooXXoooOOOOOXXOOO###O              ",
"                 OO######OOooooXXoooOOOOXXXOOOO##O#             ",
"                 ##O#####OOooooXXoooOOOXXXXOOOOO##O#            ",
"                 ###O####OOoooooooooOO+++XOOOOOOO##O#           ",
"                 ####O##OOOoooooooooOO+++OOOOOOOO###O#          ",
"                ######OXOOOOoooooooooO@++OOOOOOOOO###O#         ",
"                ######XXOOOOoooooooooOOOOOOOOOOOOOO###O#        ",
"                #####OooOOOoooOOOOoooOOOOOOOOOOOOOOO#####       ",
"                #####O++OOOoooOOOOooXOOOOOOOOOOOOOOOO####       ",
"                #####O++OOOo@oOOOOooXOOOOOOOOOOOOOOOO#####      ",
"                #####O+OOOOo@oOOOOooXOOOOOOOOOOOOOOOOO#####     ",
"                 ###OO+OOOOo@oOOOO@@XOOOOOOOOOOOOOOOOO#####     ",
"                 ###OOOOOOOo@oOOOOO@@OOOOOOOOOOOOOOOOO######    ",
"                  ###OOOOOOo@oOOOOO@@OOOOOOOOOOOOOOOOOO#####    ",
"                  ####OOOOOo@OOOOOO@@OOOOOOOOOOOOOOOOOOO####    ",
"                   #####O#Oo@OO#OOO@@OOOOOOOOOOOOOOOOOOO###     ",
"                   ####   ooo   OOO@oOOOOO  OOOOOOOOOOOOO#      ",
"                    ###   ooo    OO@oOOO    OOOOOOOOOO          ",
"                     ##   @oo     OooO       O                  ",
"                      #   @@       oo                           ",
"                          @@       oo                           ",
"                          @@       @@                           ",
"                          @@       @@                           ",
"                          @@       @@                           ",
"                           @       @@                           ",
"                           @       @@                           ",
"                          @@       @@                           ",
"                         @@@       @@@                          ",
"                        @@@@       @@@                          ",
"                       @&&&@@     @@@@&                         "
};
