/* XPM */
static char *_5bcd56350f9455696e239391d84d3d9409ozvJUWKHnjnTs[] = {
/* columns rows colors chars-per-pixel */
"32 32 16 1 ",
"  c None",
". c black",
"X c #222034",
"o c #323C39",
"O c #45283C",
"+ c #4B692F",
"@ c #3F3F74",
"# c #595652",
"$ c #696A6A",
"% c #AC3232",
"& c #D95763",
"* c #6ABE30",
"= c #FBF236",
"- c #99E550",
"; c #847E87",
": c white",
/* pixels */
"                                ",
"                                ",
"               OO               ",
"              XOOX              ",
"             XXOOXX             ",
"            XXXOOXXX            ",
"            XXXOOXXX            ",
"            XXXOOXXX            ",
"           XXoXOOXoXX           ",
"          o*+*oOOo*+*o          ",
"         *------------*         ",
"         --------------         ",
"        +-+++*----*+++-+        ",
"       -+-*%%+----+%%*-+-       ",
"       *+--%&------&%--+*       ",
"       =+--------------+=       ",
"       +*--------------*+       ",
"       +---::------::---+       ",
"       +*--::------::--*+       ",
"       o+*-::------::-*+o       ",
"      ;@o++++++++++++++o@;      ",
"     ;$@@@@@++++++++@@@@@$;     ",
"    ;$#@@@@@@@@++@@@@@@@@#$;    ",
"    $##o@@@@@@@@@@@@@@@@o##$    ",
"    ###oo@@@@@@@@@@@@@@oo###    ",
"    #*# o@@@@@====@@@@@o #*#    ",
"    ***  %%%%%=..=%%%%%  ***    ",
"    ===   @@@%%%%%%@@@   ===    ",
"    ooo   **+@%%%%@+**   ooo    ",
"          --*+ %% +*--          ",
"          oooo    oooo          ",
"          oooo    oooo          "
};
