/* XPM */
static char *door_left[] = {
/* columns rows colors chars-per-pixel */
"32 64 11 1 ",
"  c #000203",
". c #0B0008",
"X c #0F211E",
"o c #3F132D",
"O c #4C273C",
"+ c #6A3C4F",
"@ c #384844",
"# c #535B5A",
"$ c #724E5F",
"% c #80676C",
"& c #939393",
/* pixels */
"@@@@@@@@@@@@@ @@@@@@@@X@@@@@@@@@",
"@@@@@@@@@@@@# #@@@@@@@X@@@@@@@@@",
"############@ @#######X@#@@@@@@ ",
"XXXXXXXXXXXXX XXXXXXXXX@#@@@@@ X",
"             X        X@#@@@@@XX",
"XXXXXXXXXXXXX XXXXXXXX @#@@@@@#X",
"@@@@@@@@@@@@X X@@@@@@@@ @#@@@@@#",
"@@@@@@@@@@@@@X#@@@@@XXX  @#@@@@@",
"@@@@@@@@@@@@@X#@@@XXX     @@@@@@",
"@@@@@@@@@@@@@ @@X               ",
"@@@@@@@@@@@XXXX   .  ...        ",
"@@@@@@@@@@XX   ................ ",
"@@@@@@@@@XX   ................. ",
"XXXXXXX@@X   .................. ",
"        X   ......+.+o..o..O++O ",
"#@@@@@@XX   .....++.O.Ooo.O++Oo ",
"@@@@@@@    .....++O..Oooo.o+++O ",
"@@@@@X    .....+++O.O++oo.o++Oo ",
"@@@@@X   .....+$++O.O+OoO.ooO+O ",
"@@@@X   .....O++o+O..O+OO.o+OoO ",
"@@@@X  ......O++++O.oOOOo...ooo ",
"@@@@   ......O++++O.O+$+o.O+..O ",
"@@@@   ....+.O++++O.O++OO.o+++. ",
"@@@@  .....+.O++++O.O+++o.O++++ ",
"@@@@  ....o+.O++++O.O+$Oo.O+++% ",
"@@@@  ....O+.O++++O.o+OOo.O+%%O ",
"@@@@  ...OO+.O++++O..OOOo.%%oOO ",
"@@@@  ...OO+.O$+$+O.oOOOo.OOooo ",
"@@@X ....OO+.O$O++O.oOooo.OOOo. ",
"X@X  ...OOO+.O+OO+$.OOOo...o.oo ",
" X  X...OOO+.O$Oo+$.%Oooo..o... ",
"@@@#@ ..o$O+.O$OO+$.$%Ooo.ooo.. ",
"@@@@# ..o$O+.O$+O++.+$%OO.OOOOO ",
"@@@@# .OoOOO.O$+O+$.+$$%%.OOOOO ",
"@@@@@ .OoOoO.O$OOO+.++$$+.%%%%% ",
"@@@@@ .OoOoO.O$O.o+.O+$$O.+o.o+ ",
"@@@@@ .OoOoO.O$. .o.O+$$+.+O.oO ",
"@@@@@ .OoOo+.O$O..o.$$+Oo.O+O+% ",
"@@@@@ .OoOo+.O$OOOO.$$.  .O$$$$ ",
"@@@@@ oOoOo+.O$O$++.%. @@ .$%+O ",
"@@@@@ oOoOO+.O$OOO$..&@##@X.$$$ ",
"@@@@X oOoOo+.O$OOOO.&#@@@@XX$$$ ",
"@@@@X oOoOo+.O$OOOO.&#    XX.%$ ",
"X@XX  ooooo+.O$O+OO.&#    X@.%$ ",
"     .oOooo+.O$OOOO.#&    @@.%$ ",
"#@@X .oOoOoo.O$OOOO.@#&&##@X.$$ ",
"@@@@ .oOoOoo.O$OOOO .@@@@@X $$% ",
"@@@@ .oOoOoo O$+OOO +...   +$%% ",
"@@@@  ooooOo O$+OOO ++OOo.o.... ",
"@@@@ .ooooOo O$OOOO.++OOO...... ",
"@@@@  oooooo.O$OOOO OOOOO...oO. ",
"@@@@  .ooooo.O$OOoO OOooO...o$O ",
"@@@@ ..ooooo.O$OooO OoooO.$o.O$ ",
"@@@X  .oooo. O$.ooo OoOOO.OOOOO ",
"@@@@  .oo.o. O$.ooo ooOOO.OOOOO ",
"@@XX  ..o.oo O$oo.oooOOOO.OoOO$.",
"@@@X   ..oo. O$.ooooooOOO.O.OO$ ",
"@@@@   o.o.. O$..o. ooOOO.O.OO$ ",
"@@@@   ...o. O$..o. OoOoo. .OO$ ",
" XX@@  ...o. O$..oo ooooo. OOO$ ",
"#####   ..o. O$..o. .oooo OOO$o.",
"#####    ... oO....  .... .OO$o ",
"@@@@@     .  o.....  ....  ..oo ",
"@@@@@           ..   ...   ...  "
};
