/* XPM */
static char *door_right[] = {
/* columns rows colors chars-per-pixel */
"32 64 12 1 ",
"  c #000203",
". c #0B0008",
"X c #050310",
"o c #0F211E",
"O c #3F132D",
"+ c #4C273C",
"@ c #6A3C4F",
"# c #384844",
"$ c #535B5A",
"% c #724E5F",
"& c #80676C",
"* c #939393",
/* pixels */
"########## o######## ###########",
" ######### o#######$ $##########",
"o ######$# o$$$$$$$# #$$$$$$$$$$",
"oo #####$# #oooooooo#ooooooooooo",
"ooo#####$# .        o           ",
"oo$#####$# ooooooooo ooooooooooo",
"o$#####$# oo#######o o##########",
"$#####$#   oooo#####o$##########",
"#######       oooo##o$##########",
"                 oo#o###########",
"       .......    ooo###########",
"................    oo##########",
"..................   o##########",
"....................  oo###ooooo",
".+@@+..O..O@.........   ooo     ",
".O+@@+.OO+.+.@........  o##o#$$$",
".+@@@O.OOO+..+@........ oo#o$#$#",
".O+@@O.OO@@+.+@@.......  o#o$$##",
".+@+OO.+O+@+.+@@%.......  oo$###",
".+O+@O.++@+..+@O@@+.....  oo$###",
".OOO...O+++O.+@@@@+......  o####",
".+..@+.O@%@+.+@@@@+.@....  o$###",
"..@@@O.++@@+.+@@@@+.@..... o####",
".@@@@+.O@@@+.+@@@@+.@+.... o####",
".&@@@+.O+%@+.+@@@@+.@O.... o####",
".+&&@+.O++@O.+@@@@+.@+.... o####",
".++O&&.O+++..+@@@@+.@++... o####",
".OOO++.O+++O.+@%@%+.@++... o####",
"..O+++.OOO+O.+@@+%+.@+++...oX###",
".OO.O...O+++.%@++@+.@++++..ooXoo",
"....O..OOO+&.%@O+%+.@+++O..o    ",
"...OOO.OO+&%.%@++%+.@+O.O. #$$$$",
".+++++.++&%@.@@+@%+.@+O .. $####",
".+++++.&&%%@.%@+@%+.++O .. $####",
".&&&&&.@%%@@.@+++%+.+O+ .. #####",
".@O.O@.+%%@+.@O.+%+.+O+ .. $####",
".+O.+@.@%%@+.O. .%+.+O+ .. $####",
".&@+@+.O+@%%.O..+%+.@O+... $####",
".%%%%%.  .+%.++++%+.@O+O+. #####",
".+@%&. ## .%.@@%+%+.@O+O+O #####",
".%%&.*#$$#o..%+++%+.@++O+O #####",
".%%.*$####oo.++++%+.@O+O+O #####",
".%&.*$    oo.++++%+.@O+O+O o####",
".%&.*$    o#.++@+%+.@OOOOO oooXo",
".%&.$*    ##.++++%+.@OOO+O.     ",
".%%.#$**$$#o.++++%+.OO+O+O.  $$$",
".&%%.#####o .++++%+.OO+O+O.  ###",
".&&%%...   @.+++@%+ OO+O+O.  ###",
".....O.O++@@ +++@%+ O+OOOO   ###",
".......+++@@.++++%+ O+OOOO   ###",
"..+O...+++++ ++++%+.OOO.OO   ###",
".+%O...+OO++ +O++%+.OOO...   ###",
".%+.O%.+OOO+ +OO+%+.OOO ..   ###",
".+++++.+++O+ OOO.%+ .OO ..   ###",
".+++++.+++OO OOO.%+ .O. ..   ###",
".%++O+.++++OOO.OO%+ OO. ..   ###",
".%++.+.+++OOOOOO.%+ .OO..    ###",
".%++.+.+++OO .O..%+ ..O.O    ###",
".%++. .OO+O+ .O..%+ .O...    ###",
".%+++ .OOOOO OO..%+ .O...   oooo",
"+O%+++ OOOO. .O..%+ .O..    $$$$",
".O%++. ....  ....+. ...     $$$$",
".OO..   ...  .....  ..      ####",
". ..     ..   ..            ####"
};
