/* XPM */
static char *door_anim_Image_Frames_1[] = {
/* columns rows colors chars-per-pixel */
"25 25 49 1 ",
"  c None",
". c #060F0E",
"X c #060F0F",
"o c #07100F",
"O c #071110",
"+ c #091513",
"@ c #0A1615",
"# c #0C1716",
"$ c #0B1917",
"% c #0E1E1B",
"& c #0E201D",
"* c #0F201D",
"= c #0F211E",
"- c #112320",
"; c #152321",
": c #172220",
"> c #172221",
", c #172322",
"< c #132522",
"1 c #142522",
"2 c #162522",
"3 c #142622",
"4 c #192524",
"5 c #1C2725",
"6 c #1D2726",
"7 c #192926",
"8 c #192B27",
"9 c #1C2826",
"0 c #1D2928",
"q c #1B2C29",
"w c #1B2D29",
"e c #1B2D2A",
"r c #1C2C29",
"t c #1C2C2A",
"y c #1C2D2A",
"u c #1C2E2A",
"i c #1E2E2B",
"p c #1E2E2C",
"a c #1F2E2C",
"s c #1F2F2C",
"d c #222B2A",
"f c #202F2C",
"g c #20302D",
"h c #21302E",
"j c #21312E",
"k c #21322F",
"l c #22332F",
"z c #24302E",
"x c #223330",
/* pixels */
"=1ufwwjuus8ujusswujwwsu1=",
"u 69   ,6 ,z  d ,,   66 @",
"j                       .",
"u                       O",
"j                       O",
"j                       o",
"w                       o",
"j                       o",
"j                       o",
"x                       o",
"8                       o",
"=                       o",
"<                       #",
"-1                     ,@",
"8                       O",
"j                       o",
"j                       o",
"j                       o",
"j                       o",
"x                       o",
"w                       O",
"%                       O",
"=                .      .",
"= 60   46 ,z  d ,,   0  O",
"=1uswwjuus8ujusswujwwsu<$"
};
