/* XPM */
static char *door_anim_Image_Frames_4[] = {
/* columns rows colors chars-per-pixel */
"25 25 102 2 ",
"   c None",
".  c #030909",
"X  c #030A0A",
"o  c #05090A",
"O  c #040B0B",
"+  c #060A0B",
"@  c #050C0C",
"#  c #060C0D",
"$  c #060E0D",
"%  c #060F0E",
"&  c #060F0F",
"*  c #070F0F",
"=  c #090A0D",
"-  c #080D0F",
";  c #080F0F",
":  c #06100F",
">  c #07100F",
",  c #0B0E10",
"<  c #0A0F10",
"1  c #0B0F11",
"2  c #0C0E11",
"3  c #0C0F12",
"4  c #0D0F12",
"5  c #071010",
"6  c #071110",
"7  c #081010",
"8  c #091011",
"9  c #091111",
"0  c #081211",
"q  c #081311",
"w  c #0B1012",
"e  c #0A1112",
"r  c #081312",
"t  c #0B1213",
"y  c #0A1313",
"u  c #0C1012",
"i  c #081412",
"p  c #091412",
"a  c #0B1515",
"s  c #0A1615",
"d  c #0C1615",
"f  c #0C1716",
"g  c #0E1716",
"h  c #0B1917",
"j  c #0F1918",
"k  c #0E1A18",
"l  c #0E1A19",
"z  c #0F1B19",
"x  c #0E1E1B",
"c  c #101C1A",
"v  c #111C1A",
"b  c #121D1B",
"n  c #111D1C",
"m  c #131D1C",
"M  c #111E1C",
"N  c #111F1D",
"B  c #131E1D",
"V  c #131F1D",
"C  c #141E1E",
"Z  c #0E201D",
"A  c #0F211E",
"S  c #12201E",
"D  c #112320",
"F  c #152321",
"G  c #162220",
"H  c #172220",
"J  c #172221",
"K  c #162321",
"L  c #172321",
"P  c #132522",
"I  c #142522",
"U  c #162522",
"Y  c #142622",
"T  c #182221",
"R  c #192222",
"E  c #182322",
"W  c #192322",
"Q  c #1C2725",
"!  c #1D2726",
"~  c #192926",
"^  c #192B27",
"/  c #1C2826",
"(  c #1F2827",
")  c #1B2C29",
"_  c #1B2D29",
"`  c #1B2D2A",
"'  c #1C2C29",
"]  c #1C2C2A",
"[  c #1C2D2A",
"{  c #1C2E2A",
"}  c #1E2E2B",
"|  c #1E2E2C",
" . c #1F2F2C",
".. c #212E2C",
"X. c #202F2C",
"o. c #20302D",
"O. c #21302E",
"+. c #21312E",
"@. c #21322F",
"#. c #22332F",
"$. c #24302E",
"%. c #223330",
/* pixels */
"A I { X.{ _ +.{ {  .^ { +.{  . ._ { +._ _  .{ I A ",
"{   ! /       E !   H $.  X.!   E H       / !   g ",
"+.            0     X       X     %             2 ",
"{             0     %       %     6             u ",
"+.            0                   6             0 ",
"+.            0                   6             0 ",
"_             0                   6             2 ",
"+.            0                   6             0 ",
"+.            p                   0             : ",
"%.          % 6 0               : % p           : ",
"^       :     0     ;       2     6     ,       2 ",
"A       +     0     %       %     :     =       , ",
"P     n       g     g       g     g       C     g ",
"D I H n c H c j n H j S H n j E n j n E c n H H s ",
"^     p %     6   X %       ; +   :     % p     6 ",
"+.            6                   :             : ",
"+.            0                   6             2 ",
"+.            0                   6             0 ",
"+.            0                   6             : ",
"%.            0                   6             : ",
"{             0                   6             0 ",
"x             0     ,       %     6             u ",
"A             0     +       X     %             , ",
"A   ! /       E !   H $.  X.!   H H       / !   6 ",
"A I { X._ _ +.{ {  .^ { +.{  . ._ { +._ _  .{ P h "
};
