/* XPM */
static char *door0[] = {
/* columns rows colors chars-per-pixel */
"64 64 12 1 ",
"  c #000203",
". c #0B0008",
"X c #050310",
"o c #0F211E",
"O c #3F132D",
"+ c #4C273C",
"@ c #6A3C4F",
"# c #384844",
"$ c #535B5A",
"% c #724E5F",
"& c #80676C",
"* c #939393",
/* pixels */
"############# ########o################### o######## ###########",
"############$ $#######o######### ######### o#######$ $##########",
"$$$$$$$$$$$$# #$$$$$$$o#$###### o ######$# o$$$$$$$# #$$$$$$$$$$",
"ooooooooooooo ooooooooo#$##### ooo #####$# #oooooooo#ooooooooooo",
"             o        o#$#####ooooo#####$# .        o           ",
"ooooooooooooo oooooooo #$#####$ooo$#####$# ooooooooo ooooooooooo",
"############o o######## #$#####$o$#####$# oo#######o o##########",
"#############o$#####ooo  #$#####$#####$#   oooo#####o$##########",
"#############o$###ooo     #############       oooo##o$##########",
"############# ##o                                oo#o###########",
"###########oooo   .  ...               .......    ooo###########",
"##########oo   ................ ................    oo##########",
"#########oo   ................. ..................   o##########",
"ooooooo##o   .................. ....................  oo###ooooo",
"        o   ......@.@O..O..+@@+ .+@@+..O..O@.........   ooo     ",
"$######oo   .....@@.+.+OO.+@@+O .O+@@+.OO+.+.@........  o##o#$$$",
"#######    .....@@+..+OOO.O@@@+ .+@@@O.OOO+..+@........ oo#o$#$#",
"#####o    .....@@@+.+@@OO.O@@+O .O+@@O.OO@@+.+@@.......  o#o$$##",
"#####o   .....@%@@+.+@+O+.OO+@+ .+@+OO.+O+@+.+@@%.......  oo$###",
"####o   .....+@@O@+..+@++.O@+O+ .+O+@O.++@+..+@O@@+.....  oo$###",
"####o  ......+@@@@+.O+++O...OOO .OOO...O+++O.+@@@@+......  o####",
"####   ......+@@@@+.+@%@O.+@..+ .+..@+.O@%@+.+@@@@+.@....  o$###",
"####   ....@.+@@@@+.+@@++.O@@@. ..@@@O.++@@+.+@@@@+.@..... o####",
"####  .....@.+@@@@+.+@@@O.+@@@@ .@@@@+.O@@@+.+@@@@+.@+.... o####",
"####  ....O@.+@@@@+.+@%+O.+@@@& .&@@@+.O+%@+.+@@@@+.@O.... o####",
"####  ....+@.+@@@@+.O@++O.+@&&+ .+&&@+.O++@O.+@@@@+.@+.... o####",
"####  ...++@.+@@@@+..+++O.&&O++ .++O&&.O+++..+@@@@+.@++... o####",
"####  ...++@.+%@%@+.O+++O.++OOO .OOO++.O+++O.+@%@%+.@++... o####",
"###o ....++@.+%+@@+.O+OOO.+++O. ..O+++.OOO+O.+@@+%+.@+++...oX###",
"o#o  ...+++@.+@++@%.+++O...O.OO .OO.O...O+++.%@++@+.@++++..ooXoo",
" o  o...+++@.+%+O@%.&+OOO..O... ....O..OOO+&.%@O+%+.@+++O..o    ",
"###$# ..O%+@.+%++@%.%&+OO.OOO.. ...OOO.OO+&%.%@++%+.@+O.O. #$$$$",
"####$ ..O%+@.+%@+@@.@%&++.+++++ .+++++.++&%@.@@+@%+.@+O .. $####",
"####$ .+O+++.+%@+@%.@%%&&.+++++ .+++++.&&%%@.%@+@%+.++O .. $####",
"##### .+O+O+.+%+++@.@@%%@.&&&&& .&&&&&.@%%@@.@+++%+.+O+ .. #####",
"##### .+O+O+.+%+.O@.+@%%+.@O.O@ .@O.O@.+%%@+.@O.+%+.+O+ .. $####",
"##### .+O+O+.+%. .O.+@%%@.@+.O+ .+O.+@.@%%@+.O. .%+.+O+ .. $####",
"##### .+O+O@.+%+..O.%%@+O.+@+@& .&@+@+.O+@%%.O..+%+.@O+... $####",
"##### .+O+O@.+%++++.%%.  .+%%%% .%%%%%.  .+%.++++%+.@O+O+. #####",
"##### O+O+O@.+%+%@@.&. ## .%&@+ .+@%&. ## .%.@@%+%+.@O+O+O #####",
"##### O+O++@.+%+++%..*#$$#o.%%% .%%&.*#$$#o..%+++%+.@++O+O #####",
"####o O+O+O@.+%++++.*$####oo%%% .%%.*$####oo.++++%+.@O+O+O #####",
"####o O+O+O@.+%++++.*$    oo.&% .%&.*$    oo.++++%+.@O+O+O o####",
"o#oo  OOOOO@.+%+@++.*$    o#.&% .%&.*$    o#.++@+%+.@OOOOO oooXo",
"     .O+OOO@.+%++++.$*    ##.&% .%&.$*    ##.++++%+.@OOO+O.     ",
"$##o .O+O+OO.+%++++.#$**$$#o.%% .%%.#$**$$#o.++++%+.OO+O+O.  $$$",
"#### .O+O+OO.+%++++ .#####o %%& .&%%.#####o .++++%+.OO+O+O.  ###",
"#### .O+O+OO +%@+++ @...   @%&& .&&%%...   @.+++@%+ OO+O+O.  ###",
"####  OOOO+O +%@+++ @@++O.O.... .....O.O++@@ +++@%+ O+OOOO   ###",
"#### .OOOO+O +%++++.@@+++...... .......+++@@.++++%+ O+OOOO   ###",
"####  OOOOOO.+%++++ +++++...O+. ..+O...+++++ ++++%+.OOO.OO   ###",
"####  .OOOOO.+%++O+ ++OO+...O%+ .+%O...+OO++ +O++%+.OOO...   ###",
"#### ..OOOOO.+%+OO+ +OOO+.%O.+% .%+.O%.+OOO+ +OO+%+.OOO ..   ###",
"###o  .OOOO. +%.OOO +O+++.+++++ .+++++.+++O+ OOO.%+ .OO ..   ###",
"####  .OO.O. +%.OOO OO+++.+++++ .+++++.+++OO OOO.%+ .O. ..   ###",
"##oo  ..O.OO +%OO.OOO++++.+O++%..%++O+.++++OOO.OO%+ OO. ..   ###",
"###o   ..OO. +%.OOOOOO+++.+.++% .%++.+.+++OOOOOO.%+ .OO..    ###",
"####   O.O.. +%..O. OO+++.+.++% .%++.+.+++OO .O..%+ ..O.O    ###",
"####   ...O. +%..O. +O+OO. .++% .%++. .OO+O+ .O..%+ .O...    ###",
" oo##  ...O. +%..OO OOOOO. +++% .%+++ .OOOOO OO..%+ .O...   oooo",
"$$$$$   ..O. +%..O. .OOOO +++%O.+O%+++ OOOO. .O..%+ .O..    $$$$",
"$$$$$    ... O+....  .... .++%O .O%++. ....  ....+. ...     $$$$",
"#####     .  O.....  ....  ..OO .OO..   ...  .....  ..      ####",
"#####           ..   ...   ...  . ..     ..   ..            ####"
};
