/* XPM */
static char *wall2[] = {
/* columns rows colors chars-per-pixel */
"64 64 8 1 ",
"  c #000203",
". c #0B0008",
"X c #050310",
"o c #162301",
"O c #0F211E",
"+ c #444417",
"@ c #384844",
"# c #535B5A",
/* pixels */
"@@@@@@@@@@@@@ @@@@@@@@@@@@@@@@@@@ @@@@@@@@@@@@@@@@@@ @@@@@@@@@@@",
"@@@@@@@@@@@@# #@@@@@@@@@@@@@@@@@# #@@@@@@@@@@@@@@@@# #@@@@@@@@@@",
"############@ @#################@ @################@ @##########",
"OOOOOOOOOOOOO OOOOOOOOOOOOOOOOOOO OOOOOOOOOOOOOOOOOO@OOOOOOOOOOO",
"             O                                      O           ",
"OOOOOOOOOOOOO OOOOOOOOOOOOOOOOOOO OOOOOOOOOOOOOOOOOO OOOOOOOOOOO",
"@@@@@@@@@@@@O O@@@@@@@@@@@@@@@@@O O@@@@@@@@@@@@@@@@O O@@@@@@@@@@",
"@@@@@@@@@@@@@O#@@@@@@@@@@@@@@@@@@O#@@@@@@@@@@@@@@@@@O#@@@@@@@@@@",
"@@@@@@@@@@@@@O#@@@@@@@@@@@@@@@@@@ #@@@@@@@@@@@@@@@@@O#@@@@@@@@@@",
"@@@@@@@@@@@@@ @@@@@@@@@@@@@@@@@@@ @@@@@@@@@@@@@@@@@@ @@@@@@@@@@@",
"@@@@@@@@@@@@O @@@@@@@@@@@@@@@@@@OO@@@@@@@@@@@@@@@@@O @@@@@@@@@@@",
"@@@@@@@@@@@@O @@@@@@@@@@@@@@@@@@O @@@@@@@@@@@@@@@@@OO@@@@@@@@@@@",
"@@@@@@@@@O@OXOX@@@@@@@@@@@@@@O@OX X@@@@@@@@@@@@@@@@X O@@@@@@@@@@",
"OOOOOOOOOOOO  OXOOOOOOOOOOOOO.OO  OXOOOOOOOOOOOO.OO  OXOOOOOOOOO",
"                                                                ",
"###@###@ @#######@####@ @############@@###@O@#######@#####@O@###",
"@@@@@@@OO#@#@@@@@@@@@@#O#@@@@@@@@@@@@@@@@@#O#@#@@@@@@@@@@@#O#@#@",
"@@@@@@@@ ##@@@@@@@@@@@# #@##@@@@@@@@@@@@@@#O##@@@@@@@@@@@@#O##@@",
"@@@@@@@@O#@@@@@@@@@@@@#O#@##@@@@@@@@@@@@@@#O#@@@@@@@@@@@@@#O#@@@",
"@@@@@@@@O#@@@@@@@@@@@@@O#@@@@@@@@@@@@@@@@@@.#@@@@@@@@@@@@@@.#@@@",
"@@@@@@@@.@@@@@@@@@@@@@@.@@@@@@@@@@@@@@@@@@@.@@@@@@@@@@@@@@@.@@@@",
"@@@@@@@@.#@@@@@@@@@@@@@.#@@@@@@@@@@@@@@@@@@O#@@@@@@@@@@@@@@O#@@@",
"@@@@@@@@O@@@@@@@@@@@@@@O#@@@@@@@@@@@@@@@@@@.@@@@@@@@@@@@@@@.@@@@",
"@@@@@@@@O@@@@@@@@@@@@@@ #@@@@@@@@@@@@@@@@@@O@@@@@@@@@@@@@@@O@@@@",
"@@@@@@@@O@@@@@@@@@@@@@@O#@@@@@@@@@@@@@@@@@@O@@@@@@@@@@@@@@@O@@@@",
"@@@@@@@@.@@@@@@@@@@@@@@.@@@@@@@@@@@@@@@@@@@ @@@@@@@@@@@@@@@ @@@@",
"@@@@@@@@ @@@@@@@@@@@@@@O@@@@@@@@@@@@@@@@@@O @@@@@@@@@@@@@@@ @@@@",
"@@@@@@@OO@@@@@@@@@@@@@OO@@@@@@@@@@@@@@@@@@O @@@@@@@@@@@@@@O @@@@",
"@@@@@@O  X@@@@@@@@@@@@X X@@@@@@@@@@@@@@@O@XOX@@@@@@@@@@@OXXOX@@@",
"OOOOOO O OXOOOOOOOOOOOO OXOOOOOOO   OOO.OO  OXOOOOOOOOOOOOO OXOO",
"                                                                ",
"@@ @##########@@                                    @###########",
"@@ ##@@@@@@@@@@@O                                   ##@@@@@@@@@@",
"@@O#@@@@@@@@@@@@O                                  O#@@@@@@@@@@@",
"@@O#@@@@@@@@@@@                                    O#@@@@@@@@@@@",
"@@.#@@@@@@@@@@@O                                   O#@@@@@@@@@@@",
"@@.@@@@@@@@@@@@O                                   O@@@@@@@@@@@@",
"@@.#@@@@@@@@@@@@O                                  O#@@@@@@@@@@@",
"@@.@@@@@@@@@@@@@O                                  O@@@@@@@@@@@@",
"@@O@@@@@@@@@@@@@                                   O@@@@@@@@@@@@",
"@@O@@@@@@@@@@@@@                o    o             O@@@@@@@@@@@@",
"@@O@@@@@@@@@O @@                 o    O         o  O@@@@@@@@@@@@",
"@O O@@@@@@@O O                   o  oOOO   OO   o   O@@@@@@@@@@@",
"O   OOOOO  O                      o  OO    O    o    OOOOO   OXO",
"                                     OOOOO  OO  OO              ",
"###@@###@O                      @@o#####@@@ @###################",
"@@@@@@@@#O               o     O@#@@@@@@@@#O#@@@@@@@@@@@@@@@@@@@",
"@@@@@@@@#                 oOOOO#@@@@@@@@@@#O#@##@@@@@@@@@@@@@@@@",
"@@@@@@@@#                 o@##@@@@@@@@@@@@#O#@##@@@@@@@@@@@@@@@@",
"@@@@@#@@@O                 @@@@@@@@@@@@@@@@.#@@@@@@@@@@@@@@@@@@@",
"@@@@#@#@@O                O@@@@@@@@@@@@@@@@.@@@@@@@@@@@@@@@@@@@@",
"@@@@@#@@@O                 #@@@@@@@@@@@@@@@O#@@@@@@@@@@@@@@@@@@@",
"@@@@@@@@@                  #@@@@@@@@@@@@@@@.#@@@@@@@@@@@@@@@@@@@",
"@@@@@@@@@                  #@@@@@@@@@@@@@@@O#@@@@@@@@@@@@@@@@@@@",
"@@@@@@@@@                  #@@@@@@@@@@@@@@@O#@@@@@@@@@@@@@@@@@@@",
"@@@@@@@@@                 O@@@@@@@@@@@@@@@@ @@@@@@@@oo@@@@@@@@@@",
"@@@@@@@@OO                 @@@@@@@@@@@@@#@O @@@@@@@@@oo@@@@@@@@@",
"@@@@@@@@OO                 @@@@@@@@@@@@#@@O O@@@@@@@@@oo@@@@@@@@",
"@@@@@@@@XO     o    o     OX@@@@@@@@@@@@@OXOXO@@@@@@@@@o @@@@@@o",
"  OOO.OOoO O   o          OoXOOOOOO oOOO.O  OoOOOOOOO  ooOOO  o ",
"########o  OO  Oo+O  o    #o ######o######@O o###o#### oo#@@Oo #",
"###o#####o  o oOooO  oo   ##o#####oo##o##o# o### o####o o###oo #",
"@@@ @@o@o ooo@oo o@@o @@@oo@ o@o oo o@ o@oooo@@@ooo@ oo oo@@o  @",
"    oo oo o ooo oooo ooooo   oo  o   o ooo  ooooo   ooo ooo oo o"
};
