/* XPM */
static char *wall3[] = {
/* columns rows colors chars-per-pixel */
"64 64 9 1 ",
"  c #000203",
". c #0B0008",
"X c #050310",
"o c #162301",
"O c #0F211E",
"+ c #444417",
"@ c #384844",
"# c #535B5A",
"$ c #939393",
/* pixels */
"@@@@@@@@@@@@@ @@@@@@@@@@@@@@@@@@@ @@@@@@@@@@@@@@@@@@ @@@@@@@@@@@",
"@@@@@@@@@@@@# #@@@@@@@@@@@@@@@@@# #@@@@@@@@@@@@@@@@# #@@@@@@@@@@",
"############@ @#################@ @################@ @##########",
"OOOOOOOOOOOOO OOOOOOOOOOOOOOOOOOO OOOOOOOOOOOOOOOOOO@OOOOOOOOOOO",
"             O                                      O           ",
"OOOOOOOOOOOOO OOOOOOOOOOOOOOOOOOO OOOOOOOOOOOOOOOOOO OOOOOOOOOOO",
"@@@@@@@@@@@@O @@#@@OO##@O@O@###@@@@@@@@O@@@@@@@@@@@O O@@@@@@@@@@",
"@@@@@@@@@@@@@O@#@@O@##@@@O@##@@@@@@@@@@ OO@@@@@@@@@@O#@@@@@@@@@@",
"@@@@@@@@@@@@@O#@@O@##@@@@ O@@@@@@@@@@@O###OO@@@@@@@@O#@@@@@@@@@@",
"@@@@@@@@@@@@@ @@O###@@@@@@ O@@OOOOO@@@ ##@#@O@@@@@@@ @@@@@@@@@@@",
"@@@@@@@@@@@@O @@O#@@@@@@@O  XX    O   @@@@@@@O@@@@@O @@@@@@@@@@@",
"@@@@@@@@@@@@O @@O#@@@@@OOOX           OO@@@@@@O@@@@OO@@@@@@@@@@@",
"@@@@@@@@@O@@@O@@OOO@@@OOO             XOO@@@@@@O@@O@O@@@@@@@@@@@",
"OOOOOOOOOOO@O OO@   OOOO                XOO@@@@O@O@O OOOOOOOOOOO",
"           O O O  O  X         X               O    O  OO       ",
"###@###@ @###@OO#@#O           OO           XO@@#####O@@@#@O@###",
"@@@@@@@OO###@O@#@@@O           OO           XO@##@@@@#O@@@#O#@#@",
"@@@@@@@@ @#@O@##@@OX            O            O@#@@@@@@#O@@#O##@@",
"@@@@@@@@O#@OO##@@@X             O            O@@@@@@@@#O@@#O#@@@",
"@@@@@@@@O@O@O#@@@@X            O@             O@@@@@@@O@@@@.#@@@",
"@@@@@@@@.@@O#@@@@O             O@             XO@@@@@OO@@@@.@@@@",
"@@@@@@@@.@OO@@@@OX             O@              O@@@@@O@O@@@O#@@@",
"@@@@@@@@ O@O@@O                O@O             O@@@@O@O@@@@.@@@@",
"@@@@@@@@ O O                   O@ O               O  O@O@@@O@@@@",
"@@@@@@@@O####@O            O   O@  O             O##@OO@@@@O@@@@",
"@@@@@@@@ #@@@@@O          O    O@   O           OO@@@O@@@@@ @@@@",
"@@@@@@@@O@@@@@@@O        O     OOO   O         XOO@@@@O@@@@ @@@@",
"@@@@@@@OO@@@@@@@X              O@ O   O        XO@@@@@O@@@O @@@@",
"@@@@@@O O@@@@@@@X   OOO OO@@@O O@ OO@@@@OOO     O@@@@@O@@@XOX@@@",
"OOOOOO O O O@@@O               O@                @@@@@OOOOO OXOO",
"           O                   O@                O  OOOO        ",
"@@ @####O@OO###@               O@               O @###@@@O######",
"@@ ##@@@@OO#@@@@O              O@               O@@@@@@@@O@@@@@@",
"@@O#@@@@@@O#@@@@X              O@              X @@@@@@@@O@@@@@@",
"@@O#@@@@@OO@@@@@X              O@               O@@@@@@@@O@@@@@@",
"@@.#@@@@@@OO@@@O               O@              XO@@@@@@@@O@@@@@@",
"@@.@@@@@@O@OOOO                OO               OO@@@@OOO@@@@@@@",
"@@.#@@@@@@O##@@O               OO                O  O   @@@@@@@@",
"@@.@@@@@@O##@@@OO              O@               @###@O @@O@@@@@@",
"@@O@@@@@@O#@@@@@               O@               #@@@@@OO@@@@@@@@",
"@@O@@@@@O##@@@@@               OO              O#@@@@@O@@@@@@@@@",
"@@O@@@@@@O@@@@@@X              OO              X@@@@@@O@@@@@@@@@",
"@O O@@@@OO@@@@@O               OO               O@@@@OO@@@@@@@@@",
"O   OOOOOO@@@@O X             OOO              X @@@O@OOOO   OXO",
"            OO                   O              OO    OOOO      ",
"###@@###@ @#####@####$$$$$$$$$$$$$$$$$$$$$$####@################",
"@@@@@@@@#O#@@@@@O##############################O@@@@@@@@@@@@@@@@",
"@@@@@@@@# #@@@@@O @@@@@@@@@@@@@@@@@@@@@@@@@@@@ O@@@@@@@@@@@@@@@@",
"@@@@@@@@#O#@@@@@O                              O@@@@@@@@@@@@@@@@",
"@@@@@#@@@O#@@@@@@OOOOOOOOOOOOOOOOOOOOOOOOOOOOOO@@@@@@@@@@@@@@@@@",
"@@@@#@#@@.@@@@@@@@@@@@@@@@.@@@@@@@@@@@@@@@@.@@@@@@@@@@@@@@@@@@@@",
"@@@@@#@@@.#@@@@@@@@@@@@@@@.#@@@@@@@@@@@@@@@O#@@@@@@@@@@@@@@@@@@@",
"@@@@@@@@@O#@@@@@@@@@@@@@@@O#@@@@@@@@@@@@@@@.#@@@@@@@@@@@@@@@@@@@",
"@@@@@@@@@O#@@@@@@@@@@@@@@@O#@@@@@@@@@@@@@@@O#@@@@@@@@@@@@@@@@@@@",
"@@@@@@@@@O#@@@@@@@@@@@@@@@O#@@@@@@@@@@@@@@@O#@@@@@@@@@@@@@@@@@@@",
"@@@@@@@@@.@@@@@@@@@@@@@@@@.@@@@@@@@@@@@@@@@ @@@@@@@@oo@@@@@@@@@@",
"@@@@@@@@OO@@@@@@@@@@@@@@@OO@@@@@@@@@@@@@#@O @@@@@@@@@oo@@@@@@@@@",
"@@@@@@@@OO@@@@@@@@@@@@@@@OO@@@@@@@@@@@@#@@O O@@@@@@@@@oo@@@@@@@@",
"@@@@@@@@X X@@@@o@@@@@@@@@X X@@@@@@@@@@@@@OXOXO@@@@@@@@@o @@@@@@o",
"  OOO.OOo OXOOOo O  OOO.O  oXOOOOOO oOOO.O  OoOOOOOOO  ooOOO  o ",
"########o @@####o+######@@Oo ######o######@O o###o#### oo#@@Oo #",
"###o#####o##o###oo###oo###@@o#####oo##o##o# o@## o####o o###oo #",
"@@@ @@o@o ooo@@o o@@o @@@oo@ o@o oo o@ o@oooo@@@ooo@ oo oo@@o  @",
"    oo oo o ooo oooo ooooo   oo  o   o ooo  ooooo   ooo ooo oo o"
};
