/* XPM */
static char *wall1[] = {
/* columns rows colors chars-per-pixel */
"64 64 10 1 ",
"  c #000203",
". c #0B0008",
"X c #050310",
"o c #1A0013",
"O c #162301",
"+ c #0F211E",
"@ c #3B0030",
"# c #444417",
"$ c #384844",
"% c #535B5A",
/* pixels */
"$$$$$$$$$$$$$ $$$$$$$$$$$$$$$$$$$ $$$$$$$$$$$$$$$$$$ $$$$$$$$$$$",
"$$$$$$$$$$$$% %$$$$$$$$$$$$$$$$$% %$$$$$$$$$$$$$$$$% %$$$$$$$$$$",
"%%%%%%%%%%%%$ $%%%%%%%%%%%%%%%%%$ $%%%%%%%%%%%%%%%%$ $%%%%%%%%%%",
"+++++++++++++ +++++++++++++++++++ ++++++++++++++++++$+++++++++++",
"             +                                      +           ",
"+++++++OO++++ +++++++++++++++++++ ++++++++++++++++++ +++++++++++",
"$$$$$$$o $$$+ +$$$$$$$$$$$$$$$$$+ +$$$$$$$$$$$$$$$$+ +$$$$$$$$$$",
"$$$$$$O $$$$$+%$$$$$$$$$$$$$$$$$$+%$$$$$$$$$$$$$$$$$+%$$$$$$$$$$",
"$$$$$$$$$$$$$+%$$$$$$$$$$$$$$$$$$ %$$$$$$$$$$$$$$$$$+%$$$$$$$$$$",
"$$$$$$ $$$$$$ $$$$$$$$$$$$$$$$$$$ $$$$$$$$$$$$$$$$$$ $$$$$$$$$$$",
"$$$$$$O$$$$$+ $$$$$$$$$$$$$$$$$$++$$$$$$$$$$$$$$$$$+ $$$$$$$$$$$",
"$$$$$oO+$$$$+ $$$$$$$$$$$$$$$$$$+ $$$$$$$$$$$$$$$$$++$$$$$$$$$$$",
"$$$$$$O+$+$+X+X$$$$$$$$$$$$$$+$+X X$$$$$$$$$$$$$$$$X +$$$$$$$$$$",
"++++++O+++++  +X+++++++++++++.++  +X++++++++++++.++  +X+++++++++",
"                                                                ",
"%%%$%% + $%%%%%%%$%%%%$ $%%%%%%%%%%%%$$%%%$+$%%%%%%+$       $%%%",
"$$$$$$O++%$%$$$$$$$$$$%+%$$$$$$$$$$$$$$$$$%+%$%$$$$++      +%$%$",
"$$$$$$$O %%$$$$$$$$$$$% %$%%$$$$$$$$$$$$$$%+%%$$$$$$%+$    +%%$$",
"$$$$$$$Oo%$$$$$$$$$$$$%+%$%%$$$$$$$$$$$$$$%+%$$$$$$$$$$++  +%$$$",
"$$$$$$$  %$$$$$$$$$$$$$+%$$$$$$$$$$$$$$$$$$.%$$$$$$$$$$%+  +%$$$",
"$$$$$$$$OO$$$$$$$$$$$$$.$$$$$$$$$$$$$$$$$$$.$$$$$$$$$$$$%+$+$$$$",
"$$$$$$$$.+ $$$$$$$$$$$$.%$$$$$$$$$$$$$$$$$$+%$$$$$$$$$$$$+++%$$$",
"$$$$$$$$+$ O$$$$$$$$$$$+%$$$$$$$$$$$$$$$$$$.$$$$$$$$$$$$$$%$$$$$",
"$$$$$$$$+$+OO$$$$$$$$$$ %$$$$$$$$$$$$$$$$$$+$$$$$$$$$$$$$$%+$$$$",
"$$$$$$$$+$$+ O$$$$$$$$$+%$$$$$$$$$$$$$$$$$$+$$$$$$$$$$$$$$$+$$$$",
"$$$$$$$$.$$$+O+$$$$$$$$.$$$$$$$$$$$$$$$$$$$ $$$$$$$$$$$$$$$ $$$$",
"$$$$$$$$ $$$$ O$$$$$$$$+$$$$$$$$$$$$$$$$$$+ $$$$$$$$$$$$$$$ $$$$",
"$$$$$$$++$$$$ O+$$$$$$++$$$$$$$$$$$$$$$$$$+ $$$$$$$$$$$$$$+ $$$$",
"$$$$$$+  X$$$OO+$$$$$$  X$$$$$$$$$$$$$$$+$X+X$$$$$$$$$$$+XX+X$$$",
"++++++ + +X+OoO++++++   +X+++++++   +++.++  +X+++++++++++++ +X++",
"             O                    +                             ",
"$$ $%%%%%%%%%%O+                  +$%%%%%%%%%%%%$%$ $%%%%%%%%%%%",
"$$ %%$$$$$$$$$ ++                 +%$%$$$$$$$$$$$$$+%%$$$$$$$$$$",
"$$+%$$$$$$$$$O $+                 +%%$$$$$$$$$$$$$$+%$$$$$$$$$$$",
"$$+%$$$$$$$$O +$+                 +%$$$$$$$$$$$$$$$.%$$$$$$$$$$$",
"$$.%$$$$O$$$ $$$+                 +%$$$$$$$$$$$$$$$.%$$$$$$$$$$$",
"$$.$$$$$ooO +$$$+                 +$$$$$$$$$$$$$$$$+$$$$$$$$$$$$",
"$$.%$$$$Oo oO+$$+                 +%$$$$$$$$$$$$$$$.%$$$$$$$$$$$",
"$$.$$$$$$O oo+$$+                 +$$$$$$$$$$$$$$$$+$$$$$$$$$$$$",
"$$+$$$$$$O+OO$$$                   $$$$$$$$$$$$$$$$ $$$$$$$$$$$$",
"$$+$$$$$$O+$$$$$                  +$$$$$$$$$$$$$$$$+$$$$$$$$$$$$",
"$$+$$$$$$ +$$$$$+                  $$$$$$$$$$$$$$$$ $$$$$$$$$$$$",
"$+ +$$$$$ O$$$$++$            $$+  +$$$$$$$$$$$$$$+++$$$$$$$$$$$",
"+   +++++  OO++ + $   + $   $ $++    ++++++  +X++    +++++   +X+",
"             OOOOOOO++++++ ++  +                                ",
"%%%$$%%%$ $%%%%%%%O%  O%%$ $%%%%%%%%%%%%%%$+$%%%%%%%%%%%%%%%%%%%",
"$$$$$$$$%+%$$$$$$$$$$$@Oooo%$$$$$$$$$$$$$$%+%$$$$$$$$$$$$$$$$$$$",
"$$$$$$$$% %$$$$$$$$$$$OOoo %$$$%$$$$$$$$$$%+%$%%$$$$$$$$$$$$$$$$",
"$$$$$$$$%+%$$$$$$$$$Ooo O%+%$%$$$$$$$$$$$$%+%$%%$$$$$$$$$$$$$$$$",
"$$$$$%$$$+%$$$$$$$$$$oo$OO+%$$%$$$$$$$$$$$$.%$$$$$$$$$$$$$$$$$$$",
"$$$$%$%$$.$$$$$$$$$$$O$$$ .$$$$$$$$$$$$$$$$.$$$$$$$$$$$$$$$$$$$$",
"$$$$$%$$$.%$$$$$$$$$$$$$$O.%$$$$$$$$$$$$$$$+%$$$$$$$$$$$$$$$$$$$",
"$$$$$$$$$+%$$$$$$$$$$$$$$ +%$$$$$$$$$$$$$$$.%$$$$$$$$$$$$$$$$$$$",
"$$$$$$$$$+%$$$$$$$$$$$$$$O+%$$$$$$$$$$$$$$$+%$$$$$$$$$$$$$$$$$$$",
"$$$$$$$$$+%$$$$$$$$$$$$$$O+%$$$$$$$$$$$$$$$+%$$$$$$$$$$$$$$$$$$$",
"$$$$$$$$$.$$$$$$$$$$$$$$OO.$$$$$$$$$$$$$$$$ $$$$$$$$OO$$$$$$$$$$",
"$$$$$$$$++$$$$$$$$$$$$$$O++$$$$$$$$$$$$$%$+ $$$$$$$$$OO$$$$$$$$$",
"$$$$$$$$++$$$$$$$$$$$$$O$++$$$$$$$$$$$$%$$+ +$$$$$$$$$OO$$$$$$$$",
"$$$$$$$$X X$$$$O$$$$$$$$$X X$$$$$$$$$$$$$+X+X+$$$$$$$$$O $$$$$$O",
"  +++.++O +X+++O +  +++.+  OX++++++ O+++.+  +O+++++++  OO+++  O ",
"%%%%%%%%O $$%%%%O#%%%%%%$$+O %%%%%%O%%%%%%$+ O%%%O%%%% OO%$$+O %",
"%%%O%%%%%O%%O%%%OO%%%OO%%%$$O%%%%%OO%%O%%O% O$%% O%%%%O O%%%OO %",
"$$$ $$O$O OOO$$O O$$O $$$OO$ O$O OO O$ O$OOOO$$$OOO$ OO OO$$O  $",
"    OO OO O OOO OOOO OOOOO   OO  O   O OOO  OOOOO   OOO OOO OO O"
};
