/* XPM */
static char *result[] = {
/* columns rows colors chars-per-pixel */
"128 128 9 1 ",
"  c #222034",
". c #45283C",
"X c #663931",
"o c #3F3F74",
"O c #8F563B",
"+ c #D9A066",
"@ c #EEC39A",
"# c white",
"$ c None",
/* pixels */
"                                                                                                                                ",
"                                                                                                                                ",
"  ..########################################################################################################################..  ",
"  ..########################################################################################################################..  ",
"  ##....                                                                                                                ....##  ",
"  ##....                                                                                                                ....##  ",
"  ##..$$$$$$$$$$$$$$$$$$$$$$$$$$$$$$$$$$$$$$$$$$$$$$$$$$$$$$$$$$$$$$$$$$$$$$$$$$$$$$$$$$$$$$$$$$$$$$$$$$$$$$$$$$$$$$$$$$$$..##  ",
"  ##..$$$$$$$$$$$$$$$$$$$$$$$$$$$$$$$$$$$$$$$$$$$$$$$$$$$$$$$$$$$$$$$$$$$$$$$$$$$$$$$$$$$$$$$$$$$$$$$$$$$$$$$$$$$$$$$$$$$$..##  ",
"  ##  $$$$$$$$$$$$$$$$$$$$$$$$$$$$$$$$$$$$$$$$$$$$$$$$$$$$$$$$$$$$$$$$$$$$$$$$$$$$$$$$$$$$$$$$$$$$$$$$$$$$$$$$$$$$$$$$$$$$  ##  ",
"  ##  $$$$$$$$$$$$$$$$$$$$$$$$$$$$$$$$$$$$$$$$$$$$$$$$$$$$$$$$$$$$$$$$$$$$$$$$$$$$$$$$$$$$$$$$$$$$$$$$$$$$$$$$$$$$$$$$$$$$  ##  ",
"  ##  $$$$$$$$$$$$$$$$$$$$$$$$$$$$$$$$$$$$$$$$$$$$$$$$$$$$$$$$$$$$$$$$$$$$$$$$$$$$$$$$$$$$$$$$$$$$$$$$$$$$$$$$$$$$$$$$$$$$  ##  ",
"  ##  $$$$$$$$$$$$$$$$$$$$$$$$$$$$$$$$$$$$$$$$$$$$$$$$$$$$$$$$$$$$$$$$$$$$$$$$$$$$$$$$$$$$$$$$$$$$$$$$$$$$$$$$$$$$$$$$$$$$  ##  ",
"  ##  $$$$$$$$$$$$$$$$$$$$$$$$$$$$$$$$$$$$$$$$$$$$$$$$$$$$$$$$$$$$$$$$$$$$$$$$$$$$$$$$$$$$$$$$$$$$$$$$$$$$$$$$$$$$$$$$$$$$  ##  ",
"  ##  $$$$$$$$$$$$$$$$$$$$$$$$$$$$$$$$$$$$$$$$$$$$$$$$$$$$$$$$$$$$$$$$$$$$$$$$$$$$$$$$$$$$$$$$$$$$$$$$$$$$$$$$$$$$$$$$$$$$  ##  ",
"  ##  $$$$$$$$$$$$$$$$$$$$$$$$$$$$$$$$$$$$$$$$$$$$$$$$$$$$$$$$$$$$$$$$$$$$$$$$$$$$$$$$$$$$$$$$$$$$$$$$$$$$$$$$$$$$$$$$$$$$  ##  ",
"  ##  $$$$$$$$$$$$$$$$$$$$$$$$$$$$$$$$$$$$$$$$$$$$$$$$$$$$$$$$$$$$$$$$$$$$$$$$$$$$$$$$$$$$$$$$$$$$$$$$$$$$$$$$$$$$$$$$$$$$  ##  ",
"  ##  $$$$$$$$$$$$$$$$$$$$$$$$$$$$$$$$$$$$$$$$$$$$$$$$$$$$$$$$$$$$$$$$$$$$$$$$$$$$$$$$$$$$$$$$$$$$$$$$$$$$$$$$$$$$$$$$$$$$  ##  ",
"  ##  $$$$$$$$$$$$$$$$$$$$$$$$$$$$$$$$$$$$$$$$$$$$$$$$$$$$$$$$$$$$$$$$$$$$$$$$$$$$$$$$$$$$$$$$$$$$$$$$$$$$$$$$$$$$$$$$$$$$  ##  ",
"  ##  $$$$$$$$$$$$$$$$$$$$$$$$$$$$$$$$$$$$    $$$$$$$$$$$$$$$$$$$$$$$$$$$$$$$$$$$$$$$$$$$$$$$$$$$$$$$$$$$$$$$$$$$$$$$$$$$$  ##  ",
"  ##  $$$$$$$$$$$$$$$$$$$$$$$$$$$$$$$$$$$$    $$$$$$$$$$$$$$$$$$$$$$$$$$$$$$$$$$$$$$$$$$$$$$$$$$$$$$$$$$$$$$$$$$$$$$$$$$$$  ##  ",
"  ##  $$$$$$$$$$$$$$$$$$$$$$$$$$$$$$$$$$$$  ++    $$$$$$$$$$$$$$              $$$$$$$$$$$$$$$$$$$$$$$$$$$$$$$$$$$$$$$$$$$$  ##  ",
"  ##  $$$$$$$$$$$$$$$$$$$$$$$$$$$$$$$$$$$$  ++    $$$$$$$$$$$$$$              $$$$$$$$$$$$$$$$$$$$$$$$$$$$$$$$$$$$$$$$$$$$  ##  ",
"  ##  $$$$$$$$$$$$$$$$$$$$$$$$$$$$$$$$$$$$  ++++++      $$      ++++++++++++++      $$$$$$$$$$$$$$$$$$$$$$$$$$$$$$$$$$$$$$  ##  ",
"  ##  $$$$$$$$$$$$$$$$$$$$$$$$$$$$$$$$$$$$  ++++++      $$      ++++++++++++++      $$$$$$$$$$$$$$$$$$$$$$$$$$$$$$$$$$$$$$  ##  ",
"  ##  $$$$$$$$              $$$$$$$$$$$$$$  ++++++++++    ++++++@@@@@@@@@@@@@@++++++    $$$$$$$$$$$$$$$$$$$$$$$$$$$$$$$$$$  ##  ",
"  ##  $$$$$$$$              $$$$$$$$$$$$$$  ++++++++++    ++++++@@@@@@@@@@@@@@++++++    $$$$$$$$$$$$$$$$$$$$$$$$$$$$$$$$$$  ##  ",
"  ##  $$$$$$$$$$  ++@@@@@@@@          $$$$  ++++++    ++++@@@@@@@@@@@@##@@@@@@@@@@@@++++  $$$$$$$$$$$$$$$$$$$$$$$$$$$$$$$$  ##  ",
"  ##  $$$$$$$$$$  ++@@@@@@@@          $$$$  ++++++    ++++@@@@@@@@@@@@##@@@@@@@@@@@@++++  $$$$$$$$$$$$$$$$$$$$$$$$$$$$$$$$  ##  ",
"  ##  $$$$$$$$$$  ++++@@@@@@@@@@@@@@@@            ++++@@@@@@@@@@@@@@####@@@@@@@@@@@@@@@@++  $$$$$$$$$$$$$$$$$$$$$$$$$$$$$$  ##  ",
"  ##  $$$$$$$$$$  ++++@@@@@@@@@@@@@@@@            ++++@@@@@@@@@@@@@@####@@@@@@@@@@@@@@@@++  $$$$$$$$$$$$$$$$$$$$$$$$$$$$$$  ##  ",
"  ##  $$$$$$$$$$$$  ++++++++@@@@@@@@@@@@@@@@@@@@++@@@@@@@@@@@@@@@@######@@@@@@@@@@@@@@@@@@  $$$$$$$$$$$$$$$$$$$$$$$$$$$$$$  ##  ",
"  ##  $$$$$$$$$$$$  ++++++++@@@@@@@@@@@@@@@@@@@@++@@@@@@@@@@@@@@@@######@@@@@@@@@@@@@@@@@@  $$$$$$$$$$$$$$$$$$$$$$$$$$$$$$  ##  ",
"  ##  $$$$$$$$$$$$$$  ++++++++++++++++++++++++++@@@@@@@@@@@@@@@@++++####@@@@@@@@@@++@@@@++++  $$$$$$$$$$$$$$$$$$$$$$$$$$$$  ##  ",
"  ##  $$$$$$$$$$$$$$  ++++++++++++++++++++++++++@@@@@@@@@@@@@@@@++++####@@@@@@@@@@++@@@@++++  $$$$$$$$$$$$$$$$$$$$$$$$$$$$  ##  ",
"  ##  $$$$$$$$$$$$$$$$  ++++++++++++++++++++@@@@@@@@@@@@@@@@@@@@@@++@@@@@@@@@@@@@@@@@@@@@@++  $$$$$$$$$$$$$$$$$$$$$$$$$$$$  ##  ",
"  ##  $$$$$$$$$$$$$$$$  ++++++++++++++++++++@@@@@@@@@@@@@@@@@@@@@@++@@@@@@@@@@@@@@@@@@@@@@++  $$$$$$$$$$$$$$$$$$$$$$$$$$$$  ##  ",
"  ##  $$$$$$$$$$$$$$$$    ++++++++++++++@@@@@@@@@@@@@@@@@@@@@@@@@@@@@@@@@@@@@@@@@@++@@@@@@++  $$$$$$$$$$$$$$$$$$$$$$$$$$$$  ##  ",
"  ##  $$$$$$$$$$$$$$$$    ++++++++++++++@@@@@@@@@@@@@@@@@@@@@@@@@@@@@@@@@@@@@@@@@@++@@@@@@++  $$$$$$$$$$$$$$$$$$$$$$$$$$$$  ##  ",
"  ##  $$$$$$$$$$$$$$$$$$  ++++++++++++++@@@@@@@@@@@@@@@@@@@@@@@@@@@@@@@@@@@@@@@@@@@@@@@@@@++  $$$$$$$$$$$$$$$$$$$$$$$$$$$$  ##  ",
"  ##  $$$$$$$$$$$$$$$$$$  ++++++++++++++@@@@@@@@@@@@@@@@@@@@@@@@@@@@@@@@@@@@@@@@@@@@@@@@@@++  $$$$$$$$$$$$$$$$$$$$$$$$$$$$  ##  ",
"  ##  $$$$$$$$$$$$$$$$$$$$  ++++++++++++@@@@@@@@@@@@@@@@@@@@@@@@@@@@@@@@@@@@@@@@@@++@@@@@@@@++  $$$$$$$$$$$$$$$$$$$$$$$$$$  ##  ",
"  ##  $$$$$$$$$$$$$$$$$$$$  ++++++++++++@@@@@@@@@@@@@@@@@@@@@@@@@@@@@@@@@@@@@@@@@@++@@@@@@@@++  $$$$$$$$$$$$$$$$$$$$$$$$$$  ##  ",
"  ##  $$$$$$$$$$$$$$$$$$$$$$      ++++++@@@@@@@@@@@@@@@@@@@@@@@@@@@@++++++@@@@@@@@@@@@@@@@@@++  $$$$$$$$$$$$$$$$$$$$$$$$$$  ##  ",
"  ##  $$$$$$$$$$$$$$$$$$$$$$      ++++++@@@@@@@@@@@@@@@@@@@@@@@@@@@@++++++@@@@@@@@@@@@@@@@@@++  $$$$$$$$$$$$$$$$$$$$$$$$$$  ##  ",
"  ##  $$$$$$$$$$$$$$$$$$$$$$$$$$$$  ++++@@@@@@@@@@@@@@@@@@@@@@@@@@@@@@@@@@@@++++@@@@@@@@@@@@++  $$$$$$$$$$$$$$$$$$$$$$$$$$  ##  ",
"  ##  $$$$$$$$$$$$$$$$$$$$$$$$$$$$  ++++@@@@@@@@@@@@@@@@@@@@@@@@@@@@@@@@@@@@++++@@@@@@@@@@@@++  $$$$$$$$$$$$$$$$$$$$$$$$$$  ##  ",
"  ##  $$$$$$$$$$$$$$$$$$$$$$$$$$$$  ++@@@@@@@@@@@@@@@@@@@@@@@@@@@@@@@@@@@@++@@@@@@@@@@@@@@++++    $$$$$$$$$$$$$$$$$$$$$$$$  ##  ",
"  ##  $$$$$$$$$$$$$$$$$$$$$$$$$$$$  ++@@@@@@@@@@@@@@@@@@@@@@@@@@@@@@@@@@@@++@@@@@@@@@@@@@@++++    $$$$$$$$$$$$$$$$$$$$$$$$  ##  ",
"  ##  $$$$$$$$$$$$$$$$$$$$$$$$$$$$  ++@@@@@@@@@@@@@@@@@@@@@@####XXXXXX####@@@@@@@@@@@@@@@@++++++  $$$$$$$$$$$$$$$$$$$$$$$$  ##  ",
"  ##  $$$$$$$$$$$$$$$$$$$$$$$$$$$$  ++@@@@@@@@@@@@@@@@@@@@@@####XXXXXX####@@@@@@@@@@@@@@@@++++++  $$$$$$$$$$$$$$$$$$$$$$$$  ##  ",
"  ##  $$$$$$$$$$$$$$$$$$$$$$$$$$$$  ++@@@@@@@@@@@@@@@@@@@@####XXXXXXXXXX####@@@@@@@@@@@@++++++++++  $$$$$$$$$$$$$$$$$$$$$$  ##  ",
"  ##  $$$$$$$$$$$$$$$$$$$$$$$$$$$$  ++@@@@@@@@@@@@@@@@@@@@####XXXXXXXXXX####@@@@@@@@@@@@++++++++++  $$$$$$$$$$$$$$$$$$$$$$  ##  ",
"  ##  $$$$$$$$$$$$$$$$$$$$$$$$$$$$$$  ++@@@@@@@@@@@@@@@@@@####OOOO  ##OO####@@@@@@@@@@++@@++++++++  $$$$$$$$$$$$$$$$$$$$$$  ##  ",
"  ##  $$$$$$$$$$$$$$$$$$$$$$$$$$$$$$  ++@@@@@@@@@@@@@@@@@@####OOOO  ##OO####@@@@@@@@@@++@@++++++++  $$$$$$$$$$$$$$$$$$$$$$  ##  ",
"  ##  $$$$$$$$$$$$$$$$$$$$$$$$$$$$$$  ++@@@@@@@@@@@@@@@@@@####OOOO  OOOO####@@@@@@@@++@@@@@@++++++  $$$$$$$$$$$$$$$$$$$$$$  ##  ",
"  ##  $$$$$$$$$$$$$$$$$$$$$$$$$$$$$$  ++@@@@@@@@@@@@@@@@@@####OOOO  OOOO####@@@@@@@@++@@@@@@++++++  $$$$$$$$$$$$$$$$$$$$$$  ##  ",
"  ##  $$$$$$$$$$$$$$$$$$$$$$$$$$$$$$  ++@@@@@@@@@@@@@@@@@@######OO  OOOO####@@@@@@@@@@@@@@@@@@++++++  $$$$$$$$$$$$$$$$$$$$  ##  ",
"  ##  $$$$$$$$$$$$$$$$$$$$$$$$$$$$$$  ++@@@@@@@@@@@@@@@@@@######OO  OOOO####@@@@@@@@@@@@@@@@@@++++++  $$$$$$$$$$$$$$$$$$$$  ##  ",
"  ##  $$$$$$$$$$$$$$$$$$$$$$$$$$$$$$$$  ++@@@@@@@@@@@@@@@@########OOOO######@@@@@@@@@@@@@@@@@@@@++++++  $$$$$$$$$$$$$$$$$$  ##  ",
"  ##  $$$$$$$$$$$$$$$$$$$$$$$$$$$$$$$$  ++@@@@@@@@@@@@@@@@########OOOO######@@@@@@@@@@@@@@@@@@@@++++++  $$$$$$$$$$$$$$$$$$  ##  ",
"  ##  $$$$$$$$$$$$$$$$$$$$$$$$$$$$$$$$  ++@@@@@@@@@@@@@@@@++##############++@@@@@@@@@@@@@@@@@@@@++++++++  $$$$$$$$$$$$$$$$  ##  ",
"  ##  $$$$$$$$$$$$$$$$$$$$$$$$$$$$$$$$  ++@@@@@@@@@@@@@@@@++##############++@@@@@@@@@@@@@@@@@@@@++++++++  $$$$$$$$$$$$$$$$  ##  ",
"  ##  $$$$$$$$$$$$$$$$$$$$$$$$$$$$$$$$  ++++@@@@@@@@@@@@@@++############++@@@@@@@@@@@@@@@@@@@@@@++++++++  $$$$$$$$$$$$$$$$  ##  ",
"  ##  $$$$$$$$$$$$$$$$$$$$$$$$$$$$$$$$  ++++@@@@@@@@@@@@@@++############++@@@@@@@@@@@@@@@@@@@@@@++++++++  $$$$$$$$$$$$$$$$  ##  ",
"  ##  $$$$$$$$$$$$$$$$$$$$$$$$$$$$$$$$$$  ++@@@@@@@@@@@@@@@@++++++++++++@@@@@@@@@@@@@@@@@@@@@@++++  ++++  $$$$$$$$$$$$$$$$  ##  ",
"  ##  $$$$$$$$$$$$$$$$$$$$$$$$$$$$$$$$$$  ++@@@@@@@@@@@@@@@@++++++++++++@@@@@@@@@@@@@@@@@@@@@@++++  ++++  $$$$$$$$$$$$$$$$  ##  ",
"  ##  $$$$$$$$$$$$$$$$$$$$$$$$$$$$$$$$$$  ++++@@@@@@@@@@@@@@@@@@@@@@@@@@@@@@@@@@@@@@@@@@@@@@++++++      $$$$$$$$$$$$$$$$$$  ##  ",
"  ##  $$$$$$$$$$$$$$$$$$$$$$$$$$$$$$$$$$  ++++@@@@@@@@@@@@@@@@@@@@@@@@@@@@@@@@@@@@@@@@@@@@@@++++++      $$$$$$$$$$$$$$$$$$  ##  ",
"  ##  $$$$$$$$$$$$$$$$$$$$$$$$$$$$$$$$$$  ++++++@@@@@@@@@@@@@@@@@@@@@@@@@@@@@@@@@@@@@@@@@@++++++  $$$$$$$$$$$$$$$$$$$$$$$$  ##  ",
"  ##  $$$$$$$$$$$$$$$$$$$$$$$$$$$$$$$$$$  ++++++@@@@@@@@@@@@@@@@@@@@@@@@@@@@@@@@@@@@@@@@@@++++++  $$$$$$$$$$$$$$$$$$$$$$$$  ##  ",
"  ##  $$$$$$$$$$$$$$$$$$$$$$$$$$$$$$$$$$$$  ++++++++++@@@@@@@@@@@@@@@@@@@@@@@@@@@@@@@@@@++++++++$$$$$$$$$$$$$$$$$$$$$$$$$$  ##  ",
"  ##  $$$$$$$$$$$$$$$$$$$$$$$$$$$$$$$$$$$$  ++++++++++@@@@@@@@@@@@@@@@@@@@@@@@@@@@@@@@@@++++++++$$$$$$$$$$$$$$$$$$$$$$$$$$  ##  ",
"  ##  $$$$$$$$$$$$$$$$$$$$$$$$$$$$$$$$$$$$$$  ++++++++++++++@@@@@@@@@@@@++@@@@@@++++++++++++++  $$$$$$$$$$$$$$$$$$$$$$$$$$  ##  ",
"  ##  $$$$$$$$$$$$$$$$$$$$$$$$$$$$$$$$$$$$$$  ++++++++++++++@@@@@@@@@@@@++@@@@@@++++++++++++++  $$$$$$$$$$$$$$$$$$$$$$$$$$  ##  ",
"  ##  $$$$$$$$$$$$$$$$$$$$$$$$$$$$$$$$$$$$$$$$  ++++++++++++++++++++@@++++++@@++##############  $$$$$$$$$$$$$$$$$$$$$$$$$$  ##  ",
"  ##  $$$$$$$$$$$$$$$$$$$$$$$$$$$$$$$$$$$$$$$$  ++++++++++++++++++++@@++++++@@++##############  $$$$$$$$$$$$$$$$$$$$$$$$$$  ##  ",
"  ##  $$$$$$$$$$$$$$$$$$$$$$$$$$$$$$$$$$$$$$$$$$    ++++++++++++++++++++++++++++++##########  $$$$$$$$$$$$$$$$$$$$$$$$$$$$  ##  ",
"  ##  $$$$$$$$$$$$$$$$$$$$$$$$$$$$$$$$$$$$$$$$$$    ++++++++++++++++++++++++++++++##########  $$$$$$$$$$$$$$$$$$$$$$$$$$$$  ##  ",
"  ##  $$$$$$$$$$$$$$$$$$$$$$$$$$$$$$$$$$$$$$$$$$$$$$    ++++++++++++++++++++++++++++++++++  $$$$$$$$$$$$$$$$$$$$$$$$$$$$$$  ##  ",
"  ##  $$$$$$$$$$$$$$$$$$$$$$$$$$$$$$$$$$$$$$$$$$$$$$    ++++++++++++++++++++++++++++++++++  $$$$$$$$$$$$$$$$$$$$$$$$$$$$$$  ##  ",
"  ##  $$$$$$$$$$$$$$$$$$$$$$$$$$$$$$$$$$$$$$$$$$$$$$$$$$  ++++++++++++++++++++++++        $$$$$$$$$$$$$$$$$$$$$$$$$$$$$$$$  ##  ",
"  ##  $$$$$$$$$$$$$$$$$$$$$$$$$$$$$$$$$$$$$$$$$$$$$$$$$$  ++++++++++++++++++++++++        $$$$$$$$$$$$$$$$$$$$$$$$$$$$$$$$  ##  ",
"  ##  $$$$$$$$$$$$$$$$$$$$$$$$$$$$$$$$$$$$$$$$$$$$$$$$    ++++++++++++++++        $$$$$$$$$$$$$$$$$$$$$$$$$$$$$$$$$$$$$$$$  ##  ",
"  ##  $$$$$$$$$$$$$$$$$$$$$$$$$$$$$$$$$$$$$$$$$$$$$$$$    ++++++++++++++++        $$$$$$$$$$$$$$$$$$$$$$$$$$$$$$$$$$$$$$$$  ##  ",
"  ##  $$$$$$$$$$$$$$$$$$$$$$$$$$$$$$$$$$$$$$$$$$$$$$  oooo  ++++++++++++++  $$$$$$$$$$$$$$$$$$$$$$$$$$$$$$$$$$$$$$$$$$$$$$  ##  ",
"  ##  $$$$$$$$$$$$$$$$$$$$$$$$$$$$$$$$$$$$$$$$$$$$$$  oooo  ++++++++++++++  $$$$$$$$$$$$$$$$$$$$$$$$$$$$$$$$$$$$$$$$$$$$$$  ##  ",
"  ##  $$$$$$$$$$$$$$$$$$$$$$$$$$$$$$$$$$$$$$$$$$$$$$  oo....      ++++++++  $$$$$$$$$$$$$$$$$$$$$$$$$$$$$$$$$$$$$$$$$$$$$$  ##  ",
"  ##  $$$$$$$$$$$$$$$$$$$$$$$$$$$$$$$$$$$$$$$$$$$$$$  oo....      ++++++++  $$$$$$$$$$$$$$$$$$$$$$$$$$$$$$$$$$$$$$$$$$$$$$  ##  ",
"  ##  $$$$$$$$$$$$$$$$$$$$$$$$$$$$$$$$$$$$$$$$$$$$  oo........            oo  $$$$$$$$$$$$$$$$$$$$$$$$$$$$$$$$$$$$$$$$$$$$  ##  ",
"  ##  $$$$$$$$$$$$$$$$$$$$$$$$$$$$$$$$$$$$$$$$$$$$  oo........            oo  $$$$$$$$$$$$$$$$$$$$$$$$$$$$$$$$$$$$$$$$$$$$  ##  ",
"  ##  $$$$$$$$$$$$$$$$$$$$$$$$$$$$$$$$$$$$$$$$$$$$  oo..........          ..oo  $$$$$$$$$$$$$$$$$$$$$$$$$$$$$$$$$$$$$$$$$$  ##  ",
"  ##  $$$$$$$$$$$$$$$$$$$$$$$$$$$$$$$$$$$$$$$$$$$$  oo..........          ..oo  $$$$$$$$$$$$$$$$$$$$$$$$$$$$$$$$$$$$$$$$$$  ##  ",
"  ##  $$$$$$$$$$$$$$$$$$$$$$$$$$$$$$$$$$$$$$$$$$  oo................    ....oo  $$$$$$$$$$$$$$$$$$$$$$$$$$$$$$$$$$$$$$$$$$  ##  ",
"  ##  $$$$$$$$$$$$$$$$$$$$$$$$$$$$$$$$$$$$$$$$$$  oo................    ....oo  $$$$$$$$$$$$$$$$$$$$$$$$$$$$$$$$$$$$$$$$$$  ##  ",
"  ##  $$$$$$$$$$$$$$$$$$$$$$$$$$$$$$$$$$$$$$$$    ..................    ......oo  $$$$$$$$$$$$$$$$$$$$$$$$$$$$$$$$$$$$$$$$  ##  ",
"  ##  $$$$$$$$$$$$$$$$$$$$$$$$$$$$$$$$$$$$$$$$    ..................    ......oo  $$$$$$$$$$$$$$$$$$$$$$$$$$$$$$$$$$$$$$$$  ##  ",
"  ##  $$$$$$$$$$$$$$$$$$$$$$$$$$$$$$$$$$$$$$        ..................  ........oo  $$$$$$$$$$$$$$$$$$$$$$$$$$$$$$$$$$$$$$  ##  ",
"  ##  $$$$$$$$$$$$$$$$$$$$$$$$$$$$$$$$$$$$$$        ..................  ........oo  $$$$$$$$$$$$$$$$$$$$$$$$$$$$$$$$$$$$$$  ##  ",
"  ##  $$$$$$$$$$$$$$$$$$$$$$$$$$$$$$$$$$$$            ................  ........  oo  $$$$$$$$$$$$$$$$$$$$$$$$$$$$$$$$$$$$  ##  ",
"  ##  $$$$$$$$$$$$$$$$$$$$$$$$$$$$$$$$$$$$            ................  ........  oo  $$$$$$$$$$$$$$$$$$$$$$$$$$$$$$$$$$$$  ##  ",
"  ##  $$$$$$$$$$$$$$$$$$$$$$$$$$$$$$$$$$  oo..        ................  ..........  oo  $$$$$$$$$$$$$$$$$$$$$$$$$$$$$$$$$$  ##  ",
"  ##  $$$$$$$$$$$$$$$$$$$$$$$$$$$$$$$$$$  oo..        ................  ..........  oo  $$$$$$$$$$$$$$$$$$$$$$$$$$$$$$$$$$  ##  ",
"  ##  $$$$$$$$$$$$$$$$$$$$$$$$$$$$$$$$  oo  ....    ..................  ............  oo  $$$$$$$$$$$$$$$$$$$$$$$$$$$$$$$$  ##  ",
"  ##  $$$$$$$$$$$$$$$$$$$$$$$$$$$$$$$$  oo  ....    ..................  ............  oo  $$$$$$$$$$$$$$$$$$$$$$$$$$$$$$$$  ##  ",
"  ##  $$$$$$$$$$$$$$$$$$$$$$$$$$$$$$  oo    ............    ............  ............oo  $$$$$$$$$$$$$$$$$$$$$$$$$$$$$$$$  ##  ",
"  ##  $$$$$$$$$$$$$$$$$$$$$$$$$$$$$$  oo    ............    ............  ............oo  $$$$$$$$$$$$$$$$$$$$$$$$$$$$$$$$  ##  ",
"  ##  $$$$$$$$$$$$$$$$$$$$$$$$$$$$$$  oo      ..........................  ............  oo  $$$$$$$$$$$$$$$$$$$$$$$$$$$$$$  ##  ",
"  ##  $$$$$$$$$$$$$$$$$$$$$$$$$$$$$$  oo      ..........................  ............  oo  $$$$$$$$$$$$$$$$$$$$$$$$$$$$$$  ##  ",
"  ##  $$$$$$$$$$$$$$$$$$$$$$$$$$$$  oo          ........................  ............  oo  $$$$$$$$$$$$$$$$$$$$$$$$$$$$$$  ##  ",
"  ##  $$$$$$$$$$$$$$$$$$$$$$$$$$$$  oo          ........................  ............  oo  $$$$$$$$$$$$$$$$$$$$$$$$$$$$$$  ##  ",
"  ##  $$$$$$$$$$$$$$$$$$$$$$$$$$$$            ..........................  ............  oo  $$$$$$$$$$$$$$$$$$$$$$$$$$$$$$  ##  ",
"  ##  $$$$$$$$$$$$$$$$$$$$$$$$$$$$            ..........................  ............  oo  $$$$$$$$$$$$$$$$$$$$$$$$$$$$$$  ##  ",
"  ##  $$$$$$$$$$$$$$$$$$$$$$$$$$$$              ........................  ............      $$$$$$$$$$$$$$$$$$$$$$$$$$$$$$  ##  ",
"  ##  $$$$$$$$$$$$$$$$$$$$$$$$$$$$              ........................  ............      $$$$$$$$$$$$$$$$$$$$$$$$$$$$$$  ##  ",
"  ##  $$$$$$$$$$$$$$$$$$$$$$$$$$$$$$$$$$$$$$$$$$$$$$$$$$$$$$$$$$$$$$$$$$$$$$$$$$$$$$$$$$$$$$$$$$$$$$$$$$$$$$$$$$$$$$$$$$$$  ##  ",
"  ##  $$$$$$$$$$$$$$$$$$$$$$$$$$$$$$$$$$$$$$$$$$$$$$$$$$$$$$$$$$$$$$$$$$$$$$$$$$$$$$$$$$$$$$$$$$$$$$$$$$$$$$$$$$$$$$$$$$$$  ##  ",
"  ##  $$$$$$$$$$$$$$$$$$$$$$$$$$$$$$$$$$$$$$$$$$$$$$$$$$$$$$$$$$$$$$$$$$$$$$$$$$$$$$$$$$$$$$$$$$$$$$$$$$$$$$$$$$$$$$$$$$$$  ##  ",
"  ##  $$$$$$$$$$$$$$$$$$$$$$$$$$$$$$$$$$$$$$$$$$$$$$$$$$$$$$$$$$$$$$$$$$$$$$$$$$$$$$$$$$$$$$$$$$$$$$$$$$$$$$$$$$$$$$$$$$$$  ##  ",
"  ##  $$$$$$$$$$$$$$$$$$$$$$$$$$$$$$$$$$$$$$$$$$$$$$$$$$$$$$$$$$$$$$$$$$$$$$$$$$$$$$$$$$$$$$$$$$$$$$$$$$$$$$$$$$$$$$$$$$$$  ##  ",
"  ##  $$$$$$$$$$$$$$$$$$$$$$$$$$$$$$$$$$$$$$$$$$$$$$$$$$$$$$$$$$$$$$$$$$$$$$$$$$$$$$$$$$$$$$$$$$$$$$$$$$$$$$$$$$$$$$$$$$$$  ##  ",
"  ##..$$$$$$$$$$$$$$$$$$$$$$$$$$$$$$$$$$$$$$$$$$$$$$$$$$$$$$$$$$$$$$$$$$$$$$$$$$$$$$$$$$$$$$$$$$$$$$$$$$$$$$$$$$$$$$$$$$$$..##  ",
"  ##..$$$$$$$$$$$$$$$$$$$$$$$$$$$$$$$$$$$$$$$$$$$$$$$$$$$$$$$$$$$$$$$$$$$$$$$$$$$$$$$$$$$$$$$$$$$$$$$$$$$$$$$$$$$$$$$$$$$$..##  ",
"  ##....                                                                                                                ....##  ",
"  ##....                                                                                                                ....##  ",
"  ..########################################################################################################################..  ",
"  ..########################################################################################################################..  ",
"                                                                                                                                ",
"                                                                                                                                "
};
