/* XPM */
static char *door_closed[] = {
/* columns rows colors chars-per-pixel */
"128 64 23 1 ",
"  c None",
". c #222034",
"X c #272742",
"o c #262643",
"O c #272743",
"+ c #262644",
"@ c #272744",
"# c #484C7D",
"$ c #494C7D",
"% c #484D7D",
"& c #494D7D",
"* c #484C7E",
"= c #494C7E",
"- c #494D7E",
"; c #8A6C9B",
": c #8B6C9B",
"> c #8A6D9B",
", c #8B6D9B",
"< c #8A6C9C",
"1 c #8B6C9C",
"2 c #8A6D9C",
"3 c #8B6D9C",
"4 c #C59EA4",
/* pixels */
"................................................................................................................................",
"................................................................................................................................",
"................................................................................................................................",
"................................................................................................................................",
"................................................................................................................................",
"........................................................ ->>11  1    ...........................................................",
"....................................................... -----------1> ..........................................................",
"....................................................   ---------------  ........................................................",
"..................................................  --------1--------->-  ......................................................",
"...............................................  >>---------1111--->->>1>>1-  ..................................................",
"............................................. 114>>>---------1111--1>>>>>>>1>>- ................................................",
"............................................ 1>1>>>11---------111----11111>1>>1> ...............................................",
"............................................ @-1>1111----11111111111111111111>1OO...............................................",
"............................................ @@->11111-----@@@@@@@----1111111-@@O...............................................",
"............................................ @@@@111@-@@@@@@@@@@@@@@@@@-1111-@@@@ ..............................................",
"........................................... O@@@@@-1-@@@@@@@@@@@@@@@@@@@@11-@@@@@-..............................................",
".......................................... OO@@@@@--@@@@@@@@@@@@@@@@@@@@@@---@@@@- .............................................",
".........................................  -O@@@@@@@@@@@@@@@@@@@@@@@@@@@@@@@@@@@--- ............................................",
"........................................  @---@@@@@@@@@@@@@@@----@@@@@@@@@@@@@-----  ...........................................",
".......................................   ------@@@@@---@@@@@----@@@@-@@@@@@@-------  ..........................................",
".......................................  @-------@@@----@@@@@----@@@@---@@@@@-------  ..........................................",
".......................................-1>------@@@@@---@@@@@----@@@@---@@@@@----->>11 .........................................",
".......................................->1>>111@@-@@@---@@@@@---@@@@@---@@@@@@1111>1>1-.........................................",
".......................................@-1>>111-@-@@@---@@@@@@--@@@@@---@@@@@@11111--O@.........................................",
".......................................@OO@@@----@@@@---@@@@@@-@@@@@@--@@@@@@@-@@@@@O@O.........................................",
"....................................... @O@@@@@@-@@@@--@@@@@@@@@@@@@@@-@@@@@@@@@@@@@OO .........................................",
".......................................  --------@@@@--@@@@@@@@@@@@@@@@@@@@@@@-------@..........................................",
"....................................... ---------@@@@-@@@@@@@@@@@@@@@@@@@@@@@@-------O..........................................",
"....................................... ---------@@@@-@@@@@@@@@@@@@@@@@@@@@@@@-------O..........................................",
"....................................... --------@@@@@-@@@@@@@@@@@@@@@@@@@@@@@@-------O..........................................",
"....................................... --O@----@@@@@@@@@@@@@@@@@@@@@@@@@@@@@@-------O..........................................",
"........................................--------@@@@@-@@@@@@@@@@@@@@@@@@@@@@@@-------@..........................................",
"........................................O------@@@@@@@@@@@@@@@@@@@@@@@@@@@@@@@@@@@@-- ..........................................",
"........................................------1@@@@@@@@@@@@@@@@@@@@@@@@@@@@@@@-----11 ..........................................",
"........................................-------@@@@@@@@@@@@@@@@@@@@@@@@@@@@@@@------- ..........................................",
"........................................O------@@@@@@@@@@@@@@@@@@@@@@@@@@@@@@@@------ ..........................................",
"....................................... >1>1111-@@@@@@@@@@@@@@@@@@@@@@@@@@@@@@-111111- .........................................",
"...................................... @@O@@@---@@@@@@@@@@@@@@@@@@@@@@@@@@@@@@@------- .........................................",
"...................................... OOO@@@--@@@@@@@@@@@@@@@@@@@@@@@@@@@@@@@@------- .........................................",
"...................................... @-@@@@---@@@@@@@@@@@@@@@@@@@@@@@@@@@@@@@------- .........................................",
"...................................... O--------@@@@@@@@@@@@@@@@@@@@@@@@@@@@@@@------- .........................................",
"...................................... O-------@@@@@@@@@@@@@@@@@@@@@@@@@@@@@@@@------- .........................................",
".......................................O@@@@@@@@@@@@@@@@@@@@@@@@@@@@@@@@@@@@@@@------O .........................................",
"....................................... O@O@@@@@@@@@@@@@@@@@@@@@@@@@@@@@@@@@@@@@@@@@@  .........................................",
"........................................@@O@@@@@@@@@@@@@@@@@@@@@@@@@@@@@@@@@@@@@@@@@@ ..........................................",
"........................................@@O@@@-@@@@@@@@@@@@@@@@@@@@@@@@@@@@@@@@@@@@@@ ..........................................",
"....................................... -------@@@@@@@@@@@@@@@@@@@@@@@@@@@@@@@@@@@@@@ ..........................................",
"....................................... -------@@@@@@@@@@@@@@@@@@@@@@@@@@@@@@@1------- .........................................",
"...................................... --------@@@@@@@@@@@@@@@@@@@@@@@@@@@@@@@--@@@@@--.........................................",
"...................................... OOO@@@@-@@@@@@@@@@@@@@@@@@@@@@@@@@@@@@@---------.........................................",
"...................................... OO----@@@@@@@@@@@@@@@@@@@@@@@@@@@@@@@@@@--------.........................................",
"...................................... O------@@@@@@@@@@@@@@@@@@@@@@@@@@@@@@@@---------.........................................",
"...................................... @@@@@--@@@@@@@@@@@@@@@@@@@@@@@@@@@@@@@@@-------O.........................................",
"..................................... -11111111-@@@@@@@@@@@@@@@@@@@@@@@@@@@@@@111111111 ........................................",
"..................................... ----------@@@@@@@@@@@@@@@@@@@@@@@@@@@@@@--------- ........................................",
"..................................... ---------@@@@@@@@@@@@@@@@@@@@@@@@@@@@@@@--------- ........................................",
"..................................... @OO@@@@@@@@@@@@@@@@@@@@@@@@@@@@@@@@@@@@@@@@@@@OO@ ........................................",
"..................................... @@@@@@@---@@@@@@@@@@@@@@@@@@@@@@@@@@@@@@@@------- ........................................",
"..................................... --@@@@----@@@@@@@@@@@@@@@@@@@@@@@@@@@@@@--------- ........................................",
"..................................... ---@@-----@@@@@@@@@@@@@@@@@@@@@@@@@@@@@@---------- .......................................",
".....................................----@@@@---@@@@@@@@@@@@@@@@@@@@@@@@@@@@@@---------- .......................................",
".....................................-O@@@@@@@@@@@@@@@@@@@@@@@@@@@@@@@@@@@@@@@---------- .......................................",
".....................................OO@@@O@@@@@O@@@@@@@@@@@@@@@@@@@@@@@@@@@@@-@-------O .......................................",
".....................................@O@@@O@@@O@@OOOOOOOOOOOOO@@OOOOOOOOOOOOOOOO@@@@@OOO ......................................."
};
