/* XPM */
static char *tile005[] = {
/* columns rows colors chars-per-pixel */
"64 64 15 1 ",
"  c None",
". c #384844",
"X c #000203",
"o c #0F211E",
"O c #535B5A",
"+ c #0B0008",
"@ c black",
"# c #6A3C4F",
"$ c #3F132D",
"% c #4C273C",
"& c #724E5F",
"* c #80676C",
"= c #050310",
"- c #939393",
"; c white",
/* pixels */
".............X........o...................Xo........X...........",
"............OXO.......o.........X.........Xo.......OXO..........",
"OOOOOOOOOOOO.X.OOOOOOOo.O......XoX......O.XoOOOOOOO.X.OOOOOOOOOO",
"oooooooooooooXooooooooo.O.....XoooX.....O.X.oooooooo.ooooooooooo",
"XXXXXXXXXXXXXoXXXXXXXXo.O.....ooooo.....O.X+XXXXXXXXoXXXXXXXXXXX",
"oooooooooooooXooooooooX.O.....OoooO.....O.XoooooooooXooooooooooo",
"............oXo........X.O.....OoO.....O.Xoo.......oXo..........",
".............oO.....oooXX.O.....O.....O.XXXoooo.....oO..........",
".............oO...ooo@@@@X.............X@@@@@Xoooo..oO..........",
".............X..oX@@@@@@@@XXXXXXXXXXXXX@@@@@@@@XXoo.o...........",
"...........oooo@@@+@@+++@@@@@@@    @@@@+++++++@@@Xooo...........",
"..........ooX@@++++++++++++@       +++++++++++++@@@Xoo..........",
".........ooX@@+++++++++++++@       +++++++++++++++@@@o..........",
"ooooooo..oX@@++++++++++++++@       +++++++++++++++++@@oo...ooooo",
"XXXX@@XXoX@@++#+#$++$++%##%@       +%##%++$++$#++++++@@@oooXXX@@",
"O......oo@@@+##+%+%$$+%##%$@       +$%##%+$$%+%+#+++++@@o..o.OOO",
".......X@@@+##%++%$$$+$###%@       +%###$+$$$%++%#+++++@oo.oO.O.",
".....oX@@@+###%+%##$$+$##%$@       +$%##$+$$##%+%##++++@Xo.oOO..",
".....o@@@+#&##%+%#%$%+$$%#%@       +%#%$$+%$%#%+%##&++++@XooO...",
"....oX@@+%##$#%++%#%%+$#%$%@       +%$%#$+%%#%++%#$##%++@@ooO...",
"....oX@++%####%+$%%%$+++$$$@       +$$$+++$%%%$+%####%+++@Xo....",
"....X@@++%####%+%#&#$+%#++%@       +%++#%+$#&#%+%####%+#+@@oO...",
"....X@@++%####%+%##%%+$###+@       ++###$+%%##%+%####%+#++@o....",
"....X@+++%####%+%###$+%####@       +####%+$###%+%####%+#%+@o....",
"....X@@#+%####%+%#&%$+%###*@       +*###%+$%&#%+%####%+#$+@o....",
"....X@@#+%####%+$#%%$+%#**%@       +%**#%+$%%#$+%####%+#%+@o....",
"....X@@#+%####%++%%%$+**$%%@       +%%$**+$%%%++%####%+#%%@o....",
"....X@@#+%&#&#%+$%%%$+%%$$$@       +$$$%%+$%%%$+%#&#&%+#%%+o....",
"...oX+%#+%&%##%+$%$$$+%%%$+@       ++$%%%+$$$%$+%##%&%+#%%%o=...",
"o.oXX+%#+%#%%#&+%%%$+++$+$$@       +$$+$+++$%%%+&#%%#%+#%%%oo=oo",
"XoXXo+%#+%&%$#&+*%$$$++$+++@       ++++$++$$$%*+&#$%&%+#%%%oXXXX",
"...O.X%#+%&%%#&+&*%$$+$$$++@       +++$$$+$$%*&+&#%%&%+#%$+.OOOO",
"....OX%#+%&#%##+#&*%%+%%%%%@       +%%%%%+%%*&#+##%#&%+#%$@O....",
"....OX%%+%&#%#&+#&&**+%%%%%@       +%%%%%+**&&#+&#%#&%+%%$XO....",
".....X$%+%&%%%#+##&&#+*****@       +*****+#&&##+#%%%&%+%$%X.....",
".....X$%+%&%+$#+%#&&%+#$+$#@       +#$+$#+%&&#%+#$+%&%+%$%XO....",
".....X$%+%&+@+$+%#&&#+#%+$%@       +%$+%#+#&&#%+$+@+&%+%$%@O....",
".....X$#+%&%++$+&&#%$+%#%#*@       +*#%#%+$%#&&+$++%&%+#$%+O....",
".....X$#+%&%%%%+&&+XX+%&&&&@       +&&&&&+XX+%&+%%%%&%+#$%$.....",
".....X$#+%&%&##+*+X..X+&*#%@       +%#&*+X..X+&+##&%&%+#$%$.....",
".....X%#+%&%%%&++-.OO.o+&&&@       +&&*+-.OO.o++&%%%&%+#%%$.....",
"....oX$#+%&%%%%+-O....oo&&&@       +&&+-O....oo+%%%%&%+#$%$.....",
"....oX$#+%&%%%%+-OXXXXoo+*&@       +&*+-OXXXXoo+%%%%&%+#$%$o....",
"o.ooXX$#+%&%#%%+-OXXXXo.+*&@       +&*+-OXXXXo.+%%#%&%+#$$$ooo=o",
"@XXXX+$#+%&%%%%+O-@@@@..+*&@       +&*+O-@@@@..+%%%%&%+#$$$XXX@@",
"O..oX+$$+%&%%%%+.O--OO.o+&&@       +&&+.O--OO.o+%%%%&%+$$%$@XOOO",
"....X+$$+%&%%%%@+.....o@&&*@       +*&&+.....o@+%%%%&%+$$%$@X...",
"....X+$$@%&#%%%@#+++@@@#&**@       +**&&+++@@@#+%%%#&%@$$%$@X...",
"....X@%$@%&#%%%@##%%$+$++++@       +++++$+$%%##@%%%#&%@$%$$@X...",
"....X+%$@%&%%%%+##%%%++++++@       +++++++%%%##+%%%%&%@$%$$@X...",
"....X$$$+%&%%%%@%%%%%+++$%+@       ++%$+++%%%%%@%%%%&%+$$$+@X...",
"....X$$$+%&%%$%@%%$$%+++$&%@       +%&$+++%$$%%@%$%%&%+$$$+@X...",
"....X$$$+%&%$$%@%$$$%+&$+%&@       +&%+$&+%$$$%@%$$%&%+$$$@@X...",
"...oX$$+@%&+$$$@%$%%%+%%%%%@       +%%%%%+%%%$%@$$$+&%@+$$@@X...",
"....X+$+@%&+$$$@$$%%%+%%%%%@       +%%%%%+%%%$$@$$$+&%@+$+@@X...",
"..ooX+$$@%&$$+$$$%%%%+%$%%&+       +&%%$%+%%%%$$$+$$&%@$$+@@X...",
"...oX$$+@%&+$$$$$$%%%+%+%%&@       +&%%+%+%%%$$$$$$+&%@+$$+@X...",
"....X$++@%&++$+@$$%%%+%+%%&@       +&%%+%+%%%$$@+$++&%@++$+@X...",
"....X+$+@%&++$+@%$%$$+@+%%&@       +&%%+@+$$%$%@+$++&%@+$++@X...",
"Xoo..+$+@%&++$$@$$$$$+@%%%&@       +&%%%@+$$$$$@$$++&%@+$++@oooo",
"OOOOO+$+@%&++$+@+$$$$@%%%&$+       %$&%%%@$$$$+@+$++&%@+$++@OOOO",
"OOOOO+++@$%++++@@++++@+%%&$@       +$&%%+@++++@@++++%+@+++@@OOOO",
".....@+@@$+++++@@++++@@++$$@       +$$++@@@+++@@+++++@@++@@@....",
".....@@@@@@@++@@@+++@@@+++@@       +@++@@@@@++@@@++@@@@@@@@@...."
};
