/* XPM */
static char *tile000[] = {
/* columns rows colors chars-per-pixel */
"64 64 14 1 ",
"  c #384844",
". c #000203",
"X c #0F211E",
"o c #535B5A",
"O c #0B0008",
"+ c black",
"@ c #6A3C4F",
"# c #3F132D",
"$ c #4C273C",
"% c #724E5F",
"& c #80676C",
"* c #050310",
"= c #939393",
"- c white",
/* pixels */
"             .        X                   .X        .           ",
"            o.o       X         .         .X       o.o          ",
"oooooooooooo . oooooooX o      .X.      o .Xooooooo . oooooooooo",
"XXXXXXXXXXXXX.XXXXXXXXX o     .XXX.     o . XXXXXXXX XXXXXXXXXXX",
".............X........X o     XXXXX     o .O........X...........",
"XXXXXXXXXXXXX.XXXXXXXX. o     oXXXo     o .XXXXXXXXX.XXXXXXXXXXX",
"            X.X        . o     oXo     o .XX       X.X          ",
"             Xo     XXX.. o     o     o ...XXXX     Xo          ",
"             Xo   XXX++++.             .+++++.XXXX  Xo          ",
"             .  X.++++++++.............++++++++..XX X           ",
"           XXXX+++O++OOO+++++++O+++++++OOOOOOO+++.XXX           ",
"          XX.++OOOOOOOOOOOOOOO+OOOOOOOOOOOOOOOOO+++.XX          ",
"         XX.++OOOOOOOOOOOOOOOO+OOOOOOOOOOOOOOOOOOO+++X          ",
"XXXXXXX  X.++OOOOOOOOOOOOOOOOO+OOOOOOOOOOOOOOOOOOOOO++XX   XXXXX",
"....++..X.++OOOOO@O@#OO#OO$@@$+OO$@@$OO#OO#@OOOOOOOOO+++XXX...++",
"o      XX+++OOOO@@O$O$##O$@@$#+OO#$@@$O##$O$O@OOOOOOOO++X  X ooo",
"       .+++OOOO@@$OO$###O#@@@$+OO$@@@#O###$OO$@OOOOOOOO+XX Xo o ",
"     X.+++OOOO@@@$O$@@##O#@@$#+OO#$@@#O##@@$O$@@OOOOOOO+.X Xoo  ",
"     X+++OOOO@%@@$O$@$#$O##$@$+OO$@$##O$#$@$O$@@%OOOOOOO+.XXo   ",
"    X.++OOOO$@@#@$OO$@$$O#@$#$+OO$#$@#O$$@$OO$@#@@$OOOOO++XXo   ",
"    X.+OOOOO$@@@@$O#$$$#OOO###+OO###OOO#$$$#O$@@@@$OOOOOO+.X    ",
"    .++OOOOO$@@@@$O$@%@#O$@OO$+OO$OO@$O#@%@$O$@@@@$O@OOOO++Xo   ",
"    .++OOO@O$@@@@$O$@@$$O#@@@O+OOO@@@#O$$@@$O$@@@@$O@OOOOO+X    ",
"    .+OOOO@O$@@@@$O$@@@#O$@@@@+OO@@@@$O#@@@$O$@@@@$O@$OOOO+X    ",
"    .++OO#@O$@@@@$O$@%$#O$@@@&+OO&@@@$O#$%@$O$@@@@$O@#OOOO+X    ",
"    .++OO$@O$@@@@$O#@$$#O$@&&$+OO$&&@$O#$$@#O$@@@@$O@$OOOO+X    ",
"    .++O$$@O$@@@@$OO$$$#O&&#$$+OO$$#&&O#$$$OO$@@@@$O@$$OOO+X    ",
"    .++O$$@O$%@%@$O#$$$#O$$###+OO###$$O#$$$#O$@%@%$O@$$OOO+X    ",
"   X.OOO$$@O$%$@@$O#$###O$$$#O+OOO#$$$O###$#O$@@$%$O@$$$OOOX*   ",
"X X..OO$$$@O$@$$@%O$$$#OOO#O##+OO##O#OOO#$$$O%@$$@$O@$$$$OOXX*XX",
".X..XOO$$$@O$%$#@%O&$###OO#OOO+OOOOO#OO###$&O%@#$%$O@$$$#OOX....",
"   o .O#%$@O$%$$@%O%&$##O###OO+OOOO###O##$&%O%@$$%$O@$#O#O. oooo",
"    o.O#%$@O$%@$@@O@%&$$O$$$$$+OO$$$$$O$$&%@O@@$@%$O@$#+OO.o    ",
"    o.$#$$$O$%@$@%O@%%&&O$$$$$+OO$$$$$O&&%%@O%@$@%$O$$#+OO.o    ",
"     .$#$#$O$%$$$@O@@%%@O&&&&&+OO&&&&&O@%%@@O@$$$%$O$#$+OO.     ",
"     .$#$#$O$%$O#@O$@%%$O@#O#@+OO@#O#@O$%%@$O@#O$%$O$#$+OO.o    ",
"     .$#$#$O$%O+O#O$@%%@O@$O#$+OO$#O$@O@%%@$O#O+O%$O$#$+OO.o    ",
"     .$#$#@O$%$OO#O%%@$#O$@$@&+OO&@$@$O#$@%%O#OO$%$O@#$OOO.o    ",
"     .$#$#@O$%$$$$O%%O..O$%%%%+OO%%%%%O..O$%O$$$$%$O@#$#$O.     ",
"     .$#$#@O$%$%@@O&O.  .O%&@$+OO$@%&O.  .O%O@@%$%$O@#$#$#.     ",
"     .$#$$@O$%$$$%OO= oo XO%%%+OO%%&O= oo XOO%$$$%$O@$$#$#.     ",
"    X.$#$#@O$%$$$$O=o    XX%%%+OO%%O=o    XXO$$$$%$O@#$#$#.     ",
"    X.$#$#@O$%$$$$O=o....XXO&%+OO%&O=o....XXO$$$$%$O@#$#$#.X    ",
"X XX..####@O$%$@$$O=o....X O&%+OO%&O=o....X O$$@$%$O@#####.XXX*X",
"+....O$###@O$%$$$$Oo=++++  O&%+OO%&Oo=++++  O$$$$%$O@###$#O...++",
"o  X.O$#$##O$%$$$$O o==oo XO%%+OO%%O o==oo XO$$$$%$O##$#$#O+.ooo",
"    .O$#$##O$%$$$$+O     X+%%&+OO&%%O     X+O$$$$%$O##$#$#O+.   ",
"    .O$#$##+$%@$$$+@OOO+++@%&&+OO&&%%OOO+++@O$$$@%$+##$#$#O+.   ",
"    .+###$#+$%@$$$+@@$$#O#OOOO+OOOOOO#O#$$@@+$$$@%$+#$####++.   ",
"    .O###$#+$%$$$$O@@$$$OOOOOO+OOOOOOOO$$$@@O$$$$%$+#$####++.   ",
"    .+#####O$%$$$$+$$$$$OOO#$O+OOO$#OOO$$$$$+$$$$%$O###O##++.   ",
"    .+#####O$%$$#$+$$##$OOO#%$+OO$%#OOO$##$$+$#$$%$O###OOO++.   ",
"    .O#####O$%$##$+$###$O%#O$%+OO%$O#%O$###$+$##$%$O###+OO++.   ",
"   X.+####O+$%O###+$#$$$O$$$$$+OO$$$$$O$$$#$+###O%$+O##+OO++.   ",
"    .+##O#O+$%O###+##$$$O$$$$$+OO$$$$$O$$$##+###O%$+O#O+OO++.   ",
"  XX.+O#O##+$%##O###$$$$O$#$$%OOO%$$#$O$$$$###O##%$+##O+OO++.   ",
"   X.+OO##O+$%O######$$$O$O$$%+OO%$$O$O$$$######O%$+O##OO+++.   ",
"    .+#O#OO+$%OO#O+##$$$O$O$$%+OO%$$O$O$$$##+O#OO%$+OO#O#+++.   ",
"    .+OOO#O+$%OO#O+$#$##O+O$$%+OO%$$O+O##$#$+O#OO%$+O#OOO+++.   ",
".XX  +OOO#O+$%OO##+#####O+$$$%+OO%$$$+O#####+##OO%$+O#OOO+++XXXX",
"ooooo++OO#O+$%OO#O+O####+$$$%#OO$#%$$$+####O+O#OO%$+O#OO++++oooo",
"ooooo+++OOO+#$OOOO++OOOO+O$$%#+OO#%$$O+OOOO++OOOO$O+OOO+++++oooo",
"     ++++O++#OOOOO++OOOO++OO##+OO##OO+++OOO++OOOOO++OO++++++    ",
"     ++++++++++OO+++OOO+++OOO++OO+OO+++++OO+++OO++++++++++++    "
};
